<svg id="Capa_1" enable-background="new 0 0 512 512" height="512" viewBox="0 0 512 512" width="512" xmlns="http://www.w3.org/2000/svg"><g><g><g><g><path d="m312.776 105.794c.041-48.07-33.969-88.21-79.247-97.621-.473-.092-.936-.186-1.39-.282-50.707 4.462-90.463 47.058-90.418 98.925l.008 33.807h1.417v18.536h-1.412l.012 48.502c.016 63.089 51.164 114.224 114.253 114.224 15.646 0 30.553-3.151 44.133-8.843 1.182 11.534 5.729 22.072 12.644 30.614z" fill="#efc984"/><path d="m369.429 159.16v-18.536c.282-.373.565-.743.849-1.109v-32.698c.048-54.838-44.393-99.317-99.23-99.317 0 0-30.573.006-30.649.007-5.042.028-9.993.433-14.83 1.186 1.268.307 2.621.605 4.068.887 45.099 9.374 78.976 49.355 78.934 97.236v230.912c10.277 16.541 28.603 27.559 49.51 27.559 6.737 0 12.198-5.461 12.198-12.198v-193.929z" fill="#e8ae4d"/></g></g><g><path d="m338.993 305.935c-9.911-1.628-18.927-2.891-25.803-3.784-7.643-.992-13.365-7.493-13.365-15.2v-70.107h-87.65v70.107c0 7.707-5.722 14.208-13.365 15.2-5.136.667-11.466 1.54-18.471 2.618v90.956h158.653v-89.79z" fill="#faefdb"/><g><path d="m351.418 346.128c-5.529-2.462-12.17-4.726-19.401-6.791-11.621-3.318-20.113-13.208-21.801-25.175-.01-.07-.02-.14-.03-.209-.619-4.362-1.121-8.738-1.508-13.123-5.272-2.46-8.853-7.786-8.853-13.877 0 11.71.826 23.406 2.471 35 6.927 48.816-.908 89.356-22.497 133.683l-23.799 48.864-23.799-48.865c-21.589-44.327-29.424-84.867-22.497-133.683 1.645-11.594 2.471-23.29 2.471-35 0 7.707-5.722 14.208-13.365 15.2-22.796 2.958-69.101 9.989-93.597 20.896-26.907 11.98-44.243 38.675-44.243 68.129v91.765c0 11.907 9.652 21.559 21.559 21.559l313.131-.207v-90.036c0-29.456-17.335-56.15-44.242-68.13z" fill="#756e78"/><g><g><g><g><g><g><g><g><g><g><path d="m406.787 323.047c-24.496-10.906-70.801-17.937-93.597-20.896-7.643-.992-13.365-7.493-13.365-15.2 0 11.71.826 23.406 2.471 35 .991 6.982 1.679 13.795 2.069 20.474 14.666 3.204 28.848 7.109 39.163 11.701 26.907 11.98 44.243 38.675 44.243 68.129v82.245h41.701c11.907 0 21.559-9.652 21.559-21.559v-91.765c-.002-29.454-17.337-56.149-44.244-68.129z" fill="#665e66"/></g></g></g></g></g></g></g></g></g></g><path d="m249.251 496.667 6.749 7.625 7.343-8.019 19.153-39.326c18.235-37.441 26.299-71.985 25.104-109.034-15.698 7.203-33.161 11.22-51.564 11.22-18.43 0-35.919-4.029-51.635-11.252-1.202 37.061 6.863 71.615 25.103 109.066z" fill="#e07f84"/><path d="m232.201 455.635c-21.589-44.327-29.424-84.867-22.497-133.683 1.645-11.594 2.471-23.29 2.471-35l-39.932 15.322c-9.995 3.835-14.488 15.466-9.666 25.024l6.009 11.912c2.773 5.497 2.558 12.027-.57 17.33l-16.233 27.517c-4.088 6.93-3.105 15.727 2.411 21.584l101.806 98.859z" fill="#89808c"/><g><path d="m279.799 455.635c21.589-44.327 29.424-84.867 22.497-133.683-1.645-11.594-2.471-23.29-2.471-35l39.932 15.322c9.995 3.835 14.488 15.466 9.666 25.024l-6.009 11.912c-2.773 5.497-2.558 12.027.57 17.33l16.233 27.517c4.088 6.93 3.105 15.727-2.411 21.584l-101.806 98.859z" fill="#89808c"/></g><g><path d="m298.977 149.898v149.649c0 8.578 1.094 17.652 3.774 25.765.078.105 11.848 39.977 55.33 39.977 6.737 0 12.198-5.461 12.198-12.198v-203.193z" fill="#efc984"/><path d="m370.279 353.091v-203.193h-61.707v187.692c7.195 11.75 22.008 27.699 49.51 27.699h.001c6.735-.001 12.196-5.462 12.196-12.198z" fill="#e8ae4d"/></g><g><g><g><g><g><g><g><path d="m175.024 124.944h-17.623c-8.66 0-15.68 7.02-15.68 15.68v18.536c0 8.667 7.026 15.692 15.692 15.692h17.611z" fill="#f6e2bf"/></g></g></g></g></g></g></g><path d="m336.976 124.944h17.623c8.66 0 15.68 7.02 15.68 15.68v18.536c0 8.667-7.026 15.692-15.692 15.692h-17.611z" fill="#f6e2bf"/><path d="m295.438 124.944c-34.205 0-63.728-20.046-77.462-49.03-.332-.701-1.38-.465-1.38.311v2.689c0 16.466-13.465 29.095-29.93 29.25-8.712.082-15.738 7.191-15.699 15.922l.201 44.259c0 56.396 59.202 87.891 84.832 88.439 25.63-.549 84.832-32.044 84.832-88.439l.109-43.401z" fill="#faefdb"/><g><path d="m308.571 124.944v43.401c0 46.449-40.269 76.006-68.755 85.294 6.099 1.989 11.664 3.048 16.184 3.145 25.63-.549 84.832-32.044 84.832-88.439l.109-43.401z" fill="#f6e2bf"/></g></g></g></g><g><path d="m409.837 316.197c-8.013-3.568-18.779-6.996-32.058-10.211v-31.671c0-4.142-3.358-7.499-7.499-7.499-4.142 0-7.499 3.358-7.499 7.499v37.479.003.138 41.156c0 2.591-2.108 4.698-4.698 4.698-23.598 0-43.486-16.188-49.144-38.042-.006-.024-.013-.047-.019-.071-1.085-4.217-1.595-8.53-1.595-12.643v-63.469c1.847-1.368 3.687-2.781 5.502-4.292 18.843-15.691 30.711-35.53 34.325-56.919h7.435c2.884 0 5.644-.533 8.193-1.499v58.402c0 4.142 3.358 7.499 7.499 7.499 4.142 0 7.499-3.358 7.499-7.499 0-13.025 0-118.792 0-132.431.051-59.025-47.699-106.824-106.73-106.824-14.157.003-28.963-.008-30.674.007-58.555.309-106.204 47.795-106.152 106.811 0 1.376.021 83.013.025 100.845.009 33.159 13.246 64.245 36.69 87.078-.763.364-5.069 1.492-9.522 5.586-26.331 4.754-46.271 10.089-59.253 15.869-29.579 13.17-48.692 42.602-48.692 74.98v23.823c0 4.142 3.358 7.499 7.499 7.499s7.499-3.358 7.499-7.499v-23.823c0-26.462 15.62-50.515 39.794-61.278 9.952-4.431 25.352-8.783 44.966-12.741-.36 4.621.527 9.307 2.651 13.518l6.009 11.911c1.63 3.233 1.506 7.024-.334 10.143l-16.233 27.517c-5.748 9.744-4.345 22.3 3.411 30.536.077.081.155.161.235.238l88.544 85.981h-104.79v-29.534c0-4.142-3.358-7.499-7.499-7.499-4.142 0-7.499 3.358-7.499 7.499v29.534h-35.194c-7.752 0-14.059-6.307-14.059-14.059v-32.882c0-4.142-3.358-7.499-7.499-7.499s-7.499 3.358-7.499 7.499v32.882c0 16.023 13.036 29.058 29.058 29.058h346.941c16.023 0 29.058-13.036 29.058-29.058v-91.765c0-32.379-19.113-61.811-48.692-74.981zm-65.885 55.046 9.807 16.624c2.353 3.988 1.809 9.117-1.312 12.525l-70.96 68.907 5.055-10.38c17.587-36.109 25.862-69.431 25.686-104.82 8.628 8.408 19.547 14.466 31.724 17.144zm-87.952 116.131-17.057-35.022c-15.722-32.282-23.496-61.401-24.169-92.342 13.254 4.394 27.086 6.624 41.262 6.624 14.15 0 27.958-2.223 41.19-6.601-.661 30.914-8.404 59.948-24.169 92.318zm36.326-180.341c0 6.967 1.108 13.681 3.061 19.851.745 5.889 1.269 11.659 1.574 17.34-13.052 4.916-26.794 7.411-40.925 7.411-14.16 0-27.928-2.506-41.003-7.441.37-6.919 1.071-13.964 2.096-21.189 1.689-11.901 2.545-24.031 2.545-36.054v-33.873c13.828 7.408 27.058 11.009 36.165 11.204.054.001.107.001.161.001s.107 0 .161-.001c9.107-.195 22.336-3.797 36.165-11.204zm-36.326-57.749c-27.38-.746-77.332-34.078-77.332-80.972l-.201-44.259c-.01-2.238.853-4.344 2.432-5.93s3.681-2.46 5.919-2.46c14.793 0 27.6-8.662 33.618-21.179 16.981 23.007 44.276 37.961 75.001 37.961h37.984l-.09 35.902c.001 47.994-51.159 80.224-77.331 80.937zm-106.771-108.827c.09-4.433 3.718-8.014 8.172-8.014h6.105l.158 34.91h-6.251c-4.429 0-8.04-3.535-8.179-7.931zm205.357 26.896h-6.253l.088-34.91h6.177c4.508 0 8.177 3.666 8.181 8.174v18.549c-.003 4.515-3.677 8.187-8.193 8.187zm8.193-60.536v10.628h-21.82c-.007 0-.013 0-.02 0h-45.502c-43.104 0-78.172-35.068-78.172-78.172v-.491c0-12.652 9.827-23.052 22.127-23.745 4.086-.068 17.252-.024 31.654-.038 50.726.001 91.778 41.069 91.733 91.818zm-156.614-85.01c-7.306 15.045-3.314 37.114 2.932 52.466v4.112c0 12.284-9.994 22.278-22.278 22.278-6.257 0-12.135 2.442-16.549 6.877-2.797 2.81-4.788 6.204-5.867 9.904h-7.001c-2.878 0-5.633.531-8.177 1.494l-.003-12.128c-.035-38.59 23.713-71.393 56.943-85.003zm-56.919 185.853-.007-26.8c2.544.961 5.298 1.492 8.174 1.492h7.437c3.616 21.395 15.483 41.231 34.323 56.919 1.815 1.511 3.655 2.925 5.502 4.292v38.234l-18.082 6.938c-23.775-20.337-37.338-49.645-37.347-81.075zm10.308 192.732c-3.121-3.407-3.665-8.536-1.312-12.525l16.233-27.517c4.446-7.538 4.748-16.703.807-24.518l-6.009-11.912c-1.365-2.705-1.515-5.752-.423-8.578s3.251-4.981 6.08-6.066l29.495-11.316c-.352 7.68-1.068 15.359-2.144 22.939-7.054 49.719.927 92.33 23.18 138.021l5.055 10.38zm283.976 82.55c0 7.752-6.307 14.059-14.059 14.059h-35.194v-29.534c0-4.142-3.358-7.499-7.499-7.499-4.142 0-7.499 3.358-7.499 7.499v29.534h-104.79l88.544-85.981c.08-.078.158-.157.235-.238 7.756-8.236 9.158-20.792 3.411-30.536l-4.636-7.859c8.969-1.838 15.737-9.792 15.737-19.297v-31.65c10.744 2.729 19.456 5.564 25.958 8.459 24.174 10.764 39.794 34.816 39.794 61.278v91.765z"/></g></g></svg>