<svg id="Capa_1" enable-background="new 0 0 512 512" height="512" viewBox="0 0 512 512" width="512" xmlns="http://www.w3.org/2000/svg"><g><g><g><g><g><path d="m159.709 127.94c-9.01 0-16.315 7.304-16.315 16.315v18.08c0 9.011 7.305 16.315 16.315 16.315h19.576v-50.71z" fill="#f6e2bf"/><path d="m368.606 162.335v-18.08c0-9.011-7.305-16.315-16.315-16.315h-19.539v50.71h19.539c9.01 0 16.315-7.305 16.315-16.315z" fill="#f6e2bf"/><g><g><g><g><g><g><g><g><g><g><g><g><g><g><g><g><g><g><g><g><g><path d="m194.513 297.69-1.085 1.955c-2.395 21.668.1 43.858 7.274 64.447l48.131 129.717 7.167 10.691 7.167-10.692 48.111-129.66c7.194-20.642 9.689-42.834 7.294-64.503l-1.085-1.955c-4.415-2.757-7.299-7.653-7.299-13.156v-70.931h-108.376v70.931c0 5.503-2.884 10.399-7.299 13.156z" fill="#faefdb"/></g><path d="m248.833 493.808 7.167 10.692 7.167-10.692 48.111-129.66c7.194-20.642 9.689-42.834 7.294-64.503l-1.085-1.955c-.87-.543-1.68-1.17-2.42-1.867l-59.067 45.922-59.067-45.922c-.741.697-1.551 1.324-2.42 1.867l-1.085 1.955c-2.395 21.668.1 43.858 7.274 64.447z" fill="#f7f4f7"/></g></g></g></g></g></g></g></g></g></g></g></g></g><path d="m256.001 341.745h-.001-.001l-28.637 14.453 14.445 30.806h28.386l14.445-30.806z" fill="#db636e"/></g><path d="m270.193 387.005h-28.386l-16.965 88.755 31.158 28.74 31.158-28.74z" fill="#e07f84"/></g><g><path d="m188.29 299.912s5.532 73.213 5.532 73.213l62.178-31.38-59.069-45.924c-2.308 2.173-5.291 3.657-8.641 4.091z" fill="#e0dde0"/><path d="m318.178 373.125 27.277-70.087c-8.3-1.312-15.813-2.357-21.745-3.126-3.35-.435-6.333-1.919-8.641-4.092l-59.069 45.925z" fill="#b2ced3"/></g><g><path d="m356.991 356.875c-6.338-2.822-20.846-6.749-37.046-10.665l-.826-.399-63.119 158.689h145.753v-78.695c0-29.801-17.539-56.809-44.762-68.93z" fill="#756e78"/><path d="m318.178 373.125s5.531-73.213 5.532-73.213c-3.35-.435-6.333-1.919-8.641-4.092l-59.069 45.925z" fill="#e0dde0"/><path d="m418.407 321.054c-20.753-9.24-56.968-15.728-81.744-19.353l-18.561 46.665c16.2 3.916 30.708 7.843 37.046 10.665 27.223 12.121 44.763 39.13 44.763 68.93v76.539h41.447c12.047 0 21.812-9.766 21.812-21.812v-92.704c0-29.801-17.539-56.809-44.763-68.93z" fill="#665e66"/><path d="m93.593 321.054c-27.224 12.121-44.763 39.13-44.763 68.93v92.704c0 12.047 9.766 21.812 21.812 21.812h185.358l-80.663-202.799c-24.776 3.624-60.992 10.113-81.744 19.353z" fill="#756e78"/></g></g></g></g></g><g><g><g><path d="m196.931 295.821-25.765 5.557c-11.385 2.455-20.228 11.432-22.513 22.852l-5.388 26.927c-1.58 7.895 3.887 15.468 11.878 16.454 10.672 1.317 14.99 14.465 7.177 21.852l-4.567 4.319c-5.635 5.328-5.794 14.246-.352 19.771l98.599 90.947-52.465-141.395c-7.521-21.584-9.785-44.65-6.604-67.284z" fill="#89808c"/></g></g><g><g><path d="m315.069 295.821 25.765 5.557c11.385 2.455 20.228 11.432 22.513 22.852l5.388 26.927c1.58 7.895-3.887 15.468-11.878 16.454-10.672 1.317-14.99 14.465-7.177 21.852l4.567 4.319c5.635 5.328 5.794 14.246.352 19.771l-98.599 90.947 52.465-141.395c7.521-21.584 9.785-44.65 6.604-67.284z" fill="#89808c"/></g></g></g></g><path d="m268.11 240.597c17.976-15.478 31.015-38.269 31.523-61.947l.023-151.643c-6.616-3.501-13.756-6.26-21.287-8.163-.008-.002-.016-.004-.024-.006-.024-.006-.048-.012-.072-.018-6.858-1.726-14.276-2.752-22.274-2.841-52.338.584-98.01 44.053-87.939 99.677l2.224 12.286.003 50.71c.508 23.678 11.231 46.469 29.207 61.947 11.39 9.808 21.356 16.502 33.156 20.203.008.003.017.005.025.008 1.696.531 3.529.422 5.161-.283 11.088-4.795 21.965-12.775 30.274-19.93z" fill="#faefdb"/></g></g></g><g><path d="m295.794 25.075-.029 153.575c-.508 23.678-13.547 46.469-31.523 61.947-9.692 8.345-18.655 15.98-31.59 20.203 6.965 2.195 14.536 3.336 23.348 3.435 26.872-.3 39.717-11.176 54.188-23.637 17.976-15.478 31.015-38.269 31.523-61.947l.039-50.71 2.239-12.471c7.13-39.698-14.387-74.454-48.195-90.395z" fill="#f6e2bf"/></g><g><path d="m256.864 68.492c8.028 0 16.229-.907 24.395-2.823v-.001c8.272-1.946 12.703-4.095 18.393-5.293l.007-48.795c0-2.145-1.681-3.933-3.824-4.024-.013-.001-.025-.001-.038-.002-.934-.039-1.773-.055-2.717-.055-9.435 0-65.036 0-74.179 0-36.846 0-66.716 29.87-66.716 66.716v55.562s.16-.002.429 0h12.237c10.037 0 18.173-8.137 18.173-18.173v-34.678c0-9.661 7.831-17.492 17.492-17.492h3.767c16.709 0 24.857 9.058 52.581 9.058z" fill="#efc984"/></g><g><path d="m359.803 74.221c-.006-35.936-28.42-65.241-64.007-66.666l-.01 53.807c3.881-1.141 7.794-1.927 13.655-1.927h2.04c9.661 0 17.492 7.831 17.492 17.492v34.678c0 10.037 8.137 18.174 18.174 18.174h12.667c0-.001-.004-15.567-.011-55.558z" fill="#e8ae4d"/></g></g><g><path d="m421.458 314.202c-15.295-6.81-39.862-12.957-73.005-18.277-1.937-.784-3.948-1.428-6.037-1.879l-23.356-5.037c-.89-1.31-1.372-2.85-1.372-4.476v-40.583c17.274-15.903 28.475-36.888 30.993-57.801h3.611c13.131 0 23.815-10.683 23.815-23.814v-18.08c0-7.281-3.281-14.014-8.793-18.483-.001-4.436-.003-12.749-.005-25.824-.001-4.142-3.359-7.499-7.501-7.498s-7.499 3.359-7.498 7.5c.002 10.195.003 17.5.004 22.328-4.414-.096-5.903.267-8.306-.469-.018-.006-.035-.011-.053-.016-4.475-1.4-7.481-5.492-7.481-10.19v-34.678c0-13.78-11.211-24.991-24.991-24.991h-2.04c-19.381 0-24.892 9.058-52.579 9.058-27.421 0-33.354-9.058-52.579-9.058h-3.767c-13.78 0-24.991 11.211-24.991 24.991v34.678c0 4.684-2.994 8.772-7.448 10.18-.018.006-.036.012-.055.017-2.423.75-3.938.381-8.339.478v-48.063c0-32.652 26.564-59.216 59.216-59.216h74.179c29.372 0 54.586 21.9 58.649 50.941.574 4.101 4.361 6.956 8.466 6.388 4.102-.574 6.962-4.365 6.388-8.466-5.093-36.407-36.693-63.862-73.502-63.862h-74.179c-40.923 0-74.215 33.292-74.215 74.215v51.559c-5.511 4.468-8.792 11.201-8.792 18.482v18.08c0 13.132 10.683 23.814 23.814 23.814h3.536c2.361 23.077 13.441 44.566 31.067 59.874v38.511c0 1.627-.482 3.166-1.372 4.476l-23.357 5.037c-2.089.451-4.1 1.095-6.037 1.879-33.142 5.32-57.71 11.467-73.005 18.277-29.895 13.31-49.212 43.056-49.212 75.781v22.171c0 4.142 3.358 7.499 7.499 7.499s7.499-3.357 7.499-7.499v-22.171c0-26.807 15.824-51.175 40.314-62.079 10.458-4.656 26.588-9.165 47.301-13.26-1.174 2.56-2.077 5.273-2.645 8.114l-5.388 26.928c-2.432 12.16 6.005 23.85 18.314 25.368 4.366.538 6.164 5.914 2.942 8.96l-4.568 4.319c-9.178 8.679-8.546 23.154-.283 30.732l84.494 77.936h-105.866v-32.048c0-4.142-3.358-7.499-7.499-7.499-4.142 0-7.499 3.357-7.499 7.499v32.048h-45.303c-7.892 0-14.313-6.42-14.313-14.312v-35.371c0-4.142-3.358-7.499-7.499-7.499s-7.499 3.357-7.499 7.499v35.371c0 16.16 13.149 29.309 29.311 29.309h370.717c16.162 0 29.312-13.149 29.312-29.311v-92.705c0-32.726-19.317-62.471-49.212-75.782zm-82.204-5.494c8.47 1.827 15.042 8.497 16.742 16.994l5.387 26.928c.723 3.61-1.764 7.085-5.442 7.539-16.979 2.093-23.826 23.006-11.411 34.743l4.567 4.319c2.557 2.419 2.648 6.423.263 8.954l-75.442 69.587 41.58-112.058c.017-.047.034-.094.051-.142 6.713-19.265 9.45-39.892 8.051-60.24zm-83.337-36.975h.083s.056 0 .083 0c21.53-.24 35.246-6.963 46.606-15.329v28.13c0 3.382.764 6.701 2.174 9.723l-48.863 37.989-48.863-37.989c1.41-3.022 2.174-6.341 2.174-9.723v-26.837c11.785 7.841 26.157 13.807 46.606 14.036zm-9.344 107.773-9.329-19.895 18.756-9.466 18.756 9.466-9.329 19.895zm35.937 31.992-4.494-23.512 10.136-21.615 9.352 4.72zm20.12-54.62-32.669-16.487 38.87-30.22c.642 15.772-1.449 31.652-6.201 46.707zm-60.591-16.487-32.669 16.487c-4.753-15.055-6.843-30.935-6.201-46.708zm-18.191 25.98 10.136 21.615-4.494 23.512-14.994-40.407zm24.161 28.134h15.983l8.44 44.156-16.432 44.282-16.431-44.282zm109.656-257.228c2.149 1.654 3.442 4.205 3.442 6.978v18.08c0 4.861-3.955 8.816-8.816 8.816h-3.074l.026-33.873h8.422zm-206.772 25.058v-18.08c0-2.773 1.294-5.326 3.444-6.979l8.449.001.002 33.873h-3.079c-4.861 0-8.816-3.954-8.816-8.815zm26.895 16.231-.003-44.782c7.792-4.518 12.74-12.852 12.74-22.18v-34.679c0-5.51 4.483-9.992 9.992-9.992h3.767c14.597 0 23.782 9.058 52.579 9.058 28.896 0 37.647-9.058 52.579-9.058h2.04c5.51 0 9.992 4.482 9.992 9.992v34.678c0 9.348 4.961 17.687 12.773 22.199l-.035 44.762c-.457 20.088-11.264 41.148-28.917 56.349-13.967 12.025-25.002 21.528-49.295 21.82-22.434-.27-36.553-8.854-51.611-21.82-16.422-14.139-26.115-34.672-26.601-56.347zm-14.885 220.665 4.568-4.319c12.427-11.749 5.547-32.653-11.411-34.743-3.644-.45-6.172-3.897-5.443-7.539l5.388-26.928c1.7-8.496 8.272-15.167 16.741-16.994l15.656-3.376c-1.399 20.348 1.338 40.975 8.051 60.24.017.048.034.095.051.142l41.58 112.058-75.442-69.587c-2.381-2.526-2.299-6.531.261-8.954zm292.769 83.458c0 7.892-6.421 14.312-14.313 14.312h-45.302v-32.048c0-4.142-3.358-7.499-7.499-7.499s-7.499 3.357-7.499 7.499v32.048h-105.868l84.494-77.936c8.222-7.541 8.942-22.009-.284-30.732l-4.568-4.32c-3.196-3.021-1.458-8.417 2.943-8.959 12.308-1.518 20.747-13.207 18.313-25.368l-5.388-26.928c-.568-2.841-1.471-5.554-2.645-8.114 20.712 4.095 36.843 8.604 47.3 13.26 24.49 10.904 40.314 35.272 40.314 62.079v92.706z"/></g></g></svg>