<?xml version="1.0" encoding="iso-8859-1"?>
<!-- Generator: Adobe Illustrator 19.0.0, SVG Export Plug-In . SVG Version: 6.00 Build 0)  -->
<svg version="1.1" id="Capa_1" xmlns="http://www.w3.org/2000/svg" xmlns:xlink="http://www.w3.org/1999/xlink" x="0px" y="0px"
	 viewBox="0 0 511.999 511.999" style="enable-background:new 0 0 511.999 511.999;" xml:space="preserve">
<path style="fill:#FEDA9B;" d="M453.203,429.408c-101.084,101.084-248.531,87.92-322.864,13.587
	c-11.969-11.969-20.665-25.972-26.088-40.896c-15.763-43.381,18.154-88.767,64.281-87.113c0.405,0.015,0.811,0.026,1.217,0.036
	c48.738,1.125,90.412-36.229,94.637-84.796c0.038-0.434,0.072-0.867,0.104-1.3c4.049-55.313,52.053-91.9,106.261-80.184
	c30.216,6.53,58.968,21.537,82.453,45.024C518.274,258.836,518.274,364.337,453.203,429.408z"/>
<path style="fill:#FFB954;" d="M393.784,408.807c0.325-18.916-14.75-34.516-33.665-34.841
	c-18.918-0.325-34.517,14.746-34.843,33.663c-0.325,18.916,14.748,34.516,33.665,34.841
	C377.856,442.797,393.459,427.725,393.784,408.807z"/>
<path style="fill:#A0E557;" d="M427.161,344.801c-18.798,2.146-35.777-11.354-37.924-30.15
	c-2.145-18.797,11.354-35.775,30.153-37.922c18.796-2.146,35.777,11.354,37.924,30.15
	C459.459,325.676,445.957,342.656,427.161,344.801z"/>
<path style="fill:#72D8FF;" d="M388.789,227.534c-2.146-18.797-19.127-32.296-37.924-30.15
	c-18.799,2.146-32.298,19.124-30.153,37.922c2.146,18.797,19.125,32.297,37.924,30.15
	C377.432,263.311,390.934,246.332,388.789,227.534z"/>
<path style="fill:#FFFFFF;" d="M236.139,393.77c-0.001-21.292-17.265-38.555-38.557-38.555
	c-21.294,0.001-38.557,17.262-38.557,38.555c0.001,21.292,17.263,38.555,38.557,38.555
	C218.873,432.326,236.139,415.064,236.139,393.77z"/>
<path style="fill:#72D8FF;" d="M85.195,199.454L204.032,80.617c31.218-31.218,68.941-55.162,110.478-70.124l1.305-0.47l0,0
	c-14.869,42.762-39.223,81.604-71.236,113.618L126.981,241.238L85.195,199.454z"/>
<path style="fill:#FFB954;" d="M33.722,220.273c-31.613,31.613,5.598,66.693-23.723,96.014c49.115,5.399,76.052-3.761,96.015-23.723
	c19.962-19.962,19.962-52.329,0-72.292S53.686,200.31,33.722,220.273z"/>
<path d="M358.769,452.468c0.262,0.005,0.522,0.007,0.783,0.007c11.529,0,22.416-4.396,30.73-12.428
	c8.502-8.215,13.297-19.248,13.501-31.067c0.203-11.819-4.209-23.011-12.424-31.513c-8.215-8.502-19.249-13.296-31.067-13.498
	c-24.375-0.408-44.594,19.088-45.015,43.489c-0.203,11.819,4.209,23.011,12.424,31.513
	C335.916,447.472,346.95,452.266,358.769,452.468z M359.525,383.961c0.141,0,0.282,0.001,0.423,0.003
	c6.478,0.111,12.524,2.739,17.027,7.399s6.921,10.794,6.81,17.271c-0.111,6.477-2.74,12.524-7.4,17.026
	c-4.661,4.503-10.807,6.919-17.273,6.809c-6.478-0.11-12.525-2.738-17.028-7.398c-4.502-4.659-6.921-10.794-6.81-17.271
	C335.502,394.569,346.341,383.961,359.525,383.961z"/>
<path d="M457.917,338.308c7.358-9.254,10.672-20.817,9.332-32.563c-1.341-11.744-7.176-22.265-16.431-29.622
	c-9.253-7.357-20.818-10.675-32.563-9.329c-24.246,2.769-41.722,24.745-38.955,48.992c2.575,22.549,21.763,39.24,43.94,39.24
	c1.669,0,3.356-0.095,5.054-0.288l0,0C440.039,353.396,450.559,347.562,457.917,338.308z M442.263,325.86
	c-4.033,5.071-9.799,8.27-16.236,9.004l0,0c-13.297,1.521-25.336-8.061-26.854-21.349c-1.517-13.289,8.062-25.334,21.352-26.852
	c0.937-0.107,1.87-0.16,2.799-0.16c5.455,0,10.714,1.828,15.048,5.273c5.073,4.033,8.271,9.799,9.006,16.235
	C448.113,314.45,446.297,320.788,442.263,325.86z"/>
<path d="M382.294,196.778c-9.254-7.357-20.819-10.675-32.563-9.329c-24.246,2.769-41.722,24.745-38.955,48.992
	c2.575,22.549,21.763,39.24,43.94,39.24c1.669,0,3.356-0.095,5.054-0.288c11.744-1.34,22.265-7.174,29.623-16.428
	c7.358-9.254,10.672-20.818,9.332-32.563v-0.001C397.383,214.656,391.548,204.135,382.294,196.778z M373.738,246.516
	c-4.033,5.071-9.799,8.27-16.236,9.004c-13.283,1.521-25.336-8.06-26.854-21.349c-1.517-13.289,8.062-25.334,21.352-26.852
	c0.937-0.107,1.87-0.16,2.799-0.16c5.455,0,10.714,1.828,15.048,5.273c5.073,4.033,8.271,9.799,9.006,16.235
	C379.588,235.106,377.771,241.444,373.738,246.516z"/>
<path d="M197.581,345.216c-26.773,0.001-48.556,21.782-48.557,48.555c0,12.969,5.051,25.162,14.223,34.333
	s21.365,14.222,34.333,14.221c0.001,0,0.001,0,0.002,0c12.967,0,25.16-5.05,34.331-14.22c9.172-9.172,14.224-21.365,14.224-34.334
	C246.138,366.998,224.356,345.216,197.581,345.216z M217.774,413.961c-5.394,5.394-12.564,8.363-20.192,8.363
	c-7.627,0-14.798-2.97-20.191-8.363c-5.393-5.393-8.364-12.563-8.364-20.19c0-15.744,12.811-28.553,28.556-28.554
	c15.746,0,28.556,12.81,28.556,28.554C226.139,401.397,223.168,408.568,217.774,413.961z"/>
<path d="M446.118,422.351l-0.359,0.357c-3.913,3.898-3.925,10.229-0.027,14.143c1.954,1.961,4.519,2.942,7.084,2.942
	c2.553,0,5.106-0.972,7.058-2.915l0.413-0.412c3.898-3.913,3.886-10.244-0.027-14.142
	C456.347,418.426,450.016,418.439,446.118,422.351z"/>
<path d="M511.146,294.125c-3.998-40.471-22.065-78.624-50.872-107.431c-24.064-24.064-54.291-40.568-87.412-47.727
	c-28.868-6.238-57.166-0.399-79.676,16.447c-22.747,17.022-36.48,42.87-38.671,72.779c-0.028,0.389-0.06,0.778-0.093,1.165
	c-3.779,43.436-40.867,76.677-84.434,75.665c-0.367-0.009-0.731-0.02-1.099-0.032c-25.27-0.924-49.242,10.776-64.138,31.248
	c-14.646,20.128-18.347,46.025-9.899,69.273c6.111,16.817,15.671,31.807,28.416,44.553c35.067,35.066,86.364,57.407,140.737,61.293
	c5.79,0.413,11.575,0.618,17.358,0.618c52.349,0,103.995-16.831,147.071-48.218c4.464-3.252,5.446-9.507,2.193-13.971
	s-9.507-5.447-13.971-2.193c-96.892,70.597-218.07,49.506-279.247-11.672c-10.662-10.661-18.656-23.19-23.76-37.24
	c-6.266-17.242-3.614-35.712,7.273-50.676c10.978-15.087,28.653-23.681,47.247-23.029c0.446,0.017,0.892,0.029,1.348,0.04
	c0.799,0.019,1.596,0.028,2.391,0.028c53.053-0.001,97.818-40.834,102.439-93.957c0.042-0.479,0.08-0.956,0.115-1.434
	c1.76-24.048,12.666-44.728,30.707-58.229c17.804-13.323,40.343-17.909,63.468-12.911c29.356,6.345,56.153,20.979,77.494,42.32
	c52.046,52.046,60.719,134.515,20.622,196.093c-3.014,4.629-1.705,10.823,2.923,13.837c4.627,3.013,10.823,1.706,13.836-2.923
	C505.276,374.422,515.089,334.037,511.146,294.125z"/>
<path d="M114.83,179.819c2.64,0,5.21-1.07,7.07-2.94c1.87-1.85,2.93-4.43,2.93-7.06c0-2.64-1.06-5.22-2.93-7.08
	c-1.85-1.86-4.43-2.92-7.07-2.92c-2.63,0-5.21,1.06-7.07,2.92c-1.86,1.87-2.93,4.44-2.93,7.08c0,2.63,1.07,5.2,2.93,7.06
	C109.62,178.748,112.2,179.819,114.83,179.819z"/>
<path d="M130.987,256.418c0-1.982-0.098-3.949-0.283-5.898c1.219-0.488,2.361-1.224,3.348-2.21L251.65,130.712
	c32.882-32.883,58.336-73.481,73.609-117.405c1.266-3.641,0.327-7.686-2.415-10.396c-2.741-2.71-6.796-3.601-10.423-2.296
	l-1.301,0.47c-42.638,15.357-82.113,40.415-114.16,72.461l-63.697,63.696c-3.905,3.905-3.906,10.237,0,14.143
	c3.906,3.904,10.238,3.905,14.142,0l63.697-63.696c24.938-24.938,54.686-45.353,86.945-59.783
	c-14.474,32.935-35.138,63.261-60.542,88.663L124.696,229.38c-2.922-5.913-6.811-11.378-11.611-16.178
	c-11.543-11.543-26.892-17.901-43.217-17.901c-16.325,0-31.673,6.357-43.217,17.901c-19.469,19.469-17.27,40.773-15.502,57.891
	c1.735,16.805,2.267,27.637-8.221,38.125c-2.719,2.72-3.638,6.759-2.363,10.387c1.275,3.629,4.519,6.204,8.341,6.625
	c9.695,1.065,18.691,1.608,27.072,1.608c33.975,0,57.835-8.93,77.106-28.201C124.629,288.092,130.987,272.744,130.987,256.418z
	 M98.942,285.493c-12.051,12.052-29.974,23.729-70.946,22.14c5.681-13.07,4.305-26.41,3.047-38.596
	c-1.67-16.176-2.99-28.953,9.75-41.693l0,0c7.766-7.767,18.091-12.044,29.074-12.044c10.982,0,21.308,4.277,29.074,12.044
	c7.766,7.766,12.043,18.091,12.043,29.074C110.986,267.402,106.709,277.727,98.942,285.493z"/>
<g>
</g>
<g>
</g>
<g>
</g>
<g>
</g>
<g>
</g>
<g>
</g>
<g>
</g>
<g>
</g>
<g>
</g>
<g>
</g>
<g>
</g>
<g>
</g>
<g>
</g>
<g>
</g>
<g>
</g>
</svg>
