<?xml version="1.0" encoding="iso-8859-1"?>
<!-- Generator: Adobe Illustrator 19.0.0, SVG Export Plug-In . SVG Version: 6.00 Build 0)  -->
<svg version="1.1" id="Capa_1" xmlns="http://www.w3.org/2000/svg" xmlns:xlink="http://www.w3.org/1999/xlink" x="0px" y="0px"
	 viewBox="0 0 512 512" style="enable-background:new 0 0 512 512;" xml:space="preserve">
<circle style="fill:#4DBAF6;" cx="256" cy="256" r="246"/>
<circle style="fill:#ADE5FF;" cx="256" cy="256" r="205.94"/>
<path style="fill:#A0E557;" d="M153.871,190.47c-45.025,45.025-44.924,118.125,0.225,163.274s118.249,45.249,163.274,0.225
	c19.518-19.518,30.55-44.312,33.114-69.818l0.006,0.006L368.42,140l-144.01,17.228l0.047,0.048
	C198.681,159.694,173.585,170.756,153.871,190.47z"/>
<path d="M437.02,74.981C388.667,26.628,324.38,0,256,0S123.333,26.628,74.98,74.981C26.629,123.333,0,187.62,0,256
	s26.629,132.667,74.98,181.019C123.333,485.372,187.62,512,256,512s132.667-26.628,181.02-74.981
	C485.371,388.667,512,324.38,512,256S485.371,123.333,437.02,74.981z M256,492C125.869,492,20,386.131,20,256S125.869,20,256,20
	s236,105.869,236,236S386.131,492,256,492z"/>
<path d="M311.755,47.332c-5.334-1.422-10.814,1.75-12.238,7.087c-1.422,5.337,1.751,10.816,7.088,12.238
	C392.174,89.465,451.938,167.326,451.938,256c0,108.041-87.897,195.938-195.938,195.938S60.063,364.041,60.063,256
	c0-89.187,60.194-167.161,146.382-189.619c5.345-1.393,8.548-6.854,7.155-12.198c-1.392-5.345-6.858-8.548-12.198-7.155
	C106.407,71.78,40.063,157.713,40.063,256c0,57.679,22.461,111.906,63.246,152.691S198.321,471.938,256,471.938
	s111.906-22.461,152.691-63.247S471.938,313.679,471.938,256C471.938,158.278,406.068,72.47,311.755,47.332z"/>
<path d="M255.562,60.063c0.012,0,0.023,0,0.034,0H256c5.522,0,10-4.477,10-10s-4.478-10-10-10h-0.471
	c-5.523,0.019-9.985,4.511-9.967,10.034C245.581,55.608,250.055,60.063,255.562,60.063z"/>
<path d="M110.168,272.075c0.046,33.504,13.136,65.02,36.856,88.741c0.923,0.923,1.862,1.825,2.809,2.716
	c-2.975,10.227-4.522,20.934-4.522,31.881c0,5.523,4.478,10,10,10s10-4.477,10-10c0-6.198,0.6-12.304,1.771-18.252
	c20.247,13.311,43.92,20.478,68.684,20.512c0.059,0,0.118,0,0.177,0c33.448,0,64.871-13.005,88.498-36.632
	c20.252-20.252,33.014-47.067,35.958-75.54c0.005-0.037,0.01-0.073,0.015-0.109l17.931-144.157c0.379-3.052-0.667-6.109-2.836-8.289
	c-2.17-2.18-5.23-3.239-8.275-2.875l-144.01,17.228c-0.269,0.032-0.533,0.075-0.795,0.128
	c-28.515,2.931-55.335,15.679-75.628,35.972C123.131,207.067,110.122,238.56,110.168,272.075z M225.392,167.231
	c0.427-0.04,0.847-0.107,1.257-0.2l130.271-15.584l-16.312,131.137c-0.029,0.187-0.054,0.375-0.073,0.566
	c-2.415,24.026-13.153,46.666-30.236,63.748c-19.85,19.85-46.248,30.775-74.356,30.774c-0.048,0-0.101,0-0.148,0
	c-22.735-0.031-44.38-7.211-62.375-20.464c4.601-10.276,11.087-19.731,19.287-27.931l3.083-3.083h81.234c5.522,0,10-4.477,10-10
	s-4.478-10-10-10H215.79l32.503-32.503h54.722c5.522,0,10-4.477,10-10s-4.478-10-10-10h-34.722l57.246-57.245
	c3.905-3.905,3.905-10.237,0-14.143c-3.905-3.904-10.237-3.905-14.143,0l-57.246,57.246v-34.723c0-5.523-4.478-10-10-10
	s-10,4.477-10,10v54.723l-32.503,32.503v-36.521c0-5.523-4.478-10-10-10s-10,4.477-10,10v56.521l-3.083,3.083
	c-8.403,8.403-15.318,17.895-20.631,28.152c-17.899-19.516-27.726-44.632-27.763-71.24c-0.039-28.163,10.891-54.623,30.774-74.506
	C178.208,180.275,201.097,169.511,225.392,167.231z"/>
<path d="M191.649,228c2.631,0,5.2-1.07,7.07-2.93c1.86-1.86,2.93-4.44,2.93-7.07s-1.069-5.21-2.93-7.07
	c-1.87-1.86-4.439-2.93-7.07-2.93c-2.64,0-5.21,1.07-7.08,2.93c-1.859,1.86-2.92,4.44-2.92,7.07s1.061,5.21,2.92,7.07
	C186.439,226.93,189.01,228,191.649,228z"/>
<g>
</g>
<g>
</g>
<g>
</g>
<g>
</g>
<g>
</g>
<g>
</g>
<g>
</g>
<g>
</g>
<g>
</g>
<g>
</g>
<g>
</g>
<g>
</g>
<g>
</g>
<g>
</g>
<g>
</g>
</svg>
