<svg id="Capa_1" enable-background="new 0 0 512 512" height="512" viewBox="0 0 512 512" width="512" xmlns="http://www.w3.org/2000/svg"><g><g><g><path d="m93.968 42.31h135.263v427.381h-135.263z" fill="#838eb1" transform="matrix(.975 .223 -.223 .975 61.072 -29.56)"/></g><g><path d="m249.916 173.101h79.88v306.286h-79.88z" fill="#ffc135"/></g><g><path d="m329.796 118.783h126.743v360.604h-126.743z" fill="#a0e4a5"/></g><g><path d="m249.916 240.11h79.88v172.54h-79.88z" fill="#f9f5f3"/></g><g><ellipse cx="187.914" cy="140.812" fill="#f9f5f3" rx="29.674" ry="29.674" transform="matrix(.946 -.323 .323 .946 -35.42 68.274)"/></g><g><path d="m60.452 381.292h135.263v42.845h-135.263z" fill="#f9f5f3" transform="matrix(.975 .223 -.223 .975 92.905 -18.411)"/></g><g><path d="m329.796 173.101h126.743v55.64h-126.743z" fill="#f9f5f3"/></g><g><path d="m329.796 366.947h126.743v55.64h-126.743z" fill="#f9f5f3"/></g></g><path d="m125.279 236.845c-1.229 5.384 2.138 10.746 7.521 11.976l57.857 13.218c5.313 1.211 10.763-2.208 11.977-7.522 1.229-5.384-2.138-10.746-7.521-11.976l-57.857-13.218c-5.387-1.226-10.747 2.138-11.977 7.522z"/><path d="m114.215 285.279c-1.229 5.384 2.138 10.746 7.521 11.976l57.857 13.217c5.314 1.211 10.763-2.208 11.977-7.522 1.229-5.384-2.138-10.746-7.521-11.976l-57.857-13.217c-5.389-1.228-10.747 2.138-11.977 7.522z"/><path d="m221.512 119.71c-5.637-8.974-14.431-15.216-24.762-17.577-21.1-4.817-42.7 8.772-47.514 29.842-4.82 21.099 8.774 42.701 29.842 47.514 21.168 4.833 42.619-8.796 47.514-29.842 2.36-10.331.555-20.963-5.08-29.937zm-14.418 25.483c-2.432 10.431-13.059 17.198-23.562 14.799-10.442-2.386-17.189-13.097-14.798-23.562 2.378-10.411 13.164-17.173 23.562-14.798 10.441 2.385 17.19 13.096 14.798 23.561z"/><path d="m369.331 309.085h49.272c5.522 0 10-4.477 10-10s-4.478-10-10-10h-49.272c-5.522 0-10 4.477-10 10s4.478 10 10 10z"/><path d="m10 489.386h492c5.522 0 10-4.477 10-10s-4.478-10-10-10h-35.461v-350.603c0-5.523-4.478-10-10-10h-126.743c-5.522 0-10 4.477-10 10v44.318h-57.343l22.419-98.135c.591-2.585.13-5.3-1.281-7.546-1.41-2.246-3.655-3.839-6.24-4.43l-131.867-30.124c-5.381-1.227-10.746 2.138-11.976 7.522l-30.188 132.143c-1.229 5.384 2.138 10.746 7.521 11.976 5.39 1.229 10.747-2.137 11.977-7.522l27.961-122.394 112.368 25.67-71.882 314.655-112.368-25.67 24.329-106.496c1.229-5.384-2.138-10.746-7.521-11.976-5.388-1.228-10.747 2.138-11.977 7.522l-45.402 198.74c-.591 2.585-.13 5.3 1.281 7.546 1.41 2.246 3.655 3.839 6.24 4.43l45.416 10.375h-81.263c-5.522 0-10 4.477-10 10s4.478 9.999 10 9.999zm329.796-112.439h106.743v35.64h-106.743zm106.743-20h-106.743v-116.837-1.369h106.743zm0-138.206h-106.743v-35.64h106.743zm-126.743 183.91h-59.88v-152.541h59.88zm-59.88 20h59.88v46.736h-59.88zm79.88 46.735v-36.8h106.743v36.8zm106.743-340.603v34.318h-106.743v-34.318zm-126.743 99.958v1.369h-59.88v-47.009h59.88zm-132.985 175.673-5.088 22.271-112.369-25.67 5.088-22.271zm-121.911 16.099 112.369 25.67-4.849 21.227-112.369-25.67zm175.016-158.757v207.63h-47.432z"/><path d="m96.439 199.531c-3.845 3.845-3.846 10.295 0 14.14 3.846 3.846 10.295 3.845 14.141 0 3.856-3.855 3.852-10.285 0-14.14-3.854-3.858-10.286-3.855-14.141 0z"/></g></svg>