<?xml version="1.0" encoding="iso-8859-1"?>
<!-- Generator: Adobe Illustrator 19.0.0, SVG Export Plug-In . SVG Version: 6.00 Build 0)  -->
<svg version="1.1" id="Capa_1" xmlns="http://www.w3.org/2000/svg" xmlns:xlink="http://www.w3.org/1999/xlink" x="0px" y="0px"
	 viewBox="0 0 512.001 512.001" style="enable-background:new 0 0 512.001 512.001;" xml:space="preserve">
<g>
	<path style="fill:#898998;" d="M131.168,502L131.168,502c-15.464,0-28-12.536-28-28v-41h56v41
		C159.168,489.464,146.632,502,131.168,502z"/>
	<path style="fill:#898998;" d="M381.086,502L381.086,502c-15.464,0-28-12.536-28-28v-41h56v41
		C409.086,489.464,396.55,502,381.086,502z"/>
	<path style="fill:#898998;" d="M482,182.291L482,182.291c-11.046,0-20-8.954-20-20v-37.369c0-11.046,8.954-20,20-20l0,0
		c11.046,0,20,8.954,20,20v37.369C502,173.337,493.046,182.291,482,182.291z"/>
	<path style="fill:#898998;" d="M30,182.291L30,182.291c11.046,0,20-8.954,20-20v-37.369c0-11.046-8.954-20-20-20l0,0
		c-11.046,0-20,8.954-20,20v37.369C10,173.337,18.954,182.291,30,182.291z"/>
</g>
<path style="fill:#FF5D5D;" d="M397.96,10H114.131c-22.091,0-40,17.909-40,40v343c0,22.091,17.909,40,40,40H397.96
	c22.091,0,40-17.909,40-40V50C437.96,27.909,420.051,10,397.96,10z"/>
<polygon style="fill:#C9F3FF;" points="438,264.33 395.571,306.759 116.429,306.759 74,264.33 74,90 437.96,90 "/>
<g>
	<circle style="fill:#FFFFFF;" cx="140.04" cy="369.88" r="20"/>
	<circle style="fill:#FFFFFF;" cx="371.96" cy="369.88" r="20"/>
</g>
<rect x="204.08" y="349.88" style="fill:#FFC66C;" width="104" height="40"/>
<rect x="190" y="50" style="fill:#FFFFFF;" width="132" height="40"/>
<path d="M257.58,20c2.63,0,5.2-1.07,7.07-2.931c1.86-1.859,2.93-4.439,2.93-7.069s-1.07-5.21-2.93-7.07S260.21,0,257.58,0
	s-5.21,1.069-7.07,2.93s-2.93,4.44-2.93,7.07s1.07,5.21,2.93,7.069C252.37,18.93,254.95,20,257.58,20z"/>
<path d="M492,96.642v-28.15c0-15.168-12.34-27.508-27.508-27.508H447.13C442.871,17.705,422.451,0,397.96,0h-97.626
	c-5.523,0-10,4.478-10,10s4.477,10,10,10h97.626c16.542,0,30,13.458,30,30v30H332V50c0-5.522-4.477-10-10-10H190
	c-5.523,0-10,4.478-10,10v30H84.131V50c0-16.542,13.458-30,30-30H214.5c5.523,0,10-4.478,10-10s-4.477-10-10-10H114.131
	c-24.49,0-44.911,17.705-49.17,40.984H47.508C32.34,40.984,20,53.324,20,68.492v28.15c-11.639,4.128-20,15.243-20,28.28v37.369
	c0,16.542,13.458,30,30,30s30-13.458,30-30v-37.369c0-13.036-8.361-24.152-20-28.28v-28.15c0-4.14,3.368-7.508,7.508-7.508h16.624
	V393c0,20.086,11.912,37.433,29.037,45.376V474c0,20.953,17.047,38,38,38s38-17.047,38-38v-31h173.918v31c0,20.953,17.047,38,38,38
	s38-17.047,38-38v-35.697c17.038-7.978,28.874-25.28,28.874-45.303V60.984h16.532c4.14,0,7.508,3.368,7.508,7.508v28.15
	c-11.639,4.128-20,15.243-20,28.28v37.369c0,16.542,13.458,30,30,30s30-13.458,30-30v-37.369C512,111.885,503.639,100.77,492,96.642
	z M40,162.291c0,5.514-4.486,10-10,10s-10-4.486-10-10v-37.369c0-5.514,4.486-10,10-10s10,4.486,10,10V162.291z M203.282,234.6
	c-3.905-3.903-10.236-3.904-14.143,0l-62.159,62.159h-6.409l-30.927-30.927l156.36-156.36v187.287h-90.739l48.017-48.017
	C207.187,244.837,207.188,238.505,203.282,234.6z M326.644,100l-31.151,31.151c-3.905,3.905-3.905,10.237,0,14.143
	c1.953,1.952,4.512,2.929,7.071,2.929s5.119-0.977,7.071-2.929L354.929,100h58.84L266.004,247.764V100H326.644z M266.004,276.049
	L427.96,114.094v146.134l-36.531,36.531H266.004V276.049z M200,60h112v20H200V60z M227.191,100L84.131,243.06V100H227.191z
	 M149.168,474c0,9.925-8.075,18-18,18s-18-8.075-18-18v-31h0.963h35.037V474z M399.086,443v31c0,9.925-8.075,18-18,18
	s-18-8.075-18-18v-31h34.874H399.086z M397.96,423H114.131c-16.542,0-30-13.458-30-30V288.604l25.227,25.227
	c1.875,1.875,4.419,2.929,7.071,2.929h279.142c2.652,0,5.196-1.054,7.071-2.929l25.318-25.318V393
	C427.96,409.542,414.502,423,397.96,423z M492,162.291c0,5.514-4.486,10-10,10s-10-4.486-10-10v-37.369c0-5.514,4.486-10,10-10
	s10,4.486,10,10V162.291z"/>
<path d="M140.044,339.88c-16.542,0-30,13.458-30,30s13.458,30,30,30s30-13.458,30-30S156.586,339.88,140.044,339.88z
	 M140.044,379.88c-5.514,0-10-4.486-10-10s4.486-10,10-10s10,4.486,10,10S145.558,379.88,140.044,379.88z"/>
<path d="M371.956,339.88c-16.542,0-30,13.458-30,30s13.458,30,30,30s30-13.458,30-30S388.498,339.88,371.956,339.88z
	 M371.956,379.88c-5.514,0-10-4.486-10-10s4.486-10,10-10s10,4.486,10,10S377.47,379.88,371.956,379.88z"/>
<path d="M308.083,339.88h-104c-5.523,0-10,4.478-10,10v40c0,5.522,4.477,10,10,10h104c5.523,0,10-4.478,10-10v-40
	C318.083,344.357,313.606,339.88,308.083,339.88z M298.083,379.88h-84v-20h84V379.88z"/>
<g>
</g>
<g>
</g>
<g>
</g>
<g>
</g>
<g>
</g>
<g>
</g>
<g>
</g>
<g>
</g>
<g>
</g>
<g>
</g>
<g>
</g>
<g>
</g>
<g>
</g>
<g>
</g>
<g>
</g>
</svg>
