<svg id="Layer_1" enable-background="new 0 0 512 512" height="512" viewBox="0 0 512 512" width="512" xmlns="http://www.w3.org/2000/svg"><g><g><g><g><path d="m359.935 415.639h-325.064c-9.806 0-17.755-7.949-17.755-17.755v-341.239c0-9.806 7.949-17.755 17.755-17.755h325.065c9.806 0 17.755 7.949 17.755 17.755v341.238c0 9.806-7.95 17.756-17.756 17.756z" fill="#f5f5ff"/><path d="m359.935 38.89h-30c9.806 0 17.755 7.949 17.755 17.755v341.238c0 9.806-7.949 17.755-17.755 17.755h30c9.806 0 17.755-7.949 17.755-17.755v-341.238c.001-9.806-7.949-17.755-17.755-17.755z" fill="#ededff"/><path d="m377.691 117.648h-360.576v-61.002c0-9.806 7.949-17.756 17.755-17.756h325.066c9.806 0 17.755 7.95 17.755 17.756z" fill="#ff75bc"/><path d="m359.936 38.89h-30c9.806 0 17.755 7.95 17.755 17.756v61.002h30v-61.002c0-9.807-7.949-17.756-17.755-17.756z" fill="#ff61b1"/></g><g><g><g fill="#b5c6ff"><path d="m78.506 69.05c-7.823 0-14.166-6.342-14.166-14.166v-33.218c0-7.823 6.342-14.166 14.166-14.166 7.823 0 14.166 6.342 14.166 14.166v33.219c0 7.823-6.343 14.165-14.166 14.165z"/><path d="m137.929 69.05c-7.823 0-14.166-6.342-14.166-14.166v-33.218c0-7.823 6.342-14.166 14.166-14.166 7.823 0 14.166 6.342 14.166 14.166v33.219c0 7.823-6.342 14.165-14.166 14.165z"/></g></g><g><g fill="#b5c6ff"><path d="m256.877 69.05c-7.824 0-14.166-6.342-14.166-14.166v-33.218c0-7.823 6.342-14.166 14.166-14.166 7.823 0 14.166 6.342 14.166 14.166v33.219c-.001 7.823-6.343 14.165-14.166 14.165z"/><path d="m316.3 69.05c-7.823 0-14.166-6.342-14.166-14.166v-33.218c0-7.823 6.342-14.166 14.166-14.166 7.823 0 14.166 6.342 14.166 14.166v33.219c0 7.823-6.343 14.165-14.166 14.165z"/></g></g></g><g fill="#b5c6ff"><path d="m52.864 153.153h34.786v34.788h-34.786z"/><path d="m116.437 153.153h34.786v34.788h-34.786z"/><path d="m180.01 153.153h34.786v34.788h-34.786z"/><path d="m243.583 153.153h34.786v34.788h-34.786z"/><path d="m307.156 153.153h34.786v34.788h-34.786z"/></g><g fill="#b5c6ff"><path d="m52.864 216.782h34.786v34.788h-34.786z"/><path d="m116.437 216.782h34.786v34.788h-34.786z"/><path d="m180.01 216.782h34.786v34.788h-34.786z"/><path d="m243.583 216.782h34.786v34.788h-34.786z"/><path d="m307.156 216.782h34.786v34.788h-34.786z"/></g><g><path d="m52.864 280.411h34.786v34.788h-34.786z" fill="#b5c6ff"/><path d="m116.437 280.411h34.786v34.788h-34.786z" fill="#ff4da8"/><g fill="#b5c6ff"><path d="m180.01 280.411h34.786v34.788h-34.786z"/><path d="m243.583 280.411h34.786v34.788h-34.786z"/></g></g><g fill="#b5c6ff"><path d="m52.864 344.039h34.786v34.788h-34.786z"/><path d="m116.437 344.039h34.786v34.788h-34.786z"/><path d="m180.01 344.039h34.786v34.788h-34.786z"/><path d="m243.583 344.039h34.786v34.788h-34.786z"/></g></g><g><g><path d="m484.885 504.5h-203.986c-5.523 0-10-4.477-10-10v-203.998c0-5.523 4.477-10 10-10h203.986c5.523 0 10 4.477 10 10v203.998c0 5.523-4.477 10-10 10z" fill="#fdf35b"/><path d="m484.885 280.502h-30c5.523 0 10 4.477 10 10v203.998c0 5.523-4.477 10-10 10h30c5.523 0 10-4.477 10-10v-203.998c0-5.523-4.477-10-10-10z" fill="#faed16"/><path d="m355.158 280.502h55.468v93.245h-55.468z" fill="#d3895e"/><path d="m380.626 280.502h30v93.245h-30z" fill="#c97d51"/></g><g><path d="m400.554 427.331h54.605v34.717h-54.605z" fill="#fff"/></g></g></g><g fill="#060606"><path d="m52.864 195.441h34.786c4.142 0 7.5-3.358 7.5-7.5v-34.788c0-4.142-3.358-7.5-7.5-7.5h-34.786c-4.142 0-7.5 3.358-7.5 7.5v34.788c0 4.142 3.358 7.5 7.5 7.5zm7.5-34.788h19.786v19.788h-19.786z"/><path d="m116.437 195.441h34.786c4.142 0 7.5-3.358 7.5-7.5v-34.788c0-4.142-3.358-7.5-7.5-7.5h-34.786c-4.142 0-7.5 3.358-7.5 7.5v34.788c0 4.142 3.358 7.5 7.5 7.5zm7.5-34.788h19.786v19.788h-19.786z"/><path d="m180.01 195.441h34.786c4.142 0 7.5-3.358 7.5-7.5v-34.788c0-4.142-3.358-7.5-7.5-7.5h-34.786c-4.142 0-7.5 3.358-7.5 7.5v34.788c0 4.142 3.358 7.5 7.5 7.5zm7.5-34.788h19.786v19.788h-19.786z"/><path d="m243.583 195.441h34.786c4.142 0 7.5-3.358 7.5-7.5v-34.788c0-4.142-3.358-7.5-7.5-7.5h-34.786c-4.142 0-7.5 3.358-7.5 7.5v34.788c0 4.142 3.358 7.5 7.5 7.5zm7.5-34.788h19.786v19.788h-19.786z"/><path d="m307.156 195.441h34.786c4.142 0 7.5-3.358 7.5-7.5v-34.788c0-4.142-3.358-7.5-7.5-7.5h-34.786c-4.142 0-7.5 3.358-7.5 7.5v34.788c0 4.142 3.358 7.5 7.5 7.5zm7.5-34.788h19.786v19.788h-19.786z"/><path d="m45.364 251.57c0 4.142 3.358 7.5 7.5 7.5h34.786c4.142 0 7.5-3.358 7.5-7.5v-34.788c0-4.142-3.358-7.5-7.5-7.5h-34.786c-4.142 0-7.5 3.358-7.5 7.5zm15-27.288h19.786v19.788h-19.786z"/><path d="m108.937 251.57c0 4.142 3.358 7.5 7.5 7.5h34.786c4.142 0 7.5-3.358 7.5-7.5v-34.788c0-4.142-3.358-7.5-7.5-7.5h-34.786c-4.142 0-7.5 3.358-7.5 7.5zm15-27.288h19.786v19.788h-19.786z"/><path d="m172.51 251.57c0 4.142 3.358 7.5 7.5 7.5h34.786c4.142 0 7.5-3.358 7.5-7.5v-34.788c0-4.142-3.358-7.5-7.5-7.5h-34.786c-4.142 0-7.5 3.358-7.5 7.5zm15-27.288h19.786v19.788h-19.786z"/><path d="m236.083 251.57c0 4.142 3.358 7.5 7.5 7.5h34.786c4.142 0 7.5-3.358 7.5-7.5v-34.788c0-4.142-3.358-7.5-7.5-7.5h-34.786c-4.142 0-7.5 3.358-7.5 7.5zm15-27.288h19.786v19.788h-19.786z"/><path d="m299.656 251.57c0 4.142 3.358 7.5 7.5 7.5h34.786c4.142 0 7.5-3.358 7.5-7.5v-34.788c0-4.142-3.358-7.5-7.5-7.5h-34.786c-4.142 0-7.5 3.358-7.5 7.5zm15-27.288h19.786v19.788h-19.786z"/><path d="m45.364 315.198c0 4.142 3.358 7.5 7.5 7.5h34.786c4.142 0 7.5-3.358 7.5-7.5v-34.788c0-4.142-3.358-7.5-7.5-7.5h-34.786c-4.142 0-7.5 3.358-7.5 7.5zm15-27.287h19.786v19.788h-19.786z"/><path d="m108.937 315.198c0 4.142 3.358 7.5 7.5 7.5h34.786c4.142 0 7.5-3.358 7.5-7.5v-34.788c0-4.142-3.358-7.5-7.5-7.5h-34.786c-4.142 0-7.5 3.358-7.5 7.5zm15-27.287h19.786v19.788h-19.786z"/><path d="m172.51 315.198c0 4.142 3.358 7.5 7.5 7.5h34.786c4.142 0 7.5-3.358 7.5-7.5v-34.788c0-4.142-3.358-7.5-7.5-7.5h-34.786c-4.142 0-7.5 3.358-7.5 7.5zm15-27.287h19.786v19.788h-19.786z"/><path d="m45.364 378.827c0 4.142 3.358 7.5 7.5 7.5h34.786c4.142 0 7.5-3.358 7.5-7.5v-34.788c0-4.142-3.358-7.5-7.5-7.5h-34.786c-4.142 0-7.5 3.358-7.5 7.5zm15-27.288h19.786v19.788h-19.786z"/><path d="m108.937 378.827c0 4.142 3.358 7.5 7.5 7.5h34.786c4.142 0 7.5-3.358 7.5-7.5v-34.788c0-4.142-3.358-7.5-7.5-7.5h-34.786c-4.142 0-7.5 3.358-7.5 7.5zm15-27.288h19.786v19.788h-19.786z"/><path d="m172.51 378.827c0 4.142 3.358 7.5 7.5 7.5h34.786c4.142 0 7.5-3.358 7.5-7.5v-34.788c0-4.142-3.358-7.5-7.5-7.5h-34.786c-4.142 0-7.5 3.358-7.5 7.5zm15-27.288h19.786v19.788h-19.786z"/><path d="m484.885 273.002h-99.694v-216.356c-.56-13.672-11.27-25.256-25.255-25.256h-21.97v-9.724c-.001-11.947-9.72-21.666-21.666-21.666s-21.666 9.719-21.666 21.666v9.724h-16.092v-9.724c0-11.947-9.719-21.666-21.666-21.666s-21.666 9.719-21.666 21.666v9.724h-75.616v-9.724c.001-11.947-9.718-21.666-21.665-21.666-11.946 0-21.666 9.719-21.666 21.666v9.724h-16.092v-9.724c0-11.947-9.719-21.666-21.665-21.666s-21.666 9.719-21.666 21.666v9.724h-21.97c-13.765 0-25.218 11.505-25.255 25.256v128.354c0 9.385 15 9.813 15 0v-59.852h345.576v147.854l-126.608-.091c-4.142 0-7.5 3.358-7.5 7.5v34.788c0 4.142 3.358 7.5 7.5 7.5h19.816v13.841h-19.816c-4.142 0-7.5 3.358-7.5 7.5v34.788c0 4.142 3.358 7.5 7.5 7.5h19.816v21.812h-228.528c-5.655 0-10.255-4.601-10.255-10.255v-174.885c0-9.385-15-9.813-15 0v174.883c0 13.926 11.33 25.255 25.255 25.255h228.528v71.362c0 9.649 7.851 17.5 17.5 17.5h203.986c9.649 0 17.5-7.851 17.5-17.5v-203.998c0-9.649-7.851-17.5-17.5-17.5zm-175.251-251.336c0-3.675 2.99-6.666 6.666-6.666s6.666 2.99 6.666 6.666v33.219c0 3.675-2.99 6.666-6.666 6.666s-6.666-2.99-6.666-6.666zm-59.423 0c0-3.675 2.99-6.666 6.666-6.666s6.666 2.99 6.666 6.666v33.219c0 3.675-2.99 6.666-6.666 6.666s-6.666-2.99-6.666-6.666zm-118.947 0c0-3.675 2.99-6.666 6.666-6.666s6.666 2.99 6.666 6.666v33.219c0 3.675-2.99 6.666-6.666 6.666-3.675 0-6.666-2.99-6.666-6.666zm-59.424 0c0-3.675 2.99-6.666 6.666-6.666s6.666 2.99 6.666 6.666v33.219c0 3.675-2.99 6.666-6.666 6.666s-6.666-2.99-6.666-6.666zm-47.225 88.482v-53.502c0-5.31 4.886-10.256 10.255-10.256h21.97v8.495c0 11.946 9.719 21.666 21.666 21.666s21.666-9.719 21.666-21.666v-8.495h16.092v8.495c0 11.946 9.719 21.666 21.666 21.666s21.666-9.719 21.666-21.666v-8.495h75.616v8.495c0 11.946 9.719 21.666 21.666 21.666s21.666-9.719 21.666-21.666v-8.495h16.092v8.495c0 11.946 9.719 21.666 21.666 21.666s21.666-9.719 21.666-21.666v-8.495h21.97c5.365 0 10.255 4.873 10.255 10.256v53.502zm226.468 197.55v-19.788h12.53c-.127.848-.214 1.709-.214 2.591v17.196h-12.316zm0 63.629v-19.788h12.316v19.788zm236.302 123.173c0 1.378-1.122 2.5-2.5 2.5h-203.986c-1.378 0-2.5-1.122-2.5-2.5v-203.998c0-1.378 1.122-2.5 2.5-2.5h66.759v85.744c0 4.142 3.358 7.5 7.5 7.5h55.468c4.142 0 7.5-3.358 7.5-7.5v-26.639c0-9.385-15-9.813-15 0v19.139h-40.468v-78.244h40.468v22.955c0 9.385 15 9.813 15 0v-22.955h66.759c1.378 0 2.5 1.122 2.5 2.5z"/><path d="m354.906 421.34h-44.28c-9.385 0-9.813 15 0 15h44.28c9.385 0 9.813-15 0-15z"/><path d="m334.906 453.038h-24.28c-9.385 0-9.813 15 0 15h24.28c9.385 0 9.813-15 0-15z"/><path d="m455.158 419.831h-54.604c-4.142 0-7.5 3.358-7.5 7.5v34.716c0 4.142 3.358 7.5 7.5 7.5h54.604c4.142 0 7.5-3.358 7.5-7.5v-34.716c0-4.142-3.358-7.5-7.5-7.5zm-7.5 34.716h-39.604v-19.716h39.604z"/></g></g></svg>