<svg id="Layer_5" enable-background="new 0 0 64 64" height="512" viewBox="0 0 64 64" width="512" xmlns="http://www.w3.org/2000/svg"><g><g><g><path d="m58 2h-44c-2.21 0-4 1.79-4 4v34h48c2.21 0 4-1.79 4-4v-30c0-2.21-1.79-4-4-4z" fill="#f0d0b4"/></g><g><path d="m54 6h-36c0 2.21-1.79 4-4 4v10 14.14c.65-.09 1.32-.14 2-.14 2.63 0 5.1.73 7.21 2h30.79c0-2.21 1.79-4 4-4v-12-10c-2.21 0-4-1.79-4-4z" fill="#e6e9ed"/></g><g><path d="m20 10h32v6h-32z" fill="#b4dd7f"/></g><g><circle cx="36" cy="28" fill="#ff826e" r="4"/></g><g><path d="m10 35.35c1.25-.59 2.59-1.01 4-1.21.65-.09 1.32-.14 2-.14 2.63 0 5.1.73 7.21 2 1.69 1.02 3.15 2.38 4.27 4 1.59 2.27 2.52 5.03 2.52 8 0 7.73-6.27 14-14 14s-14-6.27-14-14c0-5.58 3.27-10.4 8-12.65z" fill="#ffc729"/></g><g><path d="m26 48c0 2.4-.85 4.61-2.26 6.34l-1.4 1.4c-1.73 1.41-3.94 2.26-6.34 2.26-5.52 0-10-4.48-10-10 0-2.4.85-4.61 2.26-6.34l1.4-1.4c1.73-1.41 3.94-2.26 6.34-2.26 5.52 0 10 4.48 10 10z" fill="#fcd770"/></g></g><g><path d="m15 51c-.551 0-1-.448-1-1h-2c0 1.654 1.346 3 3 3v2h2v-2h3v-3c0-1.654-1.346-3-3-3h-2c-.551 0-1-.448-1-1v-1h3c.551 0 1 .448 1 1h2c0-1.654-1.346-3-3-3v-2h-2v2h-3v3c0 1.654 1.346 3 3 3h2c.551 0 1 .448 1 1v1z"/><path d="m16 57c-4.962 0-9-4.037-9-9 0-2.074.724-4.099 2.038-5.702l-1.547-1.268c-1.606 1.96-2.491 4.435-2.491 6.97 0 6.065 4.935 11 11 11 2.536 0 5.011-.885 6.97-2.491l-1.269-1.547c-1.602 1.314-3.627 2.038-5.701 2.038z"/><path d="m16 37c-2.536 0-5.011.885-6.97 2.491l1.269 1.547c1.602-1.314 3.627-2.038 5.701-2.038 4.962 0 9 4.037 9 9 0 2.074-.724 4.099-2.038 5.702l1.547 1.268c1.606-1.96 2.491-4.435 2.491-6.97 0-6.065-4.935-11-11-11z"/><path d="m58 1h-44c-2.757 0-5 2.243-5 5v28.744c-4.752 2.519-8 7.513-8 13.256 0 8.271 6.729 15 15 15s15-6.729 15-15c0-2.528-.635-4.908-1.744-7h28.744c2.757 0 5-2.243 5-5v-30c0-2.757-2.243-5-5-5zm-42 60c-7.168 0-13-5.832-13-13s5.832-13 13-13 13 5.832 13 13-5.832 13-13 13zm0-28c-.338 0-.668.029-1 .051v-22.152c1.956-.398 3.501-1.943 3.899-3.899h34.201c.398 1.956 1.943 3.501 3.899 3.899v20.201c-1.956.398-3.501 1.943-3.899 3.899h-29.649c-2.198-1.264-4.738-1.999-7.451-1.999zm45 3c0 1.654-1.346 3-3 3h-30.028c-.543-.72-1.147-1.389-1.808-2h28.836v-1c0-1.654 1.346-3 3-3h1v-24h-1c-1.654 0-3-1.346-3-3v-1h-38v1c0 1.654-1.346 3-3 3h-1v24.302c-.687.14-1.35.342-2 .573v-27.875c0-1.654 1.346-3 3-3h44c1.654 0 3 1.346 3 3z"/><path d="m53 9h-34v8h34zm-2 6h-30v-4h30z"/><path d="m36 23c-2.757 0-5 2.243-5 5s2.243 5 5 5 5-2.243 5-5-2.243-5-5-5zm0 8c-1.654 0-3-1.346-3-3s1.346-3 3-3 3 1.346 3 3-1.346 3-3 3z"/><path d="m17 19h2v2h-2z"/><path d="m21 19h34v2h-34z"/><path d="m43 23h12v2h-12z"/><path d="m43 27h12v2h-12z"/><path d="m17 23h12v2h-12z"/><path d="m17 27h12v2h-12z"/></g></g></svg>