<svg id="shape-chat" enable-background="new 0 0 300 300" height="512" viewBox="0 0 300 300" width="512" xmlns="http://www.w3.org/2000/svg"><g><circle cx="118" cy="170" fill="#ffc7c7" r="86"/><g fill="#4c241d"><path d="m49.656 197.656c-1.023 0-2.047-.391-2.828-1.172l-11.312-11.312c-1.562-1.562-1.562-4.094 0-5.656s4.094-1.562 5.656 0l11.312 11.312c1.562 1.562 1.562 4.094 0 5.656-.781.782-1.804 1.172-2.828 1.172z"/><path d="m38.344 197.656c-1.023 0-2.047-.391-2.828-1.172-1.562-1.562-1.562-4.094 0-5.656l11.312-11.312c1.562-1.562 4.094-1.562 5.656 0s1.562 4.094 0 5.656l-11.312 11.312c-.781.782-1.805 1.172-2.828 1.172z"/><circle cx="220" cy="52" r="4"/><path d="m248 244c-6.617 0-12-5.383-12-12s5.383-12 12-12 12 5.383 12 12-5.383 12-12 12zm0-16c-2.205 0-4 1.793-4 4s1.795 4 4 4 4-1.793 4-4-1.795-4-4-4z"/></g><g><path d="m190.812 152h-89.625c-9.492 0-17.187 7.695-17.187 17.188v57.625c0 9.492 7.695 17.187 17.188 17.187h10.812v20l14.286-20h64.527c9.492 0 17.188-7.695 17.188-17.188v-57.625c-.001-9.492-7.696-17.187-17.189-17.187z" fill="#a9ba5a"/><path d="m112 268c-.406 0-.818-.062-1.221-.191-1.656-.531-2.779-2.07-2.779-3.809v-16h-6.812c-11.684 0-21.188-9.504-21.188-21.188v-57.625c0-11.683 9.504-21.187 21.188-21.187h89.625c11.684 0 21.188 9.504 21.188 21.188v57.625c0 11.684-9.504 21.188-21.188 21.188h-62.469l-13.088 18.324c-.766 1.07-1.988 1.675-3.256 1.675zm-10.812-112c-7.272 0-13.188 5.914-13.188 13.188v57.625c0 7.273 5.916 13.187 13.188 13.187h10.812c2.209 0 4 1.789 4 4v7.52l7.029-9.844c.752-1.051 1.965-1.676 3.256-1.676h64.527c7.271 0 13.188-5.914 13.188-13.188v-57.625c0-7.273-5.916-13.188-13.188-13.188h-89.624z" fill="#4c241d"/></g><g><path d="m146 176-22 40h44z" fill="#fc8c29"/><path d="m168 220h-44c-1.414 0-2.723-.746-3.443-1.965-.719-1.215-.742-2.723-.061-3.961l22-40c1.402-2.562 5.605-2.562 7.008 0l22 40c.682 1.238.658 2.746-.061 3.961-.72 1.219-2.029 1.965-3.443 1.965zm-37.234-8h30.469l-15.235-27.699z" fill="#4c241d"/></g><g><path d="m160 62.4v-9.212c0-9.493-7.695-17.188-17.188-17.188h-89.624c-9.493 0-17.188 7.695-17.188 17.188v57.625c0 9.492 7.695 17.187 17.188 17.187h10.812v20l14.286-20h64.527c9.492 0 17.188-7.695 17.188-17.188v-24.412" fill="#ffce56"/><path d="m64 152c-.406 0-.818-.062-1.221-.191-1.656-.532-2.779-2.071-2.779-3.809v-16h-6.812c-11.684 0-21.188-9.504-21.188-21.188v-57.624c0-11.684 9.504-21.188 21.188-21.188h89.625c11.683 0 21.187 9.504 21.187 21.188v9.211c0 2.211-1.791 4-4 4s-4-1.789-4-4v-9.211c0-7.274-5.916-13.188-13.188-13.188h-89.624c-7.272 0-13.188 5.914-13.188 13.188v57.625c0 7.273 5.916 13.187 13.188 13.187h10.812c2.209 0 4 1.789 4 4v7.52l7.029-9.844c.752-1.051 1.965-1.676 3.256-1.676h64.527c7.271 0 13.188-5.914 13.188-13.188v-24.414c0-2.211 1.791-4 4-4s4 1.789 4 4v24.414c0 11.684-9.504 21.188-21.188 21.188h-62.468l-13.088 18.324c-.766 1.071-1.988 1.676-3.256 1.676z" fill="#4c241d"/></g><g><path d="m246.812 76h-89.625c-9.492 0-17.187 7.695-17.187 17.188v57.625c0 9.492 7.695 17.188 17.188 17.188h10.812v20l14.286-20h64.527c9.492 0 17.188-7.695 17.188-17.188v-57.625c-.001-9.493-7.696-17.188-17.189-17.188z" fill="#9dc1e4"/><path d="m168 192c-.406 0-.818-.062-1.221-.191-1.656-.531-2.779-2.07-2.779-3.809v-16h-6.812c-11.684 0-21.188-9.504-21.188-21.188v-57.624c0-11.684 9.504-21.188 21.188-21.188h89.625c11.683 0 21.187 9.504 21.187 21.188v57.625c0 11.684-9.504 21.188-21.188 21.188h-62.469l-13.088 18.324c-.765 1.07-1.987 1.675-3.255 1.675zm-10.812-112c-7.272 0-13.188 5.914-13.188 13.188v57.625c0 7.273 5.916 13.188 13.188 13.188h10.812c2.209 0 4 1.789 4 4v7.52l7.029-9.844c.752-1.051 1.965-1.676 3.256-1.676h64.527c7.271 0 13.188-5.914 13.188-13.188v-57.625c0-7.274-5.916-13.188-13.188-13.188z" fill="#4c241d"/></g><g><circle cx="202" cy="122" fill="#6b4f5b" r="22"/><path d="m202 148c-14.336 0-26-11.664-26-26s11.664-26 26-26 26 11.664 26 26-11.664 26-26 26zm0-44c-9.926 0-18 8.074-18 18s8.074 18 18 18 18-8.074 18-18-8.074-18-18-18z" fill="#4c241d"/></g><g><path d="m94.187 60.357-17.83 17.83c-2.106 2.106-2.106 5.52 0 7.626l17.83 17.83c2.106 2.106 5.52 2.106 7.626 0l17.83-17.83c2.106-2.106 2.106-5.52 0-7.626l-17.83-17.83c-2.106-2.106-5.52-2.106-7.626 0z" fill="#e66353"/><path d="m98 109.223c-2.508 0-4.867-.977-6.641-2.75l-17.83-17.832c-3.662-3.66-3.662-9.621 0-13.281l17.83-17.832c3.547-3.547 9.734-3.547 13.281 0l17.83 17.832c3.662 3.66 3.662 9.621 0 13.281l-17.83 17.832c-1.773 1.773-4.132 2.75-6.64 2.75zm-.984-46.039-17.83 17.832c-.543.543-.543 1.426 0 1.969l17.83 17.832c.543.539 1.426.539 1.969 0l17.83-17.832c.543-.543.543-1.426 0-1.969l-17.83-17.832c-.544-.539-1.426-.539-1.969 0z" fill="#4c241d"/></g></g></svg>