<svg id="Capa_1" enable-background="new 0 0 511.985 511.985" height="512" viewBox="0 0 511.985 511.985" width="512" xmlns="http://www.w3.org/2000/svg"><g><g><path d="m490.91 416.663c0 39.528-54.881 87.821-234.923 87.821-180.031 0-234.923-48.294-234.923-87.821 0-35.315 45.393-154.554 169.678-258.025v-86.234l67.685-19.063 62.804 19.063v86.234c124.296 103.471 169.679 222.71 169.679 258.025z" fill="#ecf4ff"/><path d="m321.232 72.404-62.805-19.064-67.685 19.063v27.282h.005v58.958c-124.284 103.471-169.678 222.71-169.678 258.025 0 32.983 38.226 72.074 155.495 84.111-9.214-16.59-12.848-35.895-12.848-53.579 0-38.455 17.827-168.267 66.646-280.918v-36.488c0-16.628 13.48-30.108 30.108-30.108h60.761v-27.282z" fill="#ddeafb"/><path d="m249.574 260.346c58.092-24.736 94.905-21.303 133.423 17.215l-20.641 103.784-137.563-52.031z" fill="#78c2a4"/><path d="m452.608 416.663c0 4.399-7.431 14.445-27.928 24.065-24.721 11.611-74.065 25.454-168.693 25.454-37.054 0-67.149-2.123-91.553-5.395-37.93-5.1-62.082-12.99-77.129-20.059-20.497-9.619-27.939-19.665-27.939-24.065 0-8.558 8.12-40.48 33.213-84.483 12.18-21.373 30.346-48.994 56.14-78.88.011-.011.022-.022.033-.022 16.634-16.284 35.041-18.374 54.433-13.471 58.208 14.686 125.302 92.264 179.812 37.755 15.682 20.475 27.61 39.178 36.409 54.619 25.093 44.002 33.202 75.924 33.202 84.482z" fill="#95d6a4"/><path d="m163.712 447.195c0 4.454.23 9.006.722 13.592-37.93-5.1-62.082-12.99-77.129-20.059-20.497-9.619-27.939-19.665-27.939-24.065 0-8.558 8.12-40.48 33.213-84.483 12.18-21.373 30.346-48.994 56.14-78.88.011-.011.022-.022.033-.022 16.634-16.284 35.041-18.374 54.433-13.471-28.453 90.436-39.473 177.151-39.473 207.388z" fill="#78c2a4"/><path d="m316.196 7.5h-120.41c-17.923 0-32.453 14.53-32.453 32.453 0 17.923 14.53 32.453 32.453 32.453h120.41c17.923 0 32.453-14.53 32.453-32.453 0-17.923-14.53-32.453-32.453-32.453z" fill="#ecf4ff"/><path d="m235.495 62.89c5.866 5.876 13.975 9.51 22.938 9.51h-62.651c-8.952 0-17.072-3.633-22.938-9.51-5.877-5.866-9.51-13.975-9.51-22.937 0-17.926 14.533-32.458 32.447-32.458h62.651c-17.914 0-32.447 14.533-32.447 32.458 0 8.962 3.633 17.071 9.51 22.937z" fill="#ddeafb"/><g fill="#78c2a4"><circle cx="196.238" cy="395.574" r="28.554"/><circle cx="287.745" cy="364.231" r="17.113"/></g></g><g><path d="m459.202 309.499c-22.354-39.212-63.057-97.605-130.465-154.366v-77.255c15.903-5.272 27.412-20.276 27.412-37.925 0-22.03-17.923-39.953-39.952-39.953h-120.411c-22.03 0-39.953 17.923-39.953 39.953 0 17.65 11.509 32.654 27.414 37.926v77.255c-22.055 18.577-42.76 38.609-61.582 59.582-2.767 3.083-2.51 7.825.573 10.591 3.083 2.767 7.825 2.51 10.591-.573 19.105-21.289 40.206-41.589 62.717-60.336 1.711-1.425 2.701-3.537 2.701-5.763v-78.73h115.49v78.729c0 2.227.989 4.339 2.701 5.764 67.3 56.031 107.695 113.873 129.732 152.529 17.939 31.469 37.247 76.102 37.247 99.737 0 19.672-16.208 38.119-45.639 51.941-40.094 18.831-101.257 28.379-181.792 28.379-80.531 0-141.691-9.548-181.783-28.378-29.43-13.823-45.637-32.269-45.637-51.942 0-20.99 20.838-90.074 85.25-169.641 2.606-3.219 2.109-7.942-1.111-10.548-3.219-2.605-7.941-2.109-10.548 1.11-64.54 79.725-88.591 152.153-88.591 179.079 0 25.816 19.27 49.084 54.26 65.519 42.102 19.775 105.408 29.802 188.16 29.802 82.755 0 146.065-10.027 188.168-29.802 34.991-16.434 54.262-39.703 54.262-65.519.001-17.702-10.269-56.39-39.214-107.165zm-288.369-269.546c0-13.759 11.194-24.953 24.953-24.953h120.411c13.759 0 24.952 11.194 24.952 24.953 0 13.749-11.178 24.936-24.923 24.952h-120.469c-13.745-.016-24.924-11.203-24.924-24.952z"/><path d="m250.038 252.036c-15.565-8.549-31.324-16.305-46.597-19.889-23.644-5.549-43.152-.487-59.628 15.474-.161.139-.316.284-.464.437-.107.109-.21.222-.311.338-22.185 25.712-41.355 52.654-56.977 80.075-24.911 43.687-34.195 77.281-34.195 88.195 0 9.693 12.359 21.513 32.251 30.849 25.422 11.939 75.875 26.171 171.869 26.171 43.839 0 82.129-2.976 113.806-8.845 4.073-.755 6.763-4.668 6.008-8.741s-4.675-6.764-8.74-6.008c-30.778 5.703-68.148 8.594-111.074 8.594-93.227 0-141.452-13.458-165.494-24.75-17.292-8.115-22.854-15.667-23.617-17.639.264-5.802 6.332-35.003 32.217-80.399 15.07-26.453 33.57-52.472 54.99-77.342 28.371-27.68 62.796-8.161 102.655 14.435 26.439 14.988 55.076 31.226 82.921 31.224 14.45-.001 28.694-4.378 42.295-15.572 11.53 15.557 21.918 31.423 30.938 47.257 25.88 45.384 31.943 74.597 32.206 80.397-.76 1.97-6.317 9.524-23.613 17.641-7.396 3.479-16.116 6.679-25.92 9.511-3.979 1.15-6.272 5.307-5.123 9.287s5.311 6.273 9.287 5.124c10.562-3.052 20.03-6.533 28.135-10.346 19.888-9.333 32.243-21.154 32.243-30.85 0-10.921-9.28-44.522-34.183-88.192-10.616-18.638-23.056-37.3-36.973-55.469-.202-.264-.426-.507-.658-.739l.007-.007c-39.2-39.2-78.201-44.985-138.261-20.221zm75.092 35.581c-18.687-4.01-38.702-15.054-58.178-26.081 45.253-16.444 74.597-11.853 105.025 15.88-13.5 10.883-28.568 14.124-46.847 10.201z"/><path d="m160.184 395.574c0 19.88 16.174 36.054 36.054 36.054s36.054-16.174 36.054-36.054-16.174-36.054-36.054-36.054-36.054 16.174-36.054 36.054zm57.108 0c0 11.609-9.445 21.054-21.054 21.054s-21.054-9.445-21.054-21.054 9.445-21.054 21.054-21.054c11.61 0 21.054 9.445 21.054 21.054z"/><path d="m263.131 364.231c0 13.572 11.041 24.613 24.613 24.613s24.613-11.042 24.613-24.613-11.041-24.613-24.613-24.613-24.613 11.041-24.613 24.613zm34.227 0c0 5.301-4.312 9.613-9.613 9.613s-9.613-4.312-9.613-9.613 4.312-9.613 9.613-9.613 9.613 4.312 9.613 9.613z"/></g></g></svg>