<svg id="_x33_0" enable-background="new 0 0 64 64" height="512" viewBox="0 0 64 64" width="512" xmlns="http://www.w3.org/2000/svg"><g><g><g><path d="m36 14v4c-1.1 0-2 .9-2 2 0 .32.07.62.21.89l-4.21 2.11-6-3v-6l6-3z" fill="#fcd770"/></g><g><path d="m30 5v6l-6 3-6-3v-6l6-3z" fill="#fcd770"/></g><g><path d="m24 14v6l-6 3-6-3v-6l6-3z" fill="#fcd770"/></g><g><path d="m4 8c1.1 0 2 .9 2 2 0 .32-.07.62-.21.89-.33.66-1.01 1.11-1.79 1.11-1.1 0-2-.9-2-2s.9-2 2-2z" fill="#ff826e"/></g><g><path d="m37.41 21.41c-.36.37-.86.59-1.41.59-.78 0-1.46-.45-1.79-1.11-.14-.27-.21-.57-.21-.89 0-1.1.9-2 2-2s2 .9 2 2c0 .55-.22 1.05-.59 1.41z" fill="#ff826e"/></g><g><path d="m42 24c1.1 0 2 .9 2 2s-.9 2-2 2-2-.9-2-2c0-.55.22-1.05.59-1.41.36-.37.86-.59 1.41-.59z" fill="#ff826e"/></g><g><path d="m61.38 23.62c.38.38.62.92.62 1.5 0 .56-.22 1.1-.62 1.5l-7.38 7.38h-6l10.38-10.38c.4-.4.94-.62 1.5-.62.58 0 1.12.24 1.5.62z" fill="#b4dd7f"/></g><g><path d="m56 35v2c0 .55-.45 1-1 1h-1-22-1c-.55 0-1-.45-1-1v-2c0-.55.45-1 1-1h11 6 6 1c.55 0 1 .45 1 1z" fill="#ccd1d9"/></g><g><path d="m54 50v4c-2.75 0-2.75 2-5.49 2-2.75 0-2.75-2-5.5-2-.38 0-.7.04-.99.11l-.02-.11c0-1.66-1.34-3-3-3s-3 1.34-3 3c0 .74.27 1.41.7 1.93-1.98-.34-2.25-1.93-4.7-1.93v-16h22v4 4z" fill="#e6e9ed"/></g><g><path d="m28 29v2c0 .55-.45 1-1 1h-1-12-1c-.55 0-1-.45-1-1v-2c0-.55.45-1 1-1h5 9c.55 0 1 .45 1 1z" fill="#fcd770"/></g><g><path d="m26.29 45.48 1.51 2.52c-2.16.09-4.04 1.53-4.69 3.58l-.47-.35c-1.07-.8-2.36-1.23-3.69-1.23-1.86 0-3.63.85-4.79 2.31l-1.62 2.02v.01c-1.35.27-2.67.72-3.91 1.34l-.62.31c.03-.71.23-1.39.6-2l5.1-8.51c.19-.32.29-.67.29-1.03v-12.45h12v12.45c0 .36.1.71.29 1.03z" fill="#ffeaa7"/></g><g><path d="m21.74 55.06 1.48.43c1.18.34 2.4.51 3.63.51 1.43 0 2.84-.23 4.19-.68l.8-.27c.11.37.16.75.16 1.13 0 .54-.1 1.08-.3 1.58l-1.2 2.98c-.3.76-1.04 1.26-1.85 1.26h-17.3c-.81 0-1.55-.5-1.85-1.26l-1.2-2.98c-.2-.5-.3-1.04-.3-1.58 0-.06 0-.13.01-.19l.62-.31c1.24-.62 2.56-1.07 3.91-1.34 1.06-.23 2.14-.34 3.23-.34 1.48 0 2.95.21 4.38.61z" fill="#69d6f4"/></g><g><circle cx="20" cy="42" fill="#4fc1e9" r="2"/></g><g><path d="m31.39 53.99c.2.33.36.69.45 1.06l-.8.27c-1.35.45-2.76.68-4.19.68-1.23 0-2.45-.17-3.63-.51l-1.48-.43c.84-.96 1.87-1.72 3.01-2.24 1.16-.53 2.44-.82 3.75-.82h1.7z" fill="#4fc1e9"/></g><g><path d="m28.5 52c-1.31 0-2.59.29-3.75.82l-1.64-1.24c.65-2.05 2.53-3.49 4.69-3.58l2.4 4z" fill="#4fc1e9"/></g><g><path d="m23.11 51.58 1.64 1.24c-1.14.52-2.17 1.28-3.01 2.24l-1.59-.45c-1.43-.4-2.9-.61-4.38-.61-1.09 0-2.17.11-3.23.34v-.01l1.62-2.02c1.16-1.46 2.93-2.31 4.79-2.31 1.33 0 2.62.43 3.69 1.23z" fill="#4fc1e9"/></g><g><path d="m36.7 55.93c.24.05.5.07.8.07 2.37 0 2.7-1.49 4.52-1.89.29-.07.61-.11.99-.11 2.75 0 2.75 2 5.5 2 2.74 0 2.74-2 5.49-2v4c0 2.21-1.79 4-4 4h-14c-2.21 0-4-1.79-4-4v-1.82-2.18c2.45 0 2.72 1.59 4.7 1.93z" fill="#69d6f4"/></g><g><path d="m42.02 54.11c-1.82.4-2.15 1.89-4.52 1.89-.3 0-.56-.02-.8-.07-.43-.52-.7-1.19-.7-1.93 0-1.66 1.34-3 3-3s3 1.34 3 3z" fill="#4fc1e9"/></g></g><g><path d="m20 45c1.654 0 3-1.346 3-3s-1.346-3-3-3-3 1.346-3 3 1.346 3 3 3zm0-4c.552 0 1 .449 1 1s-.448 1-1 1-1-.449-1-1 .448-1 1-1z"/><path d="m63 25.121c0-1.721-1.4-3.121-3.121-3.121-.822 0-1.626.333-2.207.914l-10.086 10.086h-4.586v-4.184c1.161-.414 2-1.514 2-2.816 0-1.654-1.346-3-3-3-.462 0-.894.113-1.285.301l-2.015-2.015c.187-.392.3-.824.3-1.286 0-1.302-.839-2.402-2-2.816v-2.566l5.236-2.618h12.764v-2h-13.236l-5.764 2.882-5-2.5v-6l-7-3.5-7 3.5v6l-5 2.5-5.037-2.518c.015-.121.037-.24.037-.364 0-1.654-1.346-3-3-3s-3 1.346-3 3 1.346 3 3 3c.807 0 1.537-.324 2.077-.844l4.923 2.462v6l6 3v3.382h-4c-1.103 0-2 .897-2 2v2c0 1.103.897 2 2 2v11.446c0 .181-.05.359-.143.515l-5.107 8.513c-.49.817-.75 1.753-.75 2.706 0 .671.127 1.329.376 1.954l1.192 2.981c.459 1.145 1.552 1.885 2.786 1.885h17.291c1.234 0 2.327-.74 2.786-1.886l.253-.634c.866 1.498 2.466 2.52 4.316 2.52h14c2.757 0 5-2.243 5-5v-19c1.103 0 2-.897 2-2v-2c0-.701-.364-1.317-.912-1.674l5.998-5.998c.59-.589.914-1.373.914-2.207zm-21-.121c.552 0 1 .449 1 1s-.448 1-1 1-1-.449-1-1 .448-1 1-1zm-6-6c.552 0 1 .449 1 1s-.448 1-1 1-1-.449-1-1 .448-1 1-1zm-1-1.816c-1.161.414-2 1.514-2 2.816 0 .124.022.243.037.363l-3.037 1.519-5-2.5v-4.764l5-2.5 5 2.5zm-11-14.066 5 2.5v4.764l-5 2.5-5-2.5v-4.764zm-20 7.882c-.552 0-1-.449-1-1s.448-1 1-1 1 .449 1 1-.448 1-1 1zm9 3.618 5-2.5 5 2.5v4.764l-5 2.5-5-2.5zm6 9 5-2.5 6 3 3.923-1.962c.54.52 1.27.844 2.077.844.462 0 .894-.113 1.285-.301l2.015 2.015c-.187.392-.3.824-.3 1.286 0 1.302.839 2.402 2 2.816v4.184h-10c-1.103 0-2 .897-2 2v2c0 1.103.897 2 2 2v12.39l-3.857-6.429c-.093-.156-.143-.334-.143-.515v-11.446c1.103 0 2-.897 2-2v-2c0-1.103-.897-2-2-2h-8zm9.436 27.385c-1.221.008-2.412.248-3.527.678l-.577-.433c.584-1.143 1.676-1.952 2.944-2.179zm-5.496 1.701c-.538.36-1.041.773-1.504 1.237l-1.012-.289c-1.811-.518-3.707-.702-5.587-.597l.1-.126c.981-1.227 2.444-1.93 4.016-1.93 1.105 0 2.202.365 3.086 1.028zm5.56.296h1.133l.863 1.438c-2.194.684-4.557.735-6.775.147 1.369-1.019 3.042-1.585 4.779-1.585zm-15.5-24h14l.001 2h-14.001zm1.572 16.989c.28-.466.428-1 .428-1.543v-11.446h10v11.446c0 .543.147 1.077.428 1.544l.778 1.297c-1.479.456-2.732 1.457-3.505 2.804-1.124-.695-2.425-1.091-3.749-1.091-2.182 0-4.215.977-5.578 2.681l-1.427 1.783c-.767.176-1.526.389-2.261.67zm15.002 14.382c-.152.382-.517.629-.928.629h-17.292c-.411 0-.776-.247-.929-.629l-1.192-2.98c-.103-.256-.159-.522-.194-.792l.039-.02c3.309-1.654 7.237-2.019 10.795-1.003l3.069.877c1.273.363 2.588.547 3.911.547 1.402 0 2.787-.216 4.129-.622-.021.347-.084.688-.215 1.013zm20.426.629h-14c-1.654 0-3-1.346-3-3v-2.844c.431.142.771.368 1.164.653.73.531 1.639 1.191 3.339 1.191 1.701 0 2.609-.661 3.34-1.191.646-.47 1.112-.809 2.163-.809 1.05 0 1.517.339 2.162.809.729.53 1.638 1.191 3.338 1.191 1.699 0 2.606-.661 3.336-1.191.391-.285.729-.51 1.158-.652v2.843c0 1.654-1.346 3-3 3zm-13-7c0-1.103.897-2 2-2 .903 0 1.659.605 1.907 1.429-.498.227-.891.508-1.24.762-.646.47-1.113.809-2.164.809-.093 0-.16-.016-.245-.021-.167-.297-.258-.634-.258-.979zm16-13h-4v2h4v2h-4v2h4v2h-4v2h4v2.091c-1.081.196-1.766.686-2.336 1.101-.644.469-1.11.808-2.158.808-1.05 0-1.517-.339-2.162-.809-.73-.53-1.638-1.191-3.338-1.191-.051 0-.096.006-.146.007-.444-1.724-1.999-3.007-3.86-3.007-2.19 0-3.969 1.77-3.995 3.953-.506-.351-1.124-.703-2.005-.863v-14.09h20zm-22-4v-2h24l.001 2zm29.672-11.086-7.086 7.086h-3.172l8.672-8.672c.209-.208.498-.328.793-.328.618 0 1.121.503 1.121 1.121 0 .3-.116.581-.328.793z"/><path d="m43 14h12v2h-12z"/><path d="m43 18h4v2h-4z"/><path d="m49 18h6v2h-6z"/></g></g></svg>