<svg id="Layer_5" enable-background="new 0 0 64 64" height="512" viewBox="0 0 64 64" width="512" xmlns="http://www.w3.org/2000/svg"><g><g><g><path d="m35 2c1.1 0 2 .9 2 2 0 .55-.22 1.05-.59 1.41-.36.37-.86.59-1.41.59h-2-18-2c-1.1 0-2-.9-2-2 0-.55.22-1.05.59-1.41.36-.37.86-.59 1.41-.59z" fill="#ccd1d9"/></g><g><path d="m45.61 35.88c.26 1.33.39 2.71.39 4.12 0 2.29-.35 4.51-1 6.59l-.03-.01c-.44-2.85-5.25-5.58-10.97-5.58-5.08 0-9.85 3.19-13.03 5.97v.01c-4.24-2.99-8.48-5.98-12.97-5.98-1.82 0-3.84.41-5.9 1.06-.07-.68-.1-1.36-.1-2.06 0-8.94 5.34-16.63 13-20.07v-13.93h18v7.29l-4 1.71v8l-7 3v8l7 3 7-3 7 3z" fill="#e6e9ed"/></g><g><path d="m20.97 46.98v-.01c3.18-2.78 7.95-5.97 13.03-5.97 5.72 0 10.53 2.73 10.97 5.58l.03.01c-.32 1.02-.71 2-1.17 2.95-1.82 1.95-5.57 3.46-9.83 3.46-4.51 0-8.77-3.01-13.03-6.02z" fill="#4fc1e9"/></g><g><path d="m20.97 46.98c4.26 3.01 8.52 6.02 13.03 6.02 4.26 0 8.01-1.51 9.83-3.46-3.55 7.37-11.1 12.46-19.83 12.46-11.46 0-20.87-8.76-21.9-19.94 2.06-.65 4.08-1.06 5.9-1.06 4.49 0 8.73 2.99 12.97 5.98z" fill="#69d6f4"/></g><g><circle cx="34" cy="47" fill="#3bafda" r="2"/></g><g><circle cx="22" cy="56" fill="#4fc1e9" r="2"/></g><g><circle cx="11" cy="48" fill="#4fc1e9" r="2"/></g><g><path d="m50 51h12v4h-12z" fill="#b4dd7f"/></g><g><path d="m50 43h12v4h-12z" fill="#b4dd7f"/></g><g><path d="m50 26v8l-4.39 1.88-2.61 1.12-7-3v-8l7-3 3.71 1.59z" fill="#ffeaa7"/></g><g><path d="m43 15v8l-7 3-7-3v-8l4-1.71 3-1.29z" fill="#ffeaa7"/></g><g><path d="m36 26v8l-7 3-7-3v-8l7-3z" fill="#ffeaa7"/></g></g><g><path d="m61 17v-9h-2v9h-2v-4h-2v4h-2v-6h-2v6h-1.618l-3.149 6.298-2.233-.957v-8l-8-3.429-2 .857v-4.769h1c1.654 0 3-1.346 3-3s-1.346-3-3-3h-22c-1.654 0-3 1.346-3 3s1.346 3 3 3h1v12.289c-7.919 3.829-13 11.888-13 20.711 0 12.683 10.318 23 23 23s23-10.317 23-23c0-1.176-.113-2.347-.289-3.502l4.289-1.839v-9.318l-2.925-1.254 2.543-5.087h12.382v-2zm-19-1.341v6.682l-3 1.286-3 1.286-3-1.286-3-1.286v-6.682l6-2.571zm-13 20.253-6-2.571v-6.682l6-2.571 3 1.286 3 1.286v6.682zm-17-31.912c0-.552.449-1 1-1h22c.551 0 1 .448 1 1s-.449 1-1 1h-22c-.551 0-1-.448-1-1zm12 57c-10.634 0-19.426-7.953-20.794-18.219 1.799-.509 3.416-.781 4.794-.781 4.183 0 8.186 2.825 12.423 5.817 4.306 3.039 8.76 6.183 13.577 6.183 2.37 0 4.688-.469 6.66-1.267-3.841 5.014-9.87 8.267-16.66 8.267zm18.944-11.997c-1.53 1.514-4.818 2.997-8.944 2.997-3.844 0-7.537-2.387-11.399-5.096 2.964-2.4 7.087-4.904 11.399-4.904 5.165 0 9.409 2.374 9.935 4.563-.277.84-.615 1.65-.991 2.44zm2.056-9.003c0 1.316-.137 2.598-.369 3.848-2.047-2.263-6.148-3.848-10.631-3.848-5.106 0-9.847 2.993-13.097 5.708-4.097-2.883-8.336-5.708-12.903-5.708-1.462 0-3.133.261-4.962.752-.009-.252-.038-.498-.038-.752 0-8.254 4.871-15.775 12.41-19.162l.59-.265v-13.573h16v5.626l-4 1.714v8l-7 3v9.318l8 3.429 7-3 7 3 1.808-.775c.114.891.192 1.787.192 2.688zm4-6.659-6 2.571-6-2.571v-6.682l3-1.286 3-1.286 6 2.571z"/><path d="m53 21h10v2h-10z"/><path d="m53 25h10v2h-10z"/><path d="m57 29h2v2h-2z"/><path d="m53 29h2v2h-2z"/><path d="m61 29h2v2h-2z"/><path d="m49 48h14v-6h-14zm12-2h-2v-2h2zm-10-2h6v2h-6z"/><path d="m49 56h14v-6h-14zm2-4h10v2h-10z"/><path d="m11 45c-1.654 0-3 1.346-3 3s1.346 3 3 3 3-1.346 3-3-1.346-3-3-3zm0 4c-.551 0-1-.448-1-1s.449-1 1-1 1 .448 1 1-.449 1-1 1z"/><path d="m34 44c-1.654 0-3 1.346-3 3s1.346 3 3 3 3-1.346 3-3-1.346-3-3-3zm0 4c-.551 0-1-.448-1-1s.449-1 1-1 1 .448 1 1-.449 1-1 1z"/><path d="m22 53c-1.654 0-3 1.346-3 3s1.346 3 3 3 3-1.346 3-3-1.346-3-3-3zm0 4c-.551 0-1-.448-1-1s.449-1 1-1 1 .448 1 1-.449 1-1 1z"/><path d="m11 32c-1.654 0-3 1.346-3 3s1.346 3 3 3v-2c-.551 0-1-.448-1-1s.449-1 1-1 1 .448 1 1h2c0-1.654-1.346-3-3-3z"/></g></g></svg>