<svg id="Layer_1" enable-background="new 0 0 512 512" height="512" viewBox="0 0 512 512" width="512" xmlns="http://www.w3.org/2000/svg"><g><path d="m441 7.5v427.34l-330.2 17.67-39.8 2.13v-427.34c0-10.94 8.86-19.8 19.8-19.8z" fill="#e9fbff"/><path d="m441 7.5v427.34l-330.2 17.67-39.8 2.13v-44.14c8.13-5.33 17.76-8.29 27.78-8.29h291.85c10.67 0 19.32-8.65 19.32-19.32v-375.39z" fill="#d0edf5"/><path d="m110.8 7.5v445.01l-39.8 2.13v-427.34c0-10.94 8.86-19.8 19.8-19.8z" fill="#57616c"/><path d="m110.8 402.21v50.3l-39.8 2.13v-44.14c8.13-5.33 17.76-8.29 27.78-8.29z" fill="#3a4b56"/><path d="m426 434.84v39.6h-335.2c-10.94 0-19.8-8.86-19.8-19.8 0-5.46 2.22-10.42 5.8-14s8.53-5.8 14-5.8z" fill="#e9fbff"/><path d="m426 454.64v19.8h-335.2c-10.94 0-19.8-8.86-19.8-19.8z" fill="#d0edf5"/><path d="m368.42 434.84v69.66l-26.38-13.94-26.38 13.94v-69.66z" fill="#f98562"/><path d="m368.42 434.84v69.66l-26.38-13.94v-55.72z" fill="#f4604c"/><path d="m110.8 147.85h330.2v146.64h-330.2z" fill="#54c9eb"/><path d="m409.95 147.85h31.05v146.64h-31.05z" fill="#34aac7"/><path d="m110.8 294.49h330.2v140.35h-330.2z" fill="#f98562"/><path d="m441 294.49v140.35h-330.2v-32.63h279.83c10.67 0 19.32-8.65 19.32-19.32v-88.4z" fill="#f4604c"/><path d="m275.9 343.13c-6.35 0-12.07-2.53-16.26-6.61-4.74-4.59-7.51-11.18-7.02-18.33l8.28-120.34h30l8.28 120.34c.93 13.48-9.76 24.94-23.28 24.94z" fill="#ffe8a7"/><path d="m299.18 318.19c.93 13.48-9.76 24.94-23.28 24.94-6.35 0-12.07-2.53-16.26-6.61 7.58-3.9 13.65-9.78 14.74-18.33l9.87-120.34h6.65z" fill="#ffd469"/><path d="m210.9 117.85h130v80h-130z" fill="#ffe8a7"/><path d="m340.9 117.85v80h-130v-25h89.95c10.02 0 18.15-8.12 18.15-18.15v-36.85z" fill="#ffd469"/></g><g><path d="m441 0h-55.235c-4.143 0-7.5 3.358-7.5 7.5s3.357 7.5 7.5 7.5h47.735v125.354h-62.599c-4.143 0-7.5 3.358-7.5 7.5s3.357 7.5 7.5 7.5h62.599v131.636h-105.625c-4.143 0-7.5 3.358-7.5 7.5s3.357 7.5 7.5 7.5h105.625v125.354h-257.535c-4.143 0-7.5 3.358-7.5 7.5s3.357 7.5 7.5 7.5h132.193v24.596h-217.36c-6.781 0-12.298-5.517-12.298-12.298s5.517-12.298 12.298-12.298h50.264c4.143 0 7.5-3.358 7.5-7.5s-3.357-7.5-7.5-7.5h-22.76v-125.354h105.768c4.143 0 7.5-3.358 7.5-7.5s-3.357-7.5-7.5-7.5h-105.768v-131.636h62.6c4.143 0 7.5-3.358 7.5-7.5s-3.357-7.5-7.5-7.5h-62.6v-125.354h232.767c4.143 0 7.5-3.358 7.5-7.5s-3.357-7.5-7.5-7.5h-260.271c-15.052 0-27.298 12.246-27.298 27.298v427.343c0 15.052 12.246 27.298 27.298 27.298h217.36v22.56c0 2.629 1.377 5.067 3.63 6.424 2.25 1.356 5.051 1.436 7.375.206l22.874-12.091 22.874 12.091c1.099.581 2.303.87 3.505.87 1.342 0 2.683-.36 3.87-1.076 2.253-1.357 3.63-3.795 3.63-6.424v-22.56h65.084c4.143 0 7.5-3.358 7.5-7.5s-3.357-7.5-7.5-7.5h-7.5v-24.596h7.5c4.143 0 7.5-3.358 7.5-7.5v-427.343c0-4.142-3.357-7.5-7.5-7.5zm-350.202 15h12.504v412.344h-12.504c-4.421 0-8.6 1.057-12.298 2.931v-402.977c0-6.781 5.517-12.298 12.298-12.298zm270.118 477.052-15.374-8.126c-1.097-.58-2.301-.87-3.505-.87s-2.408.29-3.505.87l-15.374 8.126v-49.708h37.758zm57.584-25.112h-42.584v-24.596h42.584z"/><path d="m340.901 220.354c4.143 0 7.5-3.358 7.5-7.5v-110c0-4.142-3.357-7.5-7.5-7.5s-7.5 3.358-7.5 7.5v7.5h-115v-7.5c0-4.142-3.357-7.5-7.5-7.5s-7.5 3.358-7.5 7.5v110c0 4.142 3.357 7.5 7.5 7.5s7.5-3.358 7.5-7.5v-7.5h34.466l-7.731 112.317c-.585 8.495 2.412 16.937 8.223 23.162 5.812 6.225 14.027 9.794 22.543 9.794 8.515 0 16.73-3.57 22.541-9.794 5.812-6.224 8.809-14.667 8.225-23.162l-7.731-112.317h34.466v7.5c-.002 4.142 3.356 7.5 7.498 7.5zm-49.199 98.347c.305 4.427-1.195 8.652-4.224 11.896-3.028 3.244-7.14 5.03-11.577 5.03s-8.55-1.787-11.578-5.03c-3.027-3.244-4.527-7.468-4.223-11.896l7.803-113.347h15.996zm-73.301-128.347v-65h115v65z"/></g></svg>