<svg height="512" viewBox="0 0 128 128" width="512" xmlns="http://www.w3.org/2000/svg"><g><g><rect fill="#0d70b2" height="82.369" rx="5" width="124.5" x="1.75" y="22.815"/><path d="m1.75 36.819h124.5v12.218h-124.5z" fill="#00ddc1"/><rect fill="#17ace8" height="19.375" rx="5" transform="matrix(.707 -.707 .707 .707 -33.647 85.88)" width="19.375" x="77.156" y="73.868"/><path d="m112.714 80.02-6.629-6.629a5 5 0 0 0 -7.071 0l-4.314 4.317 2.311 2.312a5 5 0 0 1 0 7.071l-2.311 2.309 4.317 4.317a5 5 0 0 0 7.071 0l6.629-6.629a5 5 0 0 0 -.003-7.068z" fill="#fedb41"/><g fill="#e1e4fb"><path d="m58.508 96.935h-46.758a1.75 1.75 0 0 1 0-3.5h46.758a1.75 1.75 0 1 1 0 3.5z"/><path d="m58.508 88.378h-46.758a1.75 1.75 0 0 1 0-3.5h46.758a1.75 1.75 0 0 1 0 3.5z"/><path d="m58.508 79.821h-46.758a1.75 1.75 0 0 1 0-3.5h46.758a1.75 1.75 0 1 1 0 3.5z"/></g></g><g><path d="m121.25 21.065h-114.5a6.758 6.758 0 0 0 -6.75 6.75v72.37a6.758 6.758 0 0 0 6.75 6.75h114.5a6.758 6.758 0 0 0 6.75-6.75v-72.37a6.758 6.758 0 0 0 -6.75-6.75zm-114.5 3.5h114.5a3.254 3.254 0 0 1 3.25 3.25v7.253h-79.844a1.75 1.75 0 1 0 0 3.5h79.844v8.719h-121v-8.719h9.844a1.75 1.75 0 1 0 0-3.5h-9.844v-7.253a3.254 3.254 0 0 1 3.25-3.25zm114.5 78.87h-114.5a3.254 3.254 0 0 1 -3.25-3.25v-49.4h121v49.4a3.254 3.254 0 0 1 -3.25 3.25z"/><path d="m24.969 38.568h8.062a1.75 1.75 0 0 0 0-3.5h-8.062a1.75 1.75 0 0 0 0 3.5z"/><path d="m107.322 72.153a6.749 6.749 0 0 0 -9.545 0l-3.077 3.081-3.08-3.081a6.75 6.75 0 0 0 -9.546 0l-6.629 6.63a6.758 6.758 0 0 0 0 9.545l6.629 6.63a6.75 6.75 0 0 0 9.546 0l3.08-3.081 3.08 3.081a6.749 6.749 0 0 0 9.545 0l4.881-4.881a1.75 1.75 0 0 0 -2.475-2.475l-4.88 4.881a3.329 3.329 0 0 1 -4.6 0l-3.08-3.083 1.074-1.074a6.748 6.748 0 0 0 0-9.546l-1.074-1.075 3.081-3.08a3.327 3.327 0 0 1 4.6 0l6.629 6.629a1.75 1.75 0 1 0 2.475-2.474zm-18.18 20.33a3.331 3.331 0 0 1 -4.6 0l-6.629-6.629a3.255 3.255 0 0 1 0-4.6l6.629-6.629a3.329 3.329 0 0 1 4.6 0l6.628 6.63a3.247 3.247 0 0 1 0 4.6l-2.311 2.311z"/><path d="m58.508 93.435h-46.758a1.75 1.75 0 0 0 0 3.5h46.758a1.75 1.75 0 1 0 0-3.5z"/><path d="m58.508 84.878h-46.758a1.75 1.75 0 0 0 0 3.5h46.758a1.75 1.75 0 0 0 0-3.5z"/><path d="m58.508 76.321h-46.758a1.75 1.75 0 0 0 0 3.5h46.758a1.75 1.75 0 1 0 0-3.5z"/></g></g></svg>