<svg id="Layer_5" enable-background="new 0 0 64 64" height="512" viewBox="0 0 64 64" width="512" xmlns="http://www.w3.org/2000/svg"><g><g><g><path d="m53 26h6v36h-6z" fill="#ccd1d9"/></g><g><path d="m43 36h6v26h-6z" fill="#ccd1d9"/></g><g><path d="m29 40v22h-6v-4.87-6.25-10.88z" fill="#ccd1d9"/></g><g><path d="m33 32h6v30h-6z" fill="#ccd1d9"/></g><g><path d="m23 50.88v6.25c-11.49-2.92-20.14-12.95-21-25.13h6.02c.79 8.85 6.83 16.18 14.98 18.88z" fill="#b4dd7f"/></g><g><path d="m5.81 21.36 2.83 2.83.07-.04c-.34 1.24-.58 2.53-.69 3.85h-6.02c.27-3.84 1.32-7.47 2.99-10.73l1.41.39c.17.53.38 1.05.64 1.54z" fill="#b4dd7f"/></g><g><path d="m17.28 5.02c3.24-1.64 6.83-2.67 10.64-2.94v6.01c-1.31.12-2.58.36-3.81.69l.08-.14-2.83-2.83-2.16 1.23c-.49-.26-1.01-.47-1.54-.64z" fill="#b4dd7f"/></g><g><path d="m26 13v4l-2.4.66c-.17.53-.38 1.05-.64 1.54l1.23 2.16-2.83 2.83-2.16-1.23c-.49.26-1.01.47-1.54.64l-.66 2.4h-4l-.66-2.4c-.53-.17-1.05-.38-1.54-.64l-2.09 1.19-.07.04-2.83-2.83 1.23-2.16c-.26-.49-.47-1.01-.64-1.54l-1.41-.39-.99-.27v-4l2.4-.66c.17-.53.38-1.05.64-1.54l-1.23-2.16 2.83-2.83 2.16 1.23c.49-.26 1.01-.47 1.54-.64l.66-2.4h4l.28 1.02.38 1.38c.53.17 1.05.38 1.54.64l2.16-1.23 2.83 2.83-.08.14-1.15 2.02c.26.49.47 1.01.64 1.54zm-6 2c0-2.76-2.24-5-5-5s-5 2.24-5 5 2.24 5 5 5 5-2.24 5-5z" fill="#fcd770"/></g><g><path d="m27.64 31.85c.23.33.36.72.36 1.15 0 1.1-.9 2-2 2s-2-.9-2-2 .9-2 2-2c.67 0 1.27.34 1.64.85z" fill="#ff826e"/></g><g><path d="m36 24c1.1 0 2 .9 2 2 0 .26-.05.51-.14.74-.3.74-1.02 1.26-1.86 1.26-.67 0-1.27-.34-1.64-.85-.23-.33-.36-.72-.36-1.15 0-1.1.9-2 2-2z" fill="#ff826e"/></g><g><path d="m47.16 28.38c.51.36.84.95.84 1.62 0 1.1-.9 2-2 2s-2-.9-2-2c0-.26.05-.51.14-.74.3-.74 1.02-1.26 1.86-1.26.43 0 .83.13 1.16.37z" fill="#ff826e"/></g><g><path d="m56 10c3.31 0 6 2.69 6 6s-2.69 6-6 6c-1.3 0-2.51-.41-3.49-1.12-1.52-1.09-2.51-2.87-2.51-4.88 0-3.31 2.69-6 6-6z" fill="#ff826e"/></g><g><circle cx="56" cy="16" fill="#fc6e51" r="2"/></g></g><g><path d="m9.012 28.09c.1-1.108.303-2.211.578-3.29l1.245-.71c.227.104.455.2.685.286l.717 2.624h5.526l.718-2.625c.229-.086.458-.181.685-.286l2.366 1.35 3.908-3.908-1.35-2.366c.104-.227.2-.455.286-.685l2.624-.717v-5.526l-2.625-.717c-.086-.23-.182-.458-.286-.685l.68-1.192c1.065-.269 2.154-.455 3.241-.552l.91-.082v-8.003l-1.07.076c-3.453.244-6.784 1.095-9.922 2.525l-.165-.607h-5.526l-.717 2.625c-.23.086-.458.182-.685.286l-2.366-1.35-3.908 3.908 1.35 2.366c-.104.227-.2.455-.286.685l-2.625.717v5.526l.568.155c-1.454 3.161-2.319 6.522-2.566 10.012l-.075 1.07h8.003zm17.909-24.917v4.026c-.777.102-1.548.257-2.313.438l-3.076-3.077-2.366 1.35c-.227-.104-.455-.2-.685-.286l-.012-.043c2.682-1.26 5.512-2.083 8.452-2.408zm-21.921 10.59 2.193-.599.162-.525c.142-.46.334-.921.572-1.371l.256-.486-1.129-1.978 1.75-1.75 1.979 1.129.486-.256c.449-.237.91-.43 1.371-.572l.525-.162.598-2.193h2.474l.6 2.193.525.162c.46.142.922.334 1.372.572l.485.256 1.978-1.128 1.749 1.749-.857 1.502-.272.477.256.486c.237.449.43.91.572 1.371l.162.525 2.193.598v2.474l-2.193.6-.162.525c-.142.46-.334.922-.572 1.371l-.256.486 1.129 1.979-1.75 1.749-1.978-1.128-.485.256c-.45.237-.911.43-1.372.572l-.525.162-.599 2.191h-2.474l-.599-2.193-.525-.162c-.46-.142-.921-.334-1.371-.572l-.486-.256-1.979 1.129-1.75-1.75 1.129-1.979-.256-.486c-.237-.449-.43-.91-.572-1.371l-.162-.525-2.192-.598zm-1.906 13.237c.328-2.975 1.166-5.836 2.45-8.541l.081.022c.086.229.181.458.286.685l-1.35 2.366 3.027 3.027c-.195.805-.36 1.619-.468 2.441z"/><path d="m15 21c3.309 0 6-2.691 6-6s-2.691-6-6-6-6 2.691-6 6 2.691 6 6 6zm0-10c2.206 0 4 1.794 4 4s-1.794 4-4 4-4-1.794-4-4 1.794-4 4-4z"/><path d="m52 61h-2v-26h-8v26h-2v-30h-8v30h-2v-22h-8v10.445c-7.238-2.943-12.28-9.682-12.988-17.535l-.082-.91h-8.003l.076 1.07c.863 12.221 9.267 22.484 20.997 25.805v5.125h38v-38h-8zm-48.906-28h4.026c1.104 8.476 6.839 15.63 14.88 18.579v4.213c-10.294-3.148-17.723-12.077-18.906-22.792zm24.906 28h-4v-20h4zm16-24h4v24h-4zm-10-4h4v28h-4zm20-6h4v34h-4z"/><path d="m56 13c-1.654 0-3 1.346-3 3s1.346 3 3 3 3-1.346 3-3-1.346-3-3-3zm0 4c-.551 0-1-.449-1-1s.449-1 1-1 1 .449 1 1-.449 1-1 1z"/><path d="m56 9c-3.86 0-7 3.14-7 7 0 1.984.834 3.774 2.164 5.049l-4.342 6.08c-.263-.076-.535-.129-.822-.129-.895 0-1.691.402-2.241 1.026l-4.771-1.908c.002-.04.012-.078.012-.118 0-1.654-1.346-3-3-3s-3 1.346-3 3c0 .277.05.54.121.795l-5.384 3.768c-.491-.351-1.088-.563-1.737-.563-1.654 0-3 1.346-3 3s1.346 3 3 3 3-1.346 3-3c0-.277-.05-.54-.121-.795l5.383-3.768c.492.351 1.089.563 1.738.563.895 0 1.691-.402 2.241-1.026l4.771 1.908c-.002.04-.012.078-.012.118 0 1.654 1.346 3 3 3s3-1.346 3-3c0-.639-.204-1.229-.545-1.716l4.336-6.07c.962.499 2.052.786 3.209.786 3.86 0 7-3.14 7-7s-3.14-7-7-7zm-30 25c-.551 0-1-.449-1-1s.449-1 1-1 1 .449 1 1-.449 1-1 1zm10-7c-.551 0-1-.449-1-1s.449-1 1-1 1 .449 1 1-.449 1-1 1zm10 4c-.551 0-1-.449-1-1s.449-1 1-1 1 .449 1 1-.449 1-1 1zm10-10c-2.757 0-5-2.243-5-5s2.243-5 5-5 5 2.243 5 5-2.243 5-5 5z"/><path d="m39 17h2v2h-2z"/><path d="m43 17h2v2h-2z"/><path d="m31 17h2v2h-2z"/><path d="m35 17h2v2h-2z"/><path d="m31 13h14v2h-14z"/><path d="m31 9h14v2h-14z"/></g></g></svg>