<svg height="469pt" viewBox="0 -42 469.33333 469" width="469pt" xmlns="http://www.w3.org/2000/svg"><path d="m234.667969 192.167969c0 4.265625-1.28125 8.53125-3.628907 11.730469l-106.664062 160c-3.839844 5.761718-10.242188 9.601562-17.707031 9.601562h-64c-11.734375 0-21.335938-9.601562-21.335938-21.332031 0-4.269531 1.28125-8.535157 3.628907-11.734375l98.773437-148.265625-98.773437-148.269531c-2.347657-3.199219-3.628907-7.464844-3.628907-11.730469 0-11.734375 9.601563-21.335938 21.335938-21.335938h64c7.464843 0 13.867187 3.839844 17.707031 9.601563l106.664062 160c2.347657 3.199218 3.628907 7.464844 3.628907 11.734375zm0 0" fill="#42a5f5"/><path d="m448 192.167969c0 4.265625-1.28125 8.53125-3.625 11.730469l-106.667969 160c-3.839843 5.761718-10.242187 9.601562-17.707031 9.601562h-64c-11.734375 0-21.332031-9.601562-21.332031-21.332031 0-4.269531 1.277343-8.535157 3.625-11.734375l98.773437-148.265625-98.773437-148.269531c-2.347657-3.199219-3.625-7.464844-3.625-11.730469 0-11.734375 9.597656-21.335938 21.332031-21.335938h64c7.464844 0 13.867188 3.839844 17.707031 9.601563l106.667969 160c2.34375 3.199218 3.625 7.464844 3.625 11.734375zm0 0" fill="#2196f3"/><path d="m90.667969 384.167969h-53.335938c-20.585937 0-37.332031-16.746094-37.332031-37.335938 0-7.722656 2.390625-15.253906 6.699219-21.160156l92.246093-133.503906-92.480468-133.824219c-4.074219-5.546875-6.464844-13.078125-6.464844-20.84375 0-20.585938 16.746094-37.332031 37.332031-37.332031h53.335938c12.4375 0 24.042969 6.25 31.015625 16.722656l106.519531 154.453125c4.074219 5.570312 6.464844 13.101562 6.464844 20.824219 0 7.765625-2.390625 15.292969-6.742188 21.203125l-106.390625 154.261718c-6.824218 10.28125-18.429687 16.535157-30.867187 16.535157zm-53.335938-352c-2.898437 0-5.332031 2.429687-5.332031 5.332031 0 1.128906.363281 2.027344.511719 2.238281l99.050781 143.320313c3.777344 5.480468 3.777344 12.734375 0 18.21875l-98.773438 142.933594c-.425781.574218-.789062 1.449218-.789062 2.621093 0 2.902344 2.433594 5.335938 5.332031 5.335938h53.335938c2.386719 0 3.773437-1.539063 4.394531-2.476563l106.816406-154.878906c.425782-.621094.789063-1.515625.789063-2.644531 0-1.175781-.363281-2.050781-.535157-2.285157l-106.921874-155.027343c-.769532-1.152344-2.15625-2.6875-4.542969-2.6875zm0 0"/><path d="m325.332031 384.167969h-53.332031c-20.585938 0-37.332031-16.746094-37.332031-37.335938 0-7.722656 2.386719-15.253906 6.699219-21.160156l92.242187-133.503906-92.480469-133.824219c-4.074218-5.546875-6.460937-13.078125-6.460937-20.84375 0-20.585938 16.746093-37.332031 37.332031-37.332031h53.332031c12.4375 0 24.042969 6.25 31.019531 16.722656l106.519532 154.453125c4.074218 5.570312 6.460937 13.101562 6.460937 20.824219 0 7.765625-2.386719 15.292969-6.738281 21.203125l-106.390625 154.261718c-6.828125 10.28125-18.433594 16.535157-30.871094 16.535157zm-53.332031-352c-2.902344 0-5.332031 2.429687-5.332031 5.332031 0 1.128906.363281 2.027344.511719 2.238281l99.050781 143.320313c3.773437 5.480468 3.773437 12.734375 0 18.21875l-98.773438 142.933594c-.425781.574218-.789062 1.449218-.789062 2.621093 0 2.902344 2.429687 5.335938 5.332031 5.335938h53.332031c2.390625 0 3.777344-1.539063 4.394531-2.476563l106.816407-154.878906c.425781-.621094.789062-1.515625.789062-2.644531 0-1.175781-.363281-2.050781-.53125-2.285157l-106.921875-155.027343c-.769531-1.152344-2.15625-2.6875-4.546875-2.6875zm0 0"/></svg>