<svg id="_x31__x2C_5" enable-background="new 0 0 36 36" height="512" viewBox="0 0 36 36" width="512" xmlns="http://www.w3.org/2000/svg"><path d="m31.833 27.623c0-6.917 3.583-11.667 3.583-15s-1.916-10.333-17.249-10.333-17.584 9.417-17.584 13.083c0 17.167 31.25 24.5 31.25 12.25z" fill="#efefef"/><path d="m28.5 9c-.827 0-1.5-.673-1.5-1.5s.673-1.5 1.5-1.5 1.5.673 1.5 1.5-.673 1.5-1.5 1.5zm0-2c-.276 0-.5.225-.5.5s.224.5.5.5.5-.225.5-.5-.224-.5-.5-.5z" fill="#a4afc1"/><path d="m25.25 15v10.75l-6.82 3.4c-.13.06-.27.1-.43.1v-14.25z" fill="#f3f3f1"/><path d="m18 15v14.25c-.16 0-.3-.04-.43-.1l-6.82-3.4v-10.75z" fill="#f3f3f1"/><path d="m10.75 15 7.25-3.5 7.25 3.5-7.25 3.5z" fill="#2fdf84"/><g fill="#d5dbe1"><path d="m18 28.243v1.007c.16 0 .3-.04.43-.1l.695-.346z"/><path d="m20.25 17.25-2.25 1.25v10.75c.16 0 .3-.04.43-.1l1.82-.907z"/><path d="m13 25.75v-10.75h-2.25v10.75l6.82 3.4c.13.06.27.1.43.1v-1.007z"/></g><path d="m13 15 6.125-2.957-1.125-.543-7.25 3.5 7.25 3.5 1.125-.543z" fill="#00b871"/><path d="m17.25 6.749h1.5v8.251h-1.5z"/><path d="m20.25 10.061-2.25-2.25-2.25 2.25-1.061-1.061 2.78-2.78c.293-.293.768-.293 1.061 0l2.781 2.78z"/><path d="m18 19.25c-.111 0-.223-.024-.326-.074l-7.25-3.5c-.258-.125-.423-.386-.424-.673-.001-.286.161-.549.418-.676l4.28-2.11.663 1.346-2.901 1.431 5.54 2.673 5.54-2.674-2.901-1.431.663-1.346 4.28 2.11c.257.127.419.39.418.676-.001.287-.166.548-.424.673l-7.25 3.5c-.103.051-.215.075-.326.075z"/><path d="m17.25 18.5h1.5v10.75h-1.5z"/><path d="m18 30c-.267 0-.522-.059-.76-.174l-6.825-3.405c-.254-.127-.415-.387-.415-.671v-10.75h1.5v10.286l6.402 3.194c.049.023.14.027.204-.004l6.394-3.19v-10.286h1.5v10.75c0 .284-.161.544-.415.671l-6.817 3.401c-.246.119-.501.178-.768.178z"/></svg>