<svg id="fees" enable-background="new 0 0 300 300" height="512" viewBox="0 0 300 300" width="512" xmlns="http://www.w3.org/2000/svg"><g><circle cx="36" cy="133.074" r="6"/><circle cx="46" cy="123.074" r="4"/><path d="m258 159.074h-22.344l5.172-5.172c1.562-1.562 1.562-4.094 0-5.656s-4.094-1.562-5.656 0l-12 12c-1.562 1.562-1.562 4.094 0 5.656l12 12c.781.781 1.805 1.172 2.828 1.172s2.047-.391 2.828-1.172c1.562-1.562 1.562-4.094 0-5.656l-5.172-5.172h22.344c2.209 0 4-1.789 4-4s-1.791-4-4-4z"/><path d="m214 227.074h-22.344l5.172-5.172c1.562-1.562 1.562-4.094 0-5.656s-4.094-1.562-5.656 0l-12 12c-1.562 1.562-1.562 4.094 0 5.656l12 12c.781.781 1.805 1.172 2.828 1.172s2.047-.391 2.828-1.172c1.562-1.562 1.562-4.094 0-5.656l-5.172-5.172h22.344c2.209 0 4-1.789 4-4s-1.791-4-4-4z"/><path d="m55.172 85.902c.781.781 1.805 1.172 2.828 1.172s2.047-.391 2.828-1.172c1.562-1.562 1.562-4.094 0-5.656l-5.172-5.172h22.344c2.209 0 4-1.789 4-4s-1.791-4-4-4h-22.344l5.172-5.172c1.562-1.562 1.562-4.094 0-5.656s-4.094-1.562-5.656 0l-12 12c-1.562 1.562-1.562 4.094 0 5.656z"/><path d="m78 159.074c0-2.211-1.791-4-4-4h-22.344l5.172-5.172c1.562-1.562 1.562-4.094 0-5.656s-4.094-1.562-5.656 0l-12 12c-1.562 1.562-1.562 4.094 0 5.656l12 12c.781.781 1.805 1.172 2.828 1.172s2.047-.391 2.828-1.172c1.562-1.562 1.562-4.094 0-5.656l-5.172-5.172h22.344c2.209 0 4-1.789 4-4z"/><path d="m142 151.074c2.209 0 4-1.789 4-4s-1.791-4-4-4h-12c-2.209 0-4 1.789-4 4v24c0 2.211 1.791 4 4 4h12c2.209 0 4-1.789 4-4s-1.791-4-4-4h-8v-3.75h4c2.209 0 4-1.789 4-4s-1.791-4-4-4h-4v-4.25z"/><path d="m114 143.074h-12c-2.209 0-4 1.789-4 4v24c0 2.211 1.791 4 4 4s4-1.789 4-4v-7.75h4c2.209 0 4-1.789 4-4s-1.791-4-4-4h-4v-4.25h8c2.209 0 4-1.789 4-4s-1.791-4-4-4z"/><path d="m170 151.074c2.209 0 4-1.789 4-4s-1.791-4-4-4h-12c-2.209 0-4 1.789-4 4v24c0 2.211 1.791 4 4 4h12c2.209 0 4-1.789 4-4s-1.791-4-4-4h-8v-3.75h4c2.209 0 4-1.789 4-4s-1.791-4-4-4h-4v-4.25z"/><path d="m186 143.074c-2.209 0-4 1.789-4 4v12c0 2.211 1.791 4 4 4h8v4h-8c-2.209 0-4 1.789-4 4s1.791 4 4 4h12c2.209 0 4-1.789 4-4v-12c0-2.211-1.791-4-4-4h-8v-4h8c2.209 0 4-1.789 4-4s-1.791-4-4-4z"/><path d="m222 147.074c26.467 0 48-21.531 48-48s-21.533-48-48-48-48 21.531-48 48c0 12.3 4.69 23.498 12.324 32h-100.324c-2.209 0-4 1.789-4 4v40c-26.467 0-48 21.531-48 48s21.533 48 48 48 48-21.531 48-48c0-12.3-4.69-23.498-12.324-32h96.324c2.209 0 4-1.789 4-4v-40.203c1.322.11 2.65.203 4 .203zm0-88c22.057 0 40 17.945 40 40s-17.943 40-40 40-40-17.945-40-40 17.943-40 40-40zm-140 204c-22.057 0-40-17.945-40-40s17.943-40 40-40 40 17.945 40 40-17.943 40-40 40zm128-80h-101.524c-5.476-3.636-11.744-6.14-18.476-7.277v-36.723h105.524c4.373 2.904 9.26 5.07 14.476 6.42z"/><path d="m198 99.074h4v10.664c0 11.766 8.461 21.336 18.859 21.336h13.141c2.209 0 4-1.789 4-4s-1.791-4-4-4h-13.141c-5.616 0-10.195-5.282-10.75-12h11.891c2.209 0 4-1.789 4-4s-1.791-4-4-4h-12v-4h12c2.209 0 4-1.789 4-4s-1.791-4-4-4h-12v-2.664c0-7.352 4.871-13.336 10.859-13.336h13.141c2.209 0 4-1.789 4-4s-1.791-4-4-4h-13.141c-10.398 0-18.859 9.57-18.859 21.336v2.664h-4c-2.209 0-4 1.789-4 4s1.791 4 4 4z"/><path d="m87.559 219.074h-1.559v-16h8c2.209 0 4-1.789 4-4s-1.791-4-4-4h-8v-4c0-2.211-1.791-4-4-4s-4 1.789-4 4v4h-1.559c-7.963 0-14.441 6.477-14.441 14.441v3.117c0 7.965 6.479 14.441 14.441 14.441h1.559v16h-11.242c-2.209 0-4 1.789-4 4s1.791 4 4 4h11.242v4c0 2.211 1.791 4 4 4s4-1.789 4-4v-4h1.559c7.963 0 14.441-6.477 14.441-14.441v-3.117c0-7.964-6.479-14.441-14.441-14.441zm-11.118 0c-3.553 0-6.441-2.891-6.441-6.441v-3.117c0-3.551 2.889-6.441 6.441-6.441h1.559v16h-1.559zm17.559 17.559c0 3.551-2.889 6.441-6.441 6.441h-1.559v-16h1.559c3.553 0 6.441 2.891 6.441 6.441z"/><path d="m142 42.586c2.209 0 4-1.789 4-4v-5.66c0-2.211-1.791-4-4-4s-4 1.789-4 4v5.66c0 2.211 1.791 4 4 4z"/><path d="m142 65.223c2.209 0 4-1.789 4-4v-5.66c0-2.211-1.791-4-4-4s-4 1.789-4 4v5.66c0 2.211 1.791 4 4 4z"/><path d="m127.852 51.074h5.66c2.209 0 4-1.789 4-4s-1.791-4-4-4h-5.66c-2.209 0-4 1.789-4 4s1.791 4 4 4z"/><path d="m150.488 51.074h5.66c2.209 0 4-1.789 4-4s-1.791-4-4-4h-5.66c-2.209 0-4 1.789-4 4s1.791 4 4 4z"/></g></svg>