<svg id="Layer_1" enable-background="new 0 0 512 512" height="512" viewBox="0 0 512 512" width="512" xmlns="http://www.w3.org/2000/svg"><g><g><path d="m407.012 504h-302.024v-80.421c0-64.319 52.141-116.459 116.459-116.459h69.106c64.319 0 116.459 52.141 116.459 116.459z" fill="#ffcf4d"/><path d="m104.988 486h302.025v18h-302.025z" fill="#ffb629"/><path d="m256 356.042c-36.385 0-36.854-47.665-36.859-48.893-16.102.313-31.403 3.891-45.268 10.104 45.267 126.069 82.127 38.789 82.127 38.789z" fill="#ff9517"/><path d="m256 356.042c36.385 0 36.853-47.665 36.859-48.893 16.102.313 31.403 3.891 45.268 10.104-45.267 126.069-82.127 38.789-82.127 38.789z" fill="#ff9517"/><path d="m219.14 307.12s0 48.923 36.86 48.923 36.86-48.923 36.86-48.923z" fill="#ffc4ad"/><path d="m116.438 373.161c18.794-39.072 58.751-66.042 105.009-66.042h69.106c46.257 0 86.215 26.97 105.009 66.042h.001c11.449-222.136-4.943-365.161-139.563-365.161s-151.012 143.025-139.563 365.161z" fill="#2d4456"/><path d="m294.011 289.12h-76.022c-42.34 0-79.868 18.681-103.193 47.459.451 11.943.999 24.131 1.641 36.583h.001c18.794-39.072 58.751-66.042 105.009-66.042h69.106c46.257 0 86.215 26.97 105.009 66.042h.001c.642-12.451 1.19-24.639 1.641-36.583-23.325-28.778-60.853-47.459-103.193-47.459z" fill="#253847"/><path d="m210.199 109.148s-13.201 40.777-48.72 54.621v48.83c0 52.202 42.318 94.52 94.521 94.52 52.202 0 94.521-42.318 94.521-94.52v-57.912c-.005.001-99.938 8.289-140.322-45.539z" fill="#ffe0cc"/><path d="m256 289.12c-52.202 0-94.521-42.318-94.521-94.52v18c0 52.202 42.318 94.52 94.521 94.52 52.202 0 94.521-42.318 94.521-94.52v-18c0 52.201-42.319 94.52-94.521 94.52z" fill="#ffceb3"/></g><g><g><path d="m403.432 371.982c1.348-26.466 2.208-49.926 2.624-71.649.079-4.15-3.22-7.577-7.37-7.658-4.126-.095-7.577 3.22-7.658 7.37-.292 15.25-.804 31.357-1.552 48.765-19.501-25.608-48.705-43.441-82.082-47.967 30.372-17.741 50.824-50.689 50.824-88.329v-58.025c0-4.151-3.364-7.515-7.515-7.515-.203 0-.409.009-.612.025-.963.077-96.539 7.248-133.973-42.649-3.391-4.827-11.503-3.474-13.156 2.183-.123.375-12.669 37.685-44.399 50.052-2.886 1.125-4.786 3.905-4.786 7.002v48.926c0 37.639 20.452 70.588 50.824 88.329-33.383 4.527-62.591 22.365-82.091 47.98-5.235-119.884-2.204-235.177 41.563-292.481 2.519-3.298 1.887-8.015-1.412-10.533-3.297-2.521-8.014-1.887-10.533 1.41-22.013 28.824-35.799 71.525-42.145 130.547-5.233 48.669-5.684 110.427-1.417 194.215-7.306 15.809-11.391 33.399-11.391 51.927v15.612c0 4.151 3.364 7.515 7.515 7.515s7.515-3.364 7.515-7.515v-15.612c0-41.465 23.238-77.603 57.374-96.08 16.651 43.439 34.324 64.862 53.918 65.4.242.007.482.01.723.01 10.298 0 20.305-6.047 28.983-17.527 1.007-1.332 1.935-2.663 2.796-3.962.86 1.299 1.788 2.629 2.796 3.962 8.679 11.481 18.685 17.527 28.983 17.527.241 0 .481-.003.723-.01 19.593-.538 37.267-21.961 53.918-65.4 34.136 18.477 57.374 54.615 57.374 96.08v73.064h-44.746v-58.638c0-4.151-3.364-7.515-7.515-7.515s-7.515 3.364-7.515 7.515v58.638h-168.036v-58.638c0-4.151-3.364-7.515-7.515-7.515s-7.515 3.364-7.515 7.515v58.638h-44.746v-27.393c0-4.151-3.364-7.515-7.515-7.515s-7.515 3.364-7.515 7.515v34.908c0 4.151 3.364 7.515 7.515 7.515h302.616c4.151 0 7.515-3.364 7.515-7.515v-80.578c.002-18.529-4.083-36.118-11.389-51.926zm-147.432-23.259c-21.501 0-27.286-21.996-28.843-33.988h57.644c-.546 4.017-1.575 9.186-3.518 14.345-4.98 13.217-13.25 19.643-25.283 19.643zm-87.191-136.209v-43.985c23.406-11.07 36.968-32.342 43.524-45.656 38.428 38.604 107.207 40.2 130.857 39.513v50.128c0 48.077-39.113 87.191-87.191 87.191s-87.19-39.114-87.19-87.191zm55.402 165.693c-.107 0-.212-.002-.319-.005-16.598-.481-32.559-35.672-40.596-56.61 9.096-3.397 18.762-5.611 28.812-6.46.607 5.138 1.879 12.168 4.545 19.245 5.52 14.653 15.134 24.208 27.646 27.787-4.779 7.502-12.162 16.043-20.088 16.043zm63.897-.004c-8.036.203-15.556-8.452-20.4-16.04 12.509-3.58 22.121-13.135 27.64-27.785 2.666-7.077 3.938-14.108 4.545-19.245 10.05.849 19.716 3.064 28.812 6.46-8.039 20.938-23.999 56.128-40.597 56.61z"/><path d="m210.11 175.893c-4.151 0-7.515 3.364-7.515 7.515v21.231c0 4.151 3.364 7.515 7.515 7.515s7.515-3.364 7.515-7.515v-21.231c-.001-4.151-3.365-7.515-7.515-7.515z"/><path d="m301.89 212.154c4.151 0 7.515-3.364 7.515-7.515v-21.231c0-4.151-3.364-7.515-7.515-7.515s-7.515 3.364-7.515 7.515v21.231c.001 4.151 3.365 7.515 7.515 7.515z"/><path d="m283.67 245.126-.011-.005c.479-.989.755-2.094.755-3.267-.112-8.394-11.613-10.346-14.554-2.611l-.016-.007c-.317.668-3.398 6.522-13.845 6.522s-13.528-5.854-13.845-6.522l-.016.007c-4.01-9.585-17.938-3.725-13.798 5.878l-.011.005c2.395 5.817 10.919 15.662 27.67 15.662s25.276-9.845 27.671-15.662z"/><path d="m183.908 36.406c18.987-14.385 42.569-21.377 72.092-21.377 95.944 0 135.147 73.905 135.315 255.09.004 4.148 3.367 7.508 7.515 7.508h.007c4.151-.004 7.512-3.372 7.508-7.521-.084-90.694-9.603-152.819-29.956-195.511-23.93-50.195-63.31-74.595-120.389-74.595-32.464 0-59.773 8.218-81.168 24.426-3.307 2.507-3.958 7.22-1.452 10.528 2.507 3.306 7.216 3.959 10.528 1.452z"/></g></g></g></svg>