<svg id="_x31__x2C_5" enable-background="new 0 0 36 36" height="512" viewBox="0 0 36 36" width="512" xmlns="http://www.w3.org/2000/svg"><g><path d="m31.833 8.377c0 6.917 3.583 11.667 3.583 15s-1.916 10.333-17.249 10.333-17.584-9.417-17.584-13.083c0-17.167 31.25-24.5 31.25-12.25z" fill="#efefef"/></g><g><path d="m28.5 6c-.827 0-1.5-.673-1.5-1.5s.673-1.5 1.5-1.5 1.5.673 1.5 1.5-.673 1.5-1.5 1.5zm0-2c-.276 0-.5.225-.5.5s.224.5.5.5.5-.225.5-.5-.224-.5-.5-.5z" fill="#a4afc1"/></g><g><path d="m28.25 10.75c.552 0 1 .448 1 1v11h-22.5v-11c0-.552.448-1 1-1z" fill="#f3f3f1"/></g><g><path d="m6.75 22.75h22.5v2.5c0 .552-.448 1-1 1h-20.5c-.552 0-1-.448-1-1z" fill="#2fdf84"/></g><g><path d="m19.75 26.25s.245 1.765 1.48 3h.02-6.5c1.25-1.25 1.48-3 1.48-3z" fill="#2fdf84"/></g><g><path d="m9 25.25v-2.5h-2.25v2.5c0 .552.448 1 1 1h2.25c-.552 0-1-.448-1-1z" fill="#00b871"/></g><g><path d="m16.23 26.25s-.23 1.75-1.48 3h2.25c1.25-1.25 1.48-3 1.48-3z" fill="#00b871"/></g><g><path d="m10 10.75h-2.25c-.552 0-1 .448-1 1v11h2.25v-11c0-.552.448-1 1-1z" fill="#d5dbe1"/></g><g><path d="m21.25 17h-6.5c-.965 0-1.75-.785-1.75-1.75v-2.25h1.5v2.25c0 .138.112.25.25.25h6.5c.138 0 .25-.112.25-.25v-2.25h1.5v2.25c0 .965-.785 1.75-1.75 1.75z"/></g><g><path d="m17.25 6.5h1.5v7.5h-1.5z"/></g><g><path d="m20.25 10.061-2.25-2.25-2.25 2.25-1.061-1.061 2.78-2.78c.293-.293.768-.293 1.061 0l2.781 2.78z"/></g><g><path d="m28.25 27h-20.5c-.965 0-1.75-.785-1.75-1.75v-13.5c0-.965.785-1.75 1.75-1.75h4.25v1.5h-4.25c-.138 0-.25.112-.25.25v13.5c0 .138.112.25.25.25h20.5c.138 0 .25-.112.25-.25v-13.5c0-.138-.112-.25-.25-.25h-4.25v-1.5h4.25c.965 0 1.75.785 1.75 1.75v13.5c0 .965-.785 1.75-1.75 1.75z"/></g><g><path d="m6.75 22h22.5v1.5h-22.5z"/></g><g><path d="m21.25 30h-6.5c-.303 0-.577-.183-.693-.463s-.052-.603.163-.817c1.041-1.041 1.265-2.553 1.267-2.567l1.487.195c-.008.059-.147 1.066-.744 2.152h3.523c-.591-1.08-.738-2.088-.746-2.147l1.485-.208c.002.015.221 1.458 1.184 2.488.196.136.324.361.324.617 0 .414-.336.75-.75.75z"/></g><g><path d="m2 28.5h32v1.5h-32z"/></g></svg>