<svg id="Capa_1" enable-background="new 0 0 512 512" height="512" viewBox="0 0 512 512" width="512" xmlns="http://www.w3.org/2000/svg"><g><g><g><g><g><path d="m504.119 350.999c-.241-1.087-.594-2.149-1.057-3.168l-44.685-90.302c-3-6.063-9.179-9.899-15.943-9.899h-372.867c-6.764 0-12.943 3.836-15.943 9.899l-44.685 90.302c-.463 1.019-.816 2.082-1.057 3.168l18.452 9.354h454z" fill="#e5a32e"/><g><g><path d="m99.208 445.956c4.321 0 7.824-3.503 7.824-7.824v-397.855c0-6.237-5.053-11.293-11.289-11.298h-33.505c-11.262 0-20.391 9.129-20.391 20.391v379.669c0 9.343 7.574 16.917 16.917 16.917z" fill="#88a8d8"/><path d="m146.066 28.979h-55.568c6.646 0 12.034 5.388 12.034 12.033v388.027c0 7.714-5.168 14.209-12.227 16.244-.969.43-2.038.673-3.166.673h62.402c9.343 0 16.917-7.574 16.917-16.917v-379.669c-.001-11.262-9.13-20.391-20.392-20.391z" fill="#7296d1"/></g><g><circle cx="101.28" cy="105.872" fill="#f7f4f7" r="30.667"/></g><path d="m131.947 105.872c0-16.517-13.06-29.978-29.415-30.635v61.27c16.355-.657 29.415-14.118 29.415-30.635z" fill="#edeaed"/></g><g><g><path d="m251.056 445.956c4.321 0 7.824-3.503 7.824-7.824v-397.855c0-6.237-5.053-11.293-11.289-11.298h-33.506c-11.262 0-20.391 9.129-20.391 20.391v379.669c0 9.343 7.574 16.917 16.917 16.917z" fill="#88a8d8"/><path d="m297.914 28.979h-55.568c6.646 0 12.034 5.388 12.034 12.033v388.027c0 7.714-5.168 14.209-12.227 16.244-.969.43-2.038.673-3.166.673h62.402c9.343 0 16.917-7.574 16.917-16.917v-379.669c-.001-11.262-9.13-20.391-20.392-20.391z" fill="#7296d1"/></g><g><circle cx="253.128" cy="105.872" fill="#f7f4f7" r="30.667"/></g><path d="m283.795 105.872c0-16.517-13.06-29.978-29.415-30.635v61.27c16.355-.657 29.415-14.118 29.415-30.635z" fill="#edeaed"/></g><g><g><path d="m402.904 445.956c4.321 0 7.824-3.503 7.824-7.824v-397.855c0-6.237-5.053-11.293-11.289-11.298h-33.506c-11.262 0-20.391 9.129-20.391 20.391v379.669c0 9.343 7.574 16.917 16.917 16.917z" fill="#88a8d8"/><path d="m449.762 28.979h-55.568c6.646 0 12.034 5.388 12.034 12.033v388.027c0 7.714-5.168 14.209-12.227 16.244-.969.43-2.038.673-3.166.673h62.402c9.343 0 16.917-7.574 16.917-16.917v-379.669c-.001-11.262-9.13-20.391-20.392-20.391z" fill="#7296d1"/></g></g><g><g><g><g><path d="m7.583 454.132s2.917 16.189 16.189 16.189h410.185c5.477 0 9.917-4.44 9.917-9.917v-109.405h-435.989c-.253 1.14-.385 2.306-.385 3.48z" fill="#efc984"/></g><g><path d="m504.115 350.999h-63.266v105.985c0 5.44-4.41 9.85-9.85 9.85h-407.419c-8.881 0-16.08-7.199-16.08-16.08v16.188c0 8.881 7.199 16.08 16.08 16.08h464.84c8.881 0 16.08-7.199 16.08-16.08v-112.463c0-1.174-.133-2.34-.385-3.48z" fill="#e8ae4d"/><path d="m440.574 350.999h-.111c.041.181.077.15.111 0z" fill="#eac173"/></g></g></g><path d="m315.501 436.948h-119.002c-11.011 0-19.937-8.926-19.937-19.938 0-11.011 8.926-19.937 19.937-19.937h119.003c11.011 0 19.938 8.926 19.938 19.937-.001 11.011-8.927 19.938-19.939 19.938z" fill="#e5a32e"/></g></g><g><circle cx="404.976" cy="105.872" fill="#f7f4f7" r="30.667"/></g><path d="m435.643 105.872c0-16.517-13.06-29.978-29.415-30.635v61.27c16.355-.657 29.415-14.118 29.415-30.635z" fill="#edeaed"/></g><g><path d="m315.501 444.447h-119.002c-15.129 0-27.438-12.309-27.438-27.438s12.309-27.438 27.438-27.438h119.002c15.129 0 27.438 12.309 27.438 27.438s-12.309 27.438-27.438 27.438zm-119.002-39.875c-6.858 0-12.438 5.579-12.438 12.438s5.58 12.438 12.438 12.438h119.002c6.858 0 12.438-5.579 12.438-12.438s-5.579-12.438-12.438-12.438z"/></g></g><g><path d="m101.28 67.705c-21.045 0-38.167 17.122-38.167 38.167s17.122 38.167 38.167 38.167 38.167-17.122 38.167-38.167-17.122-38.167-38.167-38.167zm0 61.334c-12.774 0-23.167-10.393-23.167-23.167s10.393-23.167 23.167-23.167 23.167 10.393 23.167 23.167-10.393 23.167-23.167 23.167z"/><path d="m253.128 67.705c-21.045 0-38.167 17.122-38.167 38.167s17.122 38.167 38.167 38.167 38.167-17.122 38.167-38.167-17.121-38.167-38.167-38.167zm0 61.334c-12.774 0-23.167-10.393-23.167-23.167s10.393-23.167 23.167-23.167 23.167 10.393 23.167 23.167-10.393 23.167-23.167 23.167z"/><path d="m404.977 67.705c-21.045 0-38.167 17.122-38.167 38.167s17.122 38.167 38.167 38.167 38.166-17.122 38.166-38.167-17.122-38.167-38.166-38.167zm0 61.334c-12.774 0-23.167-10.393-23.167-23.167s10.393-23.167 23.167-23.167c12.773 0 23.166 10.393 23.166 23.167s-10.393 23.167-23.166 23.167z"/><path d="m127.939 237.957h-53.318c-4.142 0-7.5 3.357-7.5 7.5s3.358 7.5 7.5 7.5h53.318c4.142 0 7.5-3.357 7.5-7.5s-3.357-7.5-7.5-7.5z"/><path d="m127.939 273.791h-53.318c-4.142 0-7.5 3.357-7.5 7.5s3.358 7.5 7.5 7.5h53.318c4.142 0 7.5-3.357 7.5-7.5s-3.357-7.5-7.5-7.5z"/><path d="m127.939 309.624h-53.318c-4.142 0-7.5 3.357-7.5 7.5s3.358 7.5 7.5 7.5h53.318c4.142 0 7.5-3.357 7.5-7.5s-3.357-7.5-7.5-7.5z"/><path d="m279.787 237.957h-53.318c-4.142 0-7.5 3.357-7.5 7.5s3.358 7.5 7.5 7.5h53.318c4.143 0 7.5-3.357 7.5-7.5s-3.357-7.5-7.5-7.5z"/><path d="m279.787 273.791h-53.318c-4.142 0-7.5 3.357-7.5 7.5s3.358 7.5 7.5 7.5h53.318c4.143 0 7.5-3.357 7.5-7.5s-3.357-7.5-7.5-7.5z"/><path d="m279.787 309.624h-53.318c-4.142 0-7.5 3.357-7.5 7.5s3.358 7.5 7.5 7.5h53.318c4.143 0 7.5-3.357 7.5-7.5s-3.357-7.5-7.5-7.5z"/><path d="m431.636 237.957h-53.318c-4.143 0-7.5 3.357-7.5 7.5s3.357 7.5 7.5 7.5h53.318c4.143 0 7.5-3.357 7.5-7.5s-3.358-7.5-7.5-7.5z"/><path d="m431.636 273.791h-53.318c-4.143 0-7.5 3.357-7.5 7.5s3.357 7.5 7.5 7.5h53.318c4.143 0 7.5-3.357 7.5-7.5s-3.358-7.5-7.5-7.5z"/><path d="m431.636 309.624h-53.318c-4.143 0-7.5 3.357-7.5 7.5s3.357 7.5 7.5 7.5h53.318c4.143 0 7.5-3.357 7.5-7.5s-3.358-7.5-7.5-7.5z"/></g></g><path d="m509.783 344.504-32.131-64.929v-230.206c0-15.379-12.512-27.891-27.891-27.891h-83.828c-15.379 0-27.891 12.512-27.891 27.892v190.76h-12.238v-190.761c0-15.379-12.512-27.891-27.891-27.891h-83.828c-15.379 0-27.891 12.512-27.891 27.892v190.76h-12.238v-190.761c0-15.379-12.512-27.891-27.891-27.891h-83.827c-15.379 0-27.891 12.512-27.891 27.892v38.971c0 4.143 3.358 7.5 7.5 7.5s7.5-3.357 7.5-7.5v-38.971c0-7.108 5.783-12.892 12.891-12.892h83.829c7.108 0 12.891 5.782 12.891 12.891v294.13h-109.611v-62.028c.002-.094.002-.187 0-.281v-157.787c0-4.143-3.358-7.5-7.5-7.5s-7.5 3.357-7.5 7.5v156.17l-32.131 64.93c-1.277 2.59-2.216 6.275-2.216 9.976v112.463c0 13.002 10.578 23.58 23.58 23.58h464.84c13.002 0 23.58-10.578 23.58-23.58v-112.463c0-3.757-.975-7.491-2.217-9.975zm-32.131-31.111 14.898 30.106h-14.898zm-124.609-264.023c0-7.108 5.782-12.892 12.891-12.892h83.828c7.108 0 12.891 5.782 12.891 12.891v231.819c-.002.095-.002.19 0 .286v62.025h-109.61zm-27.238 205.76h12.238v88.369h-12.238zm-124.61-205.76c0-7.108 5.783-12.892 12.891-12.892h83.828c7.108 0 12.891 5.782 12.891 12.891v294.13h-109.61zm-27.238 205.76h12.238v88.369h-12.238zm-139.61 58.265v30.104h-14.897zm462.653 153.546c0 4.731-3.849 8.58-8.58 8.58h-464.84c-4.731 0-8.58-3.849-8.58-8.58v-108.442h482z"/></g></svg>