<?xml version="1.0"?>
<svg xmlns="http://www.w3.org/2000/svg" width="512" height="512" viewBox="0 0 512 512"><g><g><path d="M405.97,259.82a96.014,96.014,0,0,1,38.2,162.75L496.91,448H379.09a95.964,95.964,0,0,1-84.52-50.45" fill="#787680"/><path d="M408,233A176,176,0,0,1,232,409H16l96.68-46.63A176,176,0,1,1,408,233Z" fill="#e0e0e2"/></g><g><path d="M500.38,440.79l-42.76-20.62A104.339,104.339,0,0,0,483.09,352a103.051,103.051,0,0,0-21.22-62.96,104.865,104.865,0,0,0-47.11-34.73A185.054,185.054,0,0,0,416,233c0-101.46-82.54-184-184-184S48,131.54,48,233A184.592,184.592,0,0,0,98.97,360.1L12.52,401.79A8,8,0,0,0,16,417H232a183.208,183.208,0,0,0,59-9.7A103.949,103.949,0,0,0,379.09,456H496.91a8,8,0,0,0,3.47-15.21ZM232,401H51l65.16-31.42a8.006,8.006,0,0,0,1.94-13.09A168.5,168.5,0,0,1,64,233c0-92.64,75.36-168,168-168s168,75.36,168,168S324.64,401,232,401Zm147.09,39a87.951,87.951,0,0,1-72.87-38.65,184.672,184.672,0,0,0,105.94-130.9,88,88,0,0,1,26.59,146.24,8,8,0,0,0,1.95,13.09L461.9,440Z"/><path d="M328,193H136a8,8,0,0,0,0,16H328a8,8,0,0,0,0-16Z"/><path d="M328,225H136a8,8,0,0,0,0,16H328a8,8,0,0,0,0-16Z"/><path d="M263,257H135a8,8,0,0,0,0,16H263a8,8,0,0,0,0-16Z"/><path d="M295,257h-8a8,8,0,0,0,0,16h8a8,8,0,0,0,0-16Z"/></g></g></svg>
