<svg height="512pt" viewBox="0 -14 512 512" width="512pt" xmlns="http://www.w3.org/2000/svg"><path d="m502 229c0 120.949219-98.050781 219-219 219s-219-98.050781-219-219 98.050781-219 219-219 219 98.050781 219 219zm0 0" fill="#c9f3ff"/><g fill="#36d28f"><path d="m318.578125 406c-1.144531 6.339844-10.066406 6.859375-11.851563.675781-2.789062-9.644531.554688-21 2.195313-32.105469 1.757813-11.875 10.429687-37.074218 4.835937-48.414062-1.75-3.546875-7.609374-7.089844-10.160156-10.359375-3.042968-3.902344-7.691406-11.691406-8.476562-16.652344-.957032-6.046875 1.101562-7.917969 2.421875-13.117187.453125-1.785156 3.722656-12.128906 4.28125-13.070313 12.101562-20.445312 39.847656-1.035156 50.421875 10.007813 8.625 9.003906 31.082031 11.816406 26.710937 27.378906-3.589843 12.773438-11.230469 23.996094-20.519531 32.800781-12.085938 11.457031-24.917969 30.160157-33.386719 44.65625-3.425781 5.871094-5.332031 11.890625-6.472656 18.199219zm0 0"/><path d="m320.8125 53.355469c-15.789062-6.453125-27.71875.042969-42.011719 6.113281-15.441406 6.554688-31.65625 12.273438-46.648437 19.804688-8.617188 4.328124-14.007813 9.183593-18.101563 18-3.746093 8.074218-2.292969 10.027343-9.535156 13.160156-14.554687 6.292968-32.152344-2.808594-46.832031-3.453125-18.996094-.832031-26.753906 32.945312-10.125 41.558593 2.871094 1.484376 14.40625.710938 17.496094 0 2.246093-.519531 4.304687-4.320312 7.484374-4.980468 6-1.246094 13.003907 2.769531 17.945313 5.800781 9.378906 5.746094 20.910156 18.78125 24.582031 29.035156 2.007813 5.601563.292969 13.179688 1.347656 19.054688 2.113282 11.746093 7.4375 12.121093 15.269532 18.777343 10.164062 8.628907 14.265625 24.214844 24.902344 32.289063 12.289062 9.324219 30.257812 14.71875 44.1875 21.496094-7.25-9.195313-14.5-18.394531-21.75-27.589844-2.324219-2.949219-6.449219-6.542969-7.136719-10.449219-1.945313-10.980468 7.605469-9.019531 14.875-11.484375 11.875-4.027343 20.609375-17.851562 28.660156-26.84375 8.664063-9.683593 22.542969-20.617187 15.988281-35.113281-4.074218-9.015625-19.230468-23.835938-28.285156-13.542969-4.492188 5.105469-3.003906 13.691407-12.652344 13.492188-9.675781-.199219-14.59375-12.054688-12.917968-20.644531 2.457031-12.601563 15.894531-25.007813 27.882812-21.671876 5.488281 1.527344 10.964844 6.710938 16.59375 7.351563 9.800781 1.113281 13.472656-5.117187 7.765625-13.023437-7.171875-9.945313-31.566406-12.691407-29.136719-28.570313 1.023438-6.683594 32.035156-24.035156 20.152344-28.566406zm0 0"/><path d="m363.390625 64.585938c-8.441406 3-21.285156 5.320312-21.355469 16.699218-.066406 11.21875 18.148438 15.945313 22.878906 26.527344 2.984376 6.671875 4.074219 49.816406 19.960938 38.925781 5.480469-3.753906 9.117188-16.121093 15.316406-21.230469 5.6875-4.691406 12.945313-7.230468 17.589844-13.191406 6.746094-8.660156 10.679688-27 6.789062-37.296875-9.898437-26.195312-41.371093-14.257812-61.179687-10.433593zm0 0"/></g><path d="m64 325.007812c0-53.019531 42.980469-96 96-96s96 42.980469 96 96c0 53.019532-42.980469 96-96 96s-96-42.980468-96-96zm0 0" fill="#4dbaf6"/><path d="m104 325.007812c0-30.925781 25.070312-56 56-56s56 25.074219 56 56c0 30.929688-25.070312 56-56 56s-56-25.070312-56-56zm0 0" fill="#fff"/><path d="m110.78125 408.15625-59.808594 59.816406c-9.375 9.371094-24.570312 9.371094-33.941406 0-4.6875-4.6875-7.03125-10.828125-7.03125-16.972656 0-6.140625 2.34375-12.28125 7.027344-16.96875l59.8125-59.8125zm0 0" fill="#ff5d5d"/><path d="m444.925781 67.074219c-43.25-43.253907-100.757812-67.074219-161.925781-67.074219s-118.675781 23.820312-161.925781 67.074219c-43.253907 43.25-67.074219 100.757812-67.074219 161.925781 0 19.453125 2.449219 38.761719 7.269531 57.425781-4.691406 11.964844-7.269531 24.976563-7.269531 38.582031 0 16.84375 3.953125 32.777344 10.976562 46.933594l-55.019531 55.015625c-6.421875 6.421875-9.957031 14.960938-9.957031 24.042969 0 9.078125 3.535156 17.617188 9.957031 24.042969 6.628907 6.628906 15.335938 9.941406 24.042969 9.941406s17.414062-3.3125 24.042969-9.941406l55.011719-55.015625c14.160156 7.023437 30.097656 10.980468 46.945312 10.980468 4.566406 0 9.066406-.289062 13.484375-.851562 33.414063 18.21875 71.21875 27.84375 109.515625 27.84375 61.167969 0 118.675781-23.820312 161.925781-67.070312 43.253907-43.253907 67.074219-100.761719 67.074219-161.929688s-23.820312-118.675781-67.074219-161.925781zm-35.03125 39.09375c-1.757812 2.253906-4.628906 4.023437-7.957031 6.066406-2.53125 1.558594-5.398438 3.324219-8.109375 5.558594-4.523437 3.730469-7.566406 9.125-10.25 13.882812-.722656 1.28125-1.644531 2.914063-2.492187 4.277344-1.945313-5.503906-3.492188-15.171875-4.171876-19.40625-1.046874-6.542969-1.648437-10.085937-2.871093-12.816406-3.148438-7.039063-9.207031-11.574219-14.550781-15.574219-2.5-1.871094-7.148438-5.351562-7.457032-6.808594.011719-1.972656 2.519532-3.378906 10.730469-6.019531 1.121094-.359375 2.210937-.710937 3.25-1.066406 2.738281-.546875 5.582031-1.203125 8.574219-1.894531 24.347656-5.636719 35.988281-6.082032 40.625 6.1875 2.472656 6.542968-.363282 21.253906-5.320313 27.613281zm-365.996093 354.730469c-5.457032 5.460937-14.339844 5.460937-19.796876.003906-2.644531-2.648438-4.101562-6.164063-4.101562-9.902344s1.457031-7.253906 4.101562-9.898438l51.734376-51.734374c5.699218 7.4375 12.359374 14.097656 19.796874 19.800781zm30.101562-135.890626c0-47.417968 38.578125-86 86-86s86 38.582032 86 86c0 47.421876-38.578125 86-86 86s-86-38.578124-86-86zm209 112.992188c-27.625 0-54.953125-5.503906-80.25-16.003906 37.214844-16.46875 63.25-53.742188 63.25-96.988282 0-58.449218-47.550781-106-106-106-33.980469 0-64.273438 16.078126-83.683594 41.015626-1.523437-10.234376-2.316406-20.601563-2.316406-31.023438 0-115.242188 93.757812-209 209-209 38.804688 0 75.167969 10.644531 106.34375 29.144531-6.632812.820313-13.1875 2.328125-19.265625 3.734375-3.074219.710938-5.980469 1.386719-8.582031 1.886719-.496094.097656-.980469.226563-1.457032.394531-1.066406.382813-2.214843.75-3.394531 1.128906-8.5625 2.75-24.503906 7.875-24.609375 24.933594-.066406 11.3125 8.914063 18.035156 15.472656 22.941406 3.320313 2.488282 7.078126 5.300782 8.207032 7.574219.375 1.242188.996094 5.113281 1.449218 7.964844 2.949219 18.429687 6.0625 32.898437 16.859376 37.535156 1.417968.609375 3.515624 1.246094 6.097656 1.246094 2.945312 0 6.519531-.832031 10.40625-3.496094 4.664062-3.199219 7.617187-8.429687 10.46875-13.488281 1.738281-3.082031 3.902344-6.914062 5.558594-8.28125 1.640624-1.355469 3.691406-2.617188 5.863281-3.949219 4.347656-2.675781 9.273437-5.707031 13.25-10.808593 5.65625-7.261719 9.980469-19.78125 10.417969-31.589844 34.671874 37.324218 55.914062 87.289062 55.914062 142.128906 0 115.242188-93.757812 209-209 209zm0 0"/><path d="m368.640625 281.757812c-3.652344-1.910156-7.425781-3.886718-9.171875-5.710937-8.695312-9.078125-28.136719-23.90625-45.863281-21.859375-3.644531.417969-7.003907 1.511719-10.027344 3.226562l-16.699219-21.179687c-.761718-.96875-1.578125-1.882813-2.367187-2.769531-.457031-.515625-1.066407-1.195313-1.609375-1.847656.027344-.003907.050781-.011719.078125-.015626 2.109375-.371093 4.5-.796874 6.996093-1.640624 11.921876-4.046876 20.257813-14.296876 27.617188-23.34375 1.859375-2.289063 3.621094-4.449219 5.28125-6.304688 1.144531-1.28125 2.425781-2.621094 3.78125-4.042969 8.863281-9.28125 22.253906-23.308593 13.867188-41.855469-3.238282-7.167968-11.742188-17.46875-21.925782-21.355468.75.167968 1.519532.300781 2.308594.390625 8.800781 1.003906 15.894531-1.929688 19.472656-8.039063 3.558594-6.085937 2.660156-13.65625-2.46875-20.769531-4.042968-5.601563-10.308594-8.941406-16.371094-12.171875-7.335937-3.90625-10.292968-5.972656-10.898437-7.855469 1.578125-1.667969 4.710937-4.351562 6.921875-6.25 9.324219-7.996093 17.378906-14.902343 15.773438-24.140625-.800782-4.582031-4.011719-8.28125-8.828126-10.160156-18.214843-7.40625-32.269531-1.308594-45.859374 4.585938-1.238282.535156-2.484376 1.078124-3.753907 1.617187-5.039062 2.136719-10.300781 4.242187-15.394531 6.277344-10.542969 4.21875-21.445312 8.578125-31.832031 13.792969-11.089844 5.570312-17.875 12.367187-22.683594 22.726562-1.15625 2.496094-1.902344 4.515625-2.445313 5.992188-.1875.511718-.410156 1.109374-.578124 1.523437-.265626.148437-.710938.375-1.410157.675781-6.511719 2.816406-15.289062.816406-24.582031-1.300781-5.828125-1.328125-11.855469-2.699219-17.847656-2.964844-12.988282-.578125-24.355469 9.007813-28.3125 23.828125-4.113282 15.410156 1.292968 30.460938 13.152344 36.601563 7.464843 3.867187 24.183593.902343 24.34375.863281 3.609374-.832031 6.015624-3.058594 7.605468-4.535156.136719-.125.296875-.273438.457032-.417969 1.371093.132813 4.1875 1.054687 9.894531 4.554687 7.9375 4.871094 17.660156 16.253907 20.394531 23.886719.535156 1.488281.476562 4.59375.421875 7.335938-.058594 3.109375-.125 6.636719.5 10.113281 2.3125 12.863281 8.511719 17.246094 13.980469 21.109375 1.5 1.058594 3.050781 2.15625 4.65625 3.519531 3.648437 3.097656 6.625 8.019532 9.773437 13.226563 3.992188 6.59375 8.511719 14.0625 15.554688 19.410156 9.292969 7.050781 20.71875 11.789063 31.769531 16.371094 2.691406 1.117187 5.292969 2.199219 7.796875 3.285156-1.214844 3.785156-2.242187 7.363281-2.257813 7.425781-.273437 1.0625-.601562 1.964844-.984374 3.007813-1.203126 3.269531-2.695313 7.335937-1.621094 14.132812 1.226562 7.753907 7.382812 17.28125 10.464844 21.238281 1.691406 2.167969 3.78125 3.960938 5.804687 5.699219 1.058594.910157 2.800781 2.402344 3.363281 3.117188 2.402344 5.40625-1.316406 21.5-3.324218 30.1875-1.035157 4.476562-2.011719 8.699219-2.523438 12.160156-.339844 2.300781-.757812 4.621094-1.203125 7.078125-1.734375 9.589844-3.523437 19.503906-.707031 29.261719 2 6.925781 8.261718 11.59375 15.402344 11.59375.28125 0 .5625-.007813.84375-.019531 7.523437-.386719 13.714843-5.832032 15.054687-13.242188v-.003906c1.054687-5.839844 2.730469-10.585938 5.269531-14.933594 7.878906-13.492188 20.328125-31.726562 31.628906-42.441406 11.390626-10.796875 19.4375-23.714844 23.269532-37.355469 2.292968-8.164063.375-15.667969-5.546875-21.710937-4.101563-4.179688-9.339844-6.925782-14.402344-9.578126zm-53.4375-149.730468c-.53125-.121094-1.066406-.222656-1.605469-.300782-6.910156-1.035156-13.292968 1.332032-17.980468 6.65625-2.648438 3.015626-3.96875 6.335938-4.929688 8.757813-.152344.382813-.332031.832031-.5 1.238281-.253906-.117187-.582031-.355468-.988281-.863281-1.511719-1.871094-2.3125-5.28125-1.828125-7.765625.90625-4.640625 4.550781-9.746094 8.859375-12.410156 1.136719-.699219 3.132812-1.722656 5.140625-1.722656.464844 0 .933594.054687 1.386718.183593 1.21875.335938 3.132813 1.433594 4.984376 2.496094 2.167968 1.242187 4.660156 2.671875 7.460937 3.730469zm-35.710937 79.882812c-3.554688.628906-7.976563 1.410156-11.722657 4.292969-3.546875 2.730469-7.417969 7.980469-5.730469 17.511719.675782 3.820312 2.578126 6.976562 4.589844 9.574218-1.410156-.878906-2.746094-1.789062-3.996094-2.738281-4-3.035156-7.171874-8.277343-10.53125-13.828125-3.84375-6.351562-7.816406-12.914062-13.941406-18.117187-2.285156-1.941407-4.378906-3.421875-6.0625-4.609375-4.3125-3.046875-4.976562-3.515625-5.835937-8.316406-.277344-1.53125-.234375-3.792969-.1875-6.195313.082031-4.460937.179687-9.519531-1.589844-14.460937-4.757813-13.277344-18.367187-27.808594-28.769531-34.1875-4.480469-2.746094-12.253906-7.511719-20.800782-7.511719-1.449218 0-2.925781.136719-4.410156.445312-4.402344.914063-7.339844 3.59375-9.117187 5.242188-2.757813.320312-7.640625.527343-9.847657.269531-3.253906-2.335938-3.710937-8.4375-2.410156-13.304688.917969-3.4375 3.644532-9.1875 8.117188-9.003906 4.183594.183594 9.089844 1.300782 14.277344 2.480469 11.460937 2.613281 24.445312 5.570313 36.960937.160156 8.605469-3.71875 10.742187-8.003906 12.824219-13.648437.492187-1.339844 1-2.726563 1.816406-4.480469 2.933594-6.320313 6.347656-9.671875 13.519531-13.273437 9.625-4.832032 20.125-9.03125 30.28125-13.09375 5.1875-2.074219 10.550781-4.21875 15.785157-6.441407 1.316406-.558593 2.613281-1.121093 3.894531-1.675781 8.664062-3.757812 14.796875-6.246094 20.839843-6.328125-1.039062.914063-2.046874 1.777344-2.902343 2.511719-7.4375 6.378906-12.808594 10.984375-13.765625 17.226562-1.957032 12.796875 5.78125 20.3125 13.792968 25.414063-6.226562-.78125-12.796874.769531-18.847656 4.503906-9.109375 5.628906-15.996094 15.4375-17.980468 25.597656-1.605469 8.238281.703124 17.71875 5.890624 24.148438 4.265626 5.289062 10.175782 8.277343 16.636719 8.410156 13.375.273437 17.320313-9.703125 19.011719-13.964844.417969-1.058593.996094-2.515625 1.355469-2.921875.03125-.035156.058593-.066406.085937-.089844 2.542969.289063 9.164063 5.804688 11.578125 11.148438 2.402344 5.3125-.5625 9.808594-10.109375 19.808594-1.40625 1.472656-2.863281 2.996094-4.21875 4.515625-1.976562 2.207031-3.878906 4.546875-5.894531 7.023437-5.652344 6.949219-12.0625 14.828125-18.527344 17.019532-1.054687.355468-2.515625.613281-4.058593.886718zm89.835937 95.726563c-2.855469 10.167969-9 19.9375-17.769531 28.253906-14.320313 13.574219-27.609375 34.335937-33.332032 43.824219.207032-1.214844.410157-2.445313.589844-3.683594.394532-2.660156 1.28125-6.507812 2.222656-10.578125 3.480469-15.046875 7.421876-32.101563 1.6875-43.71875-1.914062-3.886719-5.246093-6.746094-8.1875-9.269531-1.09375-.941406-2.59375-2.226563-3.054687-2.816406-3.09375-3.964844-6.152344-9.949219-6.484375-12.066407-.261719-1.65625-.179688-1.890625.636719-4.109375.480469-1.296875 1.074219-2.917968 1.597656-4.984375.363281-1.410156 2.671875-8.691406 3.5-10.929687 1.789063-2.757813 3.605469-3.324219 5.160156-3.503906 7.777344-.894532 21.171875 7.519531 29.132813 15.824218 4.011718 4.1875 9.257812 6.9375 14.332031 9.597656 3.691406 1.933594 7.507813 3.933594 9.398437 5.859376.839844.855468.933594 1.015624.570313 2.300781zm0 0"/><path d="m160 279.007812.21875.003907h.097656c5.476563 0 9.945313-4.417969 9.996094-9.90625.050781-5.523438-4.382812-10.042969-9.90625-10.09375l-.40625-.003907c-5.523438 0-10 4.480469-10 10 0 5.523438 4.476562 10 10 10zm0 0"/><path d="m200.382812 272.800781c-4.371093-3.386719-10.648437-2.585937-14.03125 1.78125-3.382812 4.367188-2.582031 10.648438 1.785157 14.03125 11.351562 8.792969 17.863281 22.058594 17.863281 36.394531 0 25.363282-20.636719 46-46 46s-46-20.636718-46-46c0-13.039062 5.570312-25.519531 15.28125-34.238281 4.109375-3.691406 4.449219-10.011719.761719-14.121093-3.691407-4.113282-10.015625-4.449219-14.121094-.761719-13.933594 12.507812-21.921875 30.410156-21.921875 49.121093 0 36.394532 29.605469 66 66 66s66-29.605468 66-66c0-20.570312-9.339844-39.597656-25.617188-52.207031zm0 0"/><path d="m455.253906 255.703125c-5.398437-1.148437-10.714844 2.289063-11.863281 7.691406-5.945313 27.851563-19.199219 53.835938-38.332031 75.140625-3.691406 4.109375-3.351563 10.433594.757812 14.121094 1.910156 1.714844 4.296875 2.5625 6.679688 2.5625 2.738281 0 5.46875-1.121094 7.441406-3.320312 21.46875-23.902344 36.339844-53.0625 43.011719-84.328126 1.152343-5.402343-2.292969-10.714843-7.695313-11.867187zm0 0"/><path d="m457 219c-5.523438 0-10 4.476562-10 10v.472656c-.015625 5.523438 4.449219 10.011719 9.972656 10.027344h.027344c5.511719 0 9.984375-4.457031 10-9.96875v-.53125c0-5.523438-4.476562-10-10-10zm0 0"/></svg>