<svg id="Capa_1" enable-background="new 0 0 512 512" height="512" viewBox="0 0 512 512" width="512" xmlns="http://www.w3.org/2000/svg"><g><g><path d="m89.103 302.196c0 109.796 74.722 198.804 166.897 198.804v-376.5c-92.175 0-166.897 79.558-166.897 177.696z" fill="#ff8f71"/><path d="m256 124.5v376.5c92.175 0 166.897-89.008 166.897-198.804 0-98.138-74.722-177.696-166.897-177.696z" fill="#ffb39d"/></g><g><path d="m316.437 443.8c-11.149-14-26.969-24.063-45.052-27.753-4.974-1.015-10.119-1.548-15.385-1.548-24.412 0-46.22 11.449-60.436 29.3-10.669 13.397-17.063 30.398-17.063 48.88v11.82h77.499 77.5v-11.82c0-18.481-6.395-35.482-17.063-48.879z" fill="#b7bded"/><path d="m316.437 443.8c-11.149-14-26.969-24.063-45.052-27.753-4.974-1.015-10.119-1.548-15.385-1.548-24.412 0-46.22 11.449-60.436 29.3-10.669 13.397-17.063 30.398-17.063 48.88v11.82h77.499 77.5v-11.82c0-18.481-6.395-35.482-17.063-48.879z" fill="#8288cb"/><path d="m271.384 416.048c-4.974-1.015-10.118-1.548-15.385-1.548-24.412 0-46.22 11.449-60.436 29.3-10.669 13.397-17.063 30.398-17.063 48.88v11.82h30.795v-11.82c0-37.736 26.725-69.406 62.089-76.632z" fill="#676fb2"/><path d="m308.851 429.535-14.976-5.043h-37.875-37.875l-14.976 5.043c-9.292 3.129-11.716 15.142-4.365 21.629l29.981 26.458v3.263c0 5.038 2.707 9.687 7.087 12.174l20.148 11.441 20.148-11.44c4.381-2.488 7.087-7.137 7.087-12.174v-3.263l29.981-26.458c7.352-6.489 4.928-18.501-4.365-21.63z" fill="#676fb2"/><path d="m256 392.632-37.875 31.859c4.223 20.009 18.581 36.364 37.875 43.141 19.294-6.778 33.652-23.132 37.875-43.141z" fill="#ffcbbe"/></g><g><path d="m401 249.5h-290c-19.33 0-35 15.67-35 35s15.67 35 35 35h290c19.33 0 35-15.67 35-35s-15.67-35-35-35z" fill="#ffcbbe"/><g><path d="m280.148 141.513c-7.854-1.317-15.919-2.013-24.148-2.013-8.228 0-16.293.696-24.147 2.013-68.586 11.498-120.853 71.134-120.853 142.987s52.267 131.489 120.853 142.987c7.854 1.317 15.919 2.013 24.147 2.013s16.293-.696 24.148-2.013c68.585-11.499 120.852-71.134 120.852-142.987s-52.267-131.488-120.852-142.987z" fill="#ffddcf"/><path d="m159.099 284.702c0-71.98 52.361-131.723 121.049-143.189-7.854-1.317-15.919-2.013-24.148-2.013-8.228 0-16.293.696-24.147 2.013-68.586 11.498-120.853 71.134-120.853 142.987s52.267 131.489 120.853 142.987c7.854 1.317 15.919 2.013 24.147 2.013s16.293-.696 24.148-2.013c-68.688-11.466-121.049-70.807-121.049-142.785z" fill="#ffcbbe"/></g><g><g><g><g><ellipse cx="176" cy="331.5" fill="#ff8e9e" rx="29" ry="23"/></g><g><ellipse cx="336" cy="331.5" fill="#ff8e9e" rx="29" ry="23"/></g></g></g></g><path d="m414.875 247.61c-8.483-28.005-23.318-52.974-42.696-72.982-21.722-22.43-49.154-38.622-79.75-45.875-11.727-2.78-23.916-4.252-36.429-4.252-45.167 0-86.145 19.099-116.192 50.131-19.371 20.006-34.2 44.975-42.681 72.974l18.126 1.895c-2.777 11.205-4.253 22.925-4.253 34.999 16.469-.012 32.692-2.346 48.275-6.869 16.781-4.871 32.819-12.28 47.612-22.093 19.802-13.134 36.447-29.91 49.113-49.343 12.666 19.433 29.312 36.209 49.113 49.343 28.53 18.924 61.684 28.936 95.887 28.961 0-12.074-1.476-23.794-4.253-34.998z" fill="#ffb39d"/><path d="m261.187 146.013c11.496-3.565 22.076-9.518 31.242-17.26-11.727-2.78-23.916-4.252-36.429-4.252-45.167 0-86.145 19.099-116.192 50.131-19.371 20.006-34.2 44.975-42.681 72.974l18.126 1.895c-2.777 11.205-4.253 22.925-4.253 34.999 16.469-.012 32.692-2.346 48.275-6.869 2.977-62.087 44.929-113.947 101.912-131.618z" fill="#ff8f71"/></g><path d="m139.822 110.226-.014 64.405c71.561 42.089 160.81 42.084 232.371-.005v-64.401h-232.357z" fill="#676fb2"/><g><path d="m416.831 72.395-143.123-61.264c-5.654-2.421-11.681-3.631-17.708-3.631-2.251 0-4.503.169-6.735.507-3.743.566-7.431 1.607-10.973 3.124l-143.123 61.264c-18.195 7.788-18.195 33.581 0 41.369l143.123 61.264c5.655 2.42 11.681 3.63 17.708 3.63s12.054-1.21 17.708-3.63l143.123-61.264c18.195-7.788 18.195-33.581 0-41.369z" fill="#8288cb"/><path d="m249.265 8.007c-3.743.566-7.431 1.607-10.973 3.124l-143.123 61.264c-18.195 7.788-18.195 33.581 0 41.369l143.123 61.264c5.655 2.42 11.681 3.63 17.708 3.63s12.054-1.21 17.708-3.63c-42.512-45.149-60.65-118.793-24.443-167.021z" fill="#676fb2"/></g><circle cx="97.127" cy="160.229" fill="#ffce71" r="20"/><g><path d="m193.551 290c-4.142 0-7.5 3.358-7.5 7.5v12c0 4.142 3.358 7.5 7.5 7.5s7.5-3.358 7.5-7.5v-12c0-4.142-3.358-7.5-7.5-7.5z"/><path d="m318.449 290c-4.142 0-7.5 3.358-7.5 7.5v12c0 4.142 3.358 7.5 7.5 7.5s7.5-3.358 7.5-7.5v-12c0-4.142-3.358-7.5-7.5-7.5z"/><path d="m277.392 302.986c-3.122-2.722-7.86-2.397-10.582.726-2.73 3.132-6.67 4.928-10.811 4.928s-8.081-1.796-10.811-4.928c-2.721-3.123-7.46-3.448-10.582-.726-3.123 2.722-3.448 7.459-.726 10.582 5.579 6.401 13.641 10.073 22.118 10.073s16.539-3.671 22.118-10.073c2.724-3.123 2.399-7.86-.724-10.582z"/><path d="m422.364 247.889c.123-3.315-11.175-42.549-42.686-76.23v-33.834l40.104-17.167c24.29-10.399 24.246-44.782-.001-55.158l-143.121-61.264c-6.565-2.811-13.516-4.236-20.66-4.236s-14.095 1.425-20.659 4.236l-77.009 32.964c-3.808 1.63-5.574 6.038-3.944 9.846 1.63 3.809 6.039 5.576 9.846 3.943l77.01-32.964c4.689-2.007 9.653-3.025 14.756-3.025s10.067 1.018 14.757 3.025l143.123 61.265c12.176 5.21 12.166 22.37 0 27.578l-143.124 61.265c-9.174 3.929-19.822 4.147-29.513-.001l-143.122-61.264c-12.174-5.209-12.166-22.369 0-27.579l38.534-16.494c3.808-1.63 5.574-6.038 3.944-9.846-1.63-3.809-6.04-5.576-9.846-3.943l-38.535 16.494c-23.255 9.956-24.348 42.118-2.591 53.889v14.388c-11.528 3.273-20 13.889-20 26.452 0 15.163 12.336 27.5 27.5 27.5s27.5-12.337 27.5-27.5c0-12.563-8.472-23.178-20-26.452v-7.807l27.689 11.853-.008 33.84c-29.413 31.443-42.783 70.96-42.678 76.098-13.106 7.601-21.13 21.419-21.13 36.739 0 12.229 5.195 23.268 13.491 31.028 3.79 69.92 37.782 133.284 89.597 167.237-.378 3.289-.587 6.605-.587 9.915v11.82c0 4.143 3.358 7.5 7.5 7.5h155c4.143 0 7.5-3.357 7.5-7.5v-11.82c0-3.304-.209-6.615-.586-9.899 10.092-6.613 19.648-14.426 28.456-23.278 2.922-2.937 2.91-7.685-.026-10.606-2.938-2.922-7.688-2.91-10.606.026-6.644 6.677-13.745 12.693-21.189 17.985-2.709-8.6-6.778-16.779-12.036-24.15.439-7.286-3.063-14.134-9.116-18.064 43.497-18.559 74.338-55.463 86.599-97.719 4.104-.143 8.058-.878 11.789-2.108-3.688 37.824-16.521 72.89-37.479 102.086-2.415 3.365-1.646 8.052 1.719 10.467 3.378 2.422 8.058 1.637 10.467-1.719 24.499-34.129 38.651-75.624 41.039-120.188 8.285-7.76 13.47-18.791 13.47-31.011-.002-14.35-7.197-28.81-21.138-36.613zm-312.737-87.66c0 6.893-5.607 12.5-12.5 12.5s-12.5-5.607-12.5-12.5 5.607-12.5 12.5-12.5 12.5 5.607 12.5 12.5zm37.688-15.987 88.026 37.68c12.873 5.51 27.784 5.798 41.319 0l88.019-37.676v26.043c-65.516 36.838-148.206 38.896-217.37.005zm-6.064 39.84c30.849 17.092 65.227 27.058 100.491 29.178-28.613 36.728-73.203 61.188-123.02 63.532.478-8.621 1.748-17.166 3.811-25.488.555-2.238.048-4.608-1.373-6.426-2.255-2.882-5.103-2.874-7.174-2.884-2.095-.017-4.497-.03-7.181.222 7.622-21.57 19.391-41.45 34.446-58.134zm-57.751 100.418c0-13.817 10.027-24.792 22.391-27.028-1.589 8.888-2.391 17.941-2.391 27.028v.004.001s0 .001 0 .001c0 9.076.805 18.126 2.396 27.019-12.733-2.399-22.396-13.605-22.396-27.025zm91.452 182.408c-42.706-30.355-71.364-83.106-77.222-142.039 3.727 1.229 7.676 1.962 11.775 2.104 12.276 42.305 43.14 79.178 86.599 97.719-6.052 3.931-9.554 10.778-9.115 18.063-5.26 7.373-9.328 15.553-12.037 24.153zm11.048 30.092v-4.32c0-4.136.36-8.289 1.071-12.346 1.375-7.847 4.114-15.45 8.03-22.417l26.164 23.091c.035 6.176 2.742 11.983 7.278 15.992zm89.735-19.377v3.262c0 2.334-1.261 4.5-3.291 5.653l-16.444 9.337-16.444-9.338c-2.03-1.152-3.291-3.318-3.291-5.652v-3.262c0-2.151-.924-4.199-2.537-5.623l-29.981-26.459c-3.022-2.668-2.052-7.602 1.796-8.898l7.504-2.527c6.574 18.761 21.5 33.93 40.468 40.594 1.609.565 3.36.566 4.972 0 18.968-6.664 33.893-21.833 40.468-40.594l7.505 2.527c3.844 1.296 4.822 6.228 1.795 8.898l-29.983 26.459c-1.612 1.424-2.537 3.472-2.537 5.623zm-46.243-42.977c17.266 3.07 34.999 3.204 53.017 0-5.445 11.165-14.879 20.168-26.508 24.962-11.631-4.793-21.064-13.796-26.509-24.962zm87.407 23.271c3.917 6.967 6.655 14.57 8.03 22.417.711 4.058 1.071 8.211 1.071 12.347v4.319h-42.542c4.535-4.009 7.242-9.816 7.277-15.992zm-60.899-35.917c-73.464 0-133.446-57.22-137.295-130.187 55.844-2.406 105.98-30.379 137.295-72.502 31.134 41.88 81.181 70.105 137.295 72.513-3.862 73.075-63.955 130.176-137.295 130.176zm142.165-180c-4.873 0-8.45 4.582-7.28 9.304 2.016 8.134 2.476 16.838 2.582 25.5-49.922-2.286-94.6-26.82-123.21-63.545 35.256-2.123 69.631-12.09 100.479-29.181 15.115 16.746 26.918 36.708 34.539 58.365-2.275-.283-4.639-.443-7.11-.443zm7.939 69.525c1.591-8.891 2.395-17.942 2.396-27.02v-.001s0 0 0-.001 0-.003 0-.005c0-8.296 0-17.393-1.155-26.456 14.469 3.516 21.155 15.343 21.155 26.458 0 13.42-9.662 24.625-22.396 27.025z"/></g></g></svg>