<svg id="Capa_1" enable-background="new 0 0 512 512" height="512" viewBox="0 0 512 512" width="512" xmlns="http://www.w3.org/2000/svg"><g><g><path d="m415.5 45.5h-319c-3.866 0-7-3.134-7-7v-24c0-3.866 3.134-7 7-7h319c3.866 0 7 3.134 7 7v24c0 3.866-3.134 7-7 7z" fill="#8b818e"/><path d="m415.5 7.5h-30c3.866 0 7 3.134 7 7v24c0 3.866-3.134 7-7 7h30c3.866 0 7-3.134 7-7v-24c0-3.866-3.134-7-7-7z" fill="#756e78"/><path d="m415.5 504.5h-319c-3.866 0-7-3.134-7-7v-24c0-3.866 3.134-7 7-7h319c3.866 0 7 3.134 7 7v24c0 3.866-3.134 7-7 7z" fill="#8b818e"/><path d="m415.5 466.5h-30c3.866 0 7 3.134 7 7v24c0 3.866-3.134 7-7 7h30c3.866 0 7-3.134 7-7v-24c0-3.866-3.134-7-7-7z" fill="#756e78"/><path d="m120.118 120.118v-74.618h271.764v74.618c0 75.046-60.836 135.882-135.882 135.882-75.046 0-135.882-60.836-135.882-135.882z" fill="#ecf5ff"/><path d="m361.882 45.5v74.618c0 69.975-52.896 127.587-120.882 135.054 4.927.541 9.929.828 15 .828 75.046 0 135.882-60.836 135.882-135.882v-74.618z" fill="#dceafc"/><path d="m391.882 391.882v74.618h-271.764v-74.618c0-75.045 60.836-135.882 135.882-135.882 75.046 0 135.882 60.837 135.882 135.882z" fill="#ecf5ff"/><path d="m256 256c-5.071 0-10.073.287-15 .828 67.986 7.467 120.882 65.079 120.882 135.054v74.618h30v-74.618c0-75.046-60.836-135.882-135.882-135.882z" fill="#dceafc"/><path d="m120.118 466.5 119.071-80.559c10.154-6.87 23.467-6.87 33.622 0l119.071 80.559z" fill="#f3d9a6"/><ellipse cx="256" cy="150.75" fill="#9dc6fb" rx="73.845" ry="73.845" transform="matrix(.999 -.055 .055 .999 -7.953 14.403)"/><path d="m256 76.905c-5.14 0-10.156.528-15 1.527 33.591 6.931 58.845 36.674 58.845 72.318s-25.254 65.386-58.845 72.318c4.844 1 9.86 1.527 15 1.527 40.783 0 73.845-33.062 73.845-73.845s-33.062-73.845-73.845-73.845z" fill="#80b4fb"/><path d="m328.765 138.222c-5.953-34.813-36.254-61.317-72.765-61.317-5.328 0-10.519.577-15.526 1.649 1.473 5.931 2.976 12.897 4.33 21.116 2.213 13.441 3.141 24.839 9.546 26.901 6.238 2.009 11.308-6.886 19.959-5.207 7.259 1.409 8.276 8.561 14.753 13.884 8.784 7.223 25.31 9.186 39.703 2.974z" fill="#b3e59f"/><path d="m328.765 138.222c-6.885-39.261-44.474-68.368-87.71-59.777 30.233 6.263 53.692 31.008 58.052 61.893 8.729 2.562 19.702 2.181 29.658-2.116z" fill="#95d6a4"/><path d="m212.818 126.232c-2.316-7.474-8.668-14.43-16.415-19.071-8.952 12.218-14.248 27.282-14.248 43.589 0 19.652 7.692 37.498 20.21 50.729 9.263-6.158 15.902-16.072 16.531-24.962.418-5.913-2.167-6.473-4.42-18.235-3.374-17.612 1.155-22.971-1.658-32.05z" fill="#b3e59f"/><path d="m230.951 220.23c7.822 2.82 16.254 4.365 25.049 4.365 21.814 0 41.412-9.464 54.93-24.504-4.936-7.319-12.381-14.118-16.591-17.959-5.835-5.324-19.745-18.015-28.324-13.904-6.707 3.215-3.431 13.479-9.27 26.779-6.076 13.843-17.521 20.72-25.794 25.223z" fill="#b3e59f"/><path d="m261.2 224.392c17.023-.915 36.542-9.409 49.73-24.301-4.917-7.203-12.697-14.484-17.64-18.914-9.599 21.192-28.903 37.049-52.25 41.881 1.776.356 10.546 2.144 20.16 1.334z" fill="#95d6a4"/></g><path d="m256 316.978c-4.142 0-7.5 3.358-7.5 7.5v18.446c0 4.142 3.358 7.5 7.5 7.5s7.5-3.358 7.5-7.5v-18.446c0-4.143-3.358-7.5-7.5-7.5zm-46.166 116.348c-4.142 0-7.5 3.358-7.5 7.5s3.358 7.5 7.5 7.5 7.5-3.358 7.5-7.5-3.358-7.5-7.5-7.5zm28.187-21.716c-4.142 0-7.5 3.358-7.5 7.5s3.358 7.5 7.5 7.5 7.5-3.358 7.5-7.5-3.358-7.5-7.5-7.5zm63.56-106.899c16.532 8.682 30.226 21.818 39.602 37.988 2.099 3.62 6.719 4.774 10.25 2.727 3.583-2.078 4.804-6.667 2.727-10.25-10.795-18.62-26.565-33.747-45.604-43.745-3.67-1.927-8.202-.515-10.127 3.153-1.928 3.667-.516 8.201 3.152 10.127zm97.801-184.593v-67.118h16.118c7.995 0 14.5-6.505 14.5-14.5v-24c0-7.995-6.505-14.5-14.5-14.5h-319c-7.995 0-14.5 6.505-14.5 14.5v24c0 7.995 6.505 14.5 14.5 14.5h16.118v67.118c0 63.054 40.913 116.731 97.586 135.882-56.673 19.151-97.586 72.828-97.586 135.882v67.118h-16.118c-7.995 0-14.5 6.505-14.5 14.5v24c0 7.995 6.505 14.5 14.5 14.5h319c7.995 0 14.5-6.505 14.5-14.5v-24c0-7.995-6.505-14.5-14.5-14.5h-16.118v-67.118c0-63.054-40.913-116.731-97.586-135.882 56.673-19.151 97.586-72.828 97.586-135.882zm15.618 353.882v23h-318v-23zm-30.618-82.118v60.489l-41.233-27.896c-3.431-2.321-8.093-1.421-10.415 2.009-2.321 3.431-1.421 8.093 2.009 10.415l32.67 22.101h-222.826l98.804-66.847c7.659-5.182 17.558-5.182 25.217 0l41.492 28.072c3.43 2.322 8.094 1.422 10.415-2.009s1.421-8.093-2.009-10.415l-41.492-28.072c-12.766-8.637-29.262-8.636-42.027 0l-107.369 72.641v-60.489c0-68.272 53.57-124.26 120.882-128.157v32.659c0 4.142 3.358 7.5 7.5 7.5s7.5-3.358 7.5-7.5v-32.659c67.312 3.898 120.882 59.886 120.882 128.158zm-128.382-143.382c-70.79 0-128.382-57.592-128.382-128.382v-67.118h34.537c4.142 0 7.5-3.358 7.5-7.5s-3.358-7.5-7.5-7.5h-65.155v-23h318v23h-217.729c-4.142 0-7.5 3.358-7.5 7.5s3.358 7.5 7.5 7.5h187.112v67.118c-.001 70.79-57.593 128.382-128.383 128.382zm0-179.095c-43.84 0-81.345 37.695-81.345 81.345 0 44.378 37.752 81.345 81.345 81.345 44.406 0 81.345-36.836 81.345-81.345 0-44.262-36.022-81.345-81.345-81.345zm0 15c30.538 0 56.308 20.746 63.996 48.88-10.721 2.707-21.034.393-26.172-3.83-1.796-1.476-3.112-3.319-4.505-5.27-2.788-3.903-6.257-8.761-13.581-10.183-7.221-1.4-12.748 1.72-16.404 3.786-.812.459-1.944 1.099-2.681 1.41-1.567-2.355-2.822-10.403-3.671-15.854-.963-6.182-2.1-12.647-3.393-18.624 2.11-.203 4.248-.315 6.411-.315zm-44.585 91.582c-.342 4.836-3.464 10.48-8.075 15.053-8.574-11.179-13.685-25.146-13.685-40.29 0-11.942 3.188-23.147 8.733-32.837 3.558 3.224 6.144 6.919 7.266 10.54.875 2.824.691 5.141.387 8.979-.395 4.98-.935 11.801 1.068 22.26 1.189 6.206 2.477 9.65 3.417 12.165.842 2.247.993 2.652.889 4.13zm44.585 41.108c-2.166 0-4.306-.112-6.42-.316 5.232-4.534 10.449-10.592 14.033-18.757 2.958-6.736 3.895-12.834 4.58-17.287.317-2.066.746-4.849 1.215-5.798.912-.253 5.45-.426 19.876 12.736 2.887 2.634 7.644 6.975 11.716 11.77-11.834 10.946-27.646 17.652-45 17.652zm54.892-29.126c-4.247-4.756-8.671-8.798-11.497-11.377-7.622-6.954-23.481-21.422-36.62-15.128-7.335 3.515-8.436 10.675-9.408 16.991-.62 4.033-1.323 8.604-3.489 13.537-4.222 9.618-11.674 15.397-19.497 19.952-6.057-2.545-11.659-5.962-16.648-10.096 7.284-7.154 12.039-16.241 12.644-24.804.334-4.734-.751-7.636-1.801-10.443-.795-2.125-1.784-4.771-2.734-9.731-1.623-8.471-1.211-13.668-.848-18.254.352-4.438.715-9.028-1.012-14.604-2.055-6.631-6.539-13.006-12.693-18.245 7.484-8.098 16.956-14.322 27.632-17.91 1.235 5.704 2.319 11.894 3.239 17.796 2.076 13.323 3.869 24.828 13.89 28.056 6.112 1.968 11.055-.824 14.664-2.864 3.037-1.716 4.54-2.435 6.166-2.119 1.235.239 1.868.864 4.232 4.175 1.72 2.409 3.861 5.406 7.187 8.14 6.756 5.554 16.255 8.427 26.265 8.427 3.872 0 7.82-.446 11.716-1.317.557 14.469-3.701 28.569-11.388 39.818z"/></g></svg>