<svg id="_x33_0" enable-background="new 0 0 64 64" height="512" viewBox="0 0 64 64" width="512" xmlns="http://www.w3.org/2000/svg"><g><g><g><path d="m50 57h-8v-14.37-.63-22h-4l12-18 12 18h-4v37z" fill="#ffeaa7"/></g><g><path d="m28 16v4h-12v-4h4z" fill="#e6e9ed"/></g><g><path d="m32 7-.02.1c-.64 3.22-2.01 6.27-3.98 8.9h-8l-.1-.31c-1.03-3.07-1.64-6.26-1.83-9.48-.05-.74-.07-1.47-.07-2.21h3.17c1.91 0 3.79.26 5.62.76 1.82.51 3.57 1.26 5.21 2.24z" fill="#d3a06c"/></g><g><path d="m19.9 15.69.1.31h-4l-.08-.08c-1.91-1.91-3.27-4.3-3.92-6.92 0 0 2.81-2.1 6.07-2.79.19 3.22.8 6.41 1.83 9.48z" fill="#cf9e76"/></g><g><path d="m36.79 29.42c3.35 3.59 5.21 8.31 5.21 13.21 0 5.35-2.17 10.19-5.67 13.7-3.51 3.5-8.35 5.67-13.7 5.67h-1.26c-10.7 0-19.37-8.67-19.37-19.37 0-2.45.46-4.85 1.35-7.1.88-2.24 2.19-4.31 3.86-6.11l8.79-9.42h12z" fill="#cf9e76"/></g><g><path d="m22 42 12.13 7c-2.42 4.19-6.95 7-12.13 7s-9.7-2.81-12.12-7z" fill="#b4dd7f"/></g><g><path d="m22 28v14l-12.12 7c-1.2-2.06-1.88-4.45-1.88-7 0-7.73 6.27-14 14-14z" fill="#fcd770"/></g><g><path d="m38 42c0 2.91-.78 5.65-2.14 8l-1.73-1-12.13-7v-14-2c8.84 0 16 7.16 16 16z" fill="#ff826e"/></g></g><g><path d="m22 25h-1v2.051c-7.805.518-14 7.015-14 14.949 0 8.271 6.729 15 15 15 5.004 0 9.691-2.525 12.462-6.651l1.761 1.017.5-.864c1.49-2.572 2.277-5.513 2.277-8.502 0-9.374-7.626-17-17-17zm-1 4.051v12.372l-10.711 6.184c-.817-1.701-1.289-3.598-1.289-5.607 0-6.83 5.299-12.435 12-12.949zm1 25.949c-4.444 0-8.372-2.245-10.717-5.657l10.717-6.188 10.722 6.19c-2.411 3.51-6.431 5.655-10.722 5.655zm13.464-6.382-12.464-7.195v-14.39c7.807.517 14 7.032 14 14.967 0 2.303-.528 4.57-1.536 6.618z"/><path d="m51 27.101v-4.101h-2v4h-4v5c0 2.757 2.243 5 5 5 1.654 0 3 1.346 3 3v3h-3c-1.654 0-3-1.346-3-3v-3h-2v3c0 2.414 1.721 4.434 4 4.899v4.101h2v-4h4v-5c0-2.757-2.243-5-5-5-1.654 0-3-1.346-3-3v-3h3c1.654 0 3 1.346 3 3v3h2v-3c0-2.414-1.721-4.434-4-4.899z"/><path d="m50 .197-13.868 20.803h4.868v12.86c-.887-1.854-2.044-3.587-3.478-5.122l-8.522-9.133v-3.289c1.942-2.674 3.313-5.786 3.98-9.118l.14-.692-.605-.363c-3.427-2.056-7.35-3.143-11.346-3.143h-4.169v1c0 .481.011.961.029 1.441-3.063.856-5.517 2.675-5.629 2.759l-.531.398.161.644c.673 2.694 2.047 5.159 3.97 7.157v3.206l-8.522 9.132c-3.533 3.784-5.478 8.72-5.478 13.897 0 11.229 9.137 20.366 20.366 20.366h1.268c8.098 0 15.086-4.763 18.366-11.624v5.624h2v-38h-3.132l10.132-15.197 10.132 15.197h-3.132v38h2v-36h4.868zm-28.831 4.803c3.396 0 6.735.863 9.701 2.503-.622 2.688-1.799 5.252-3.401 7.497h-6.733c-1.042-3.243-1.628-6.598-1.722-10zm5.831 12v2h-10v-2zm-9.834-9.51c.234 2.545.725 5.057 1.469 7.51h-2.197c-1.517-1.579-2.65-3.486-3.284-5.578.773-.502 2.28-1.382 4.012-1.932zm5.468 53.51h-1.268c-10.127 0-18.366-8.239-18.366-18.366 0-4.669 1.754-9.119 4.94-12.531l8.495-9.103h11.13l8.495 9.103c3.186 3.412 4.94 7.862 4.94 12.531 0 10.127-8.239 18.366-18.366 18.366z"/><path d="m49 51h2v2h-2z"/><path d="m49 55h2v2h-2z"/></g></g></svg>