<svg id="Capa_1" enable-background="new 0 0 512 512" height="512" viewBox="0 0 512 512" width="512" xmlns="http://www.w3.org/2000/svg"><g><g><g><g><g><g><g><g><g><g><g><path d="m453.317 24.694h-394.634c-28.268 0-51.183 22.915-51.183 51.183v245.51c0 28.268 22.915 51.183 51.183 51.183h111.569c6.634 0 12.765 3.534 16.09 9.275l56.788 98.044c5.729 9.891 20.01 9.891 25.739 0l56.788-98.044c3.325-5.74 9.456-9.275 16.09-9.275h111.569c28.268 0 51.183-22.915 51.183-51.183v-245.51c.001-28.268-22.914-51.183-51.182-51.183z" fill="#e28086"/></g></g></g></g></g><g fill="#dd636e"><path d="m262.701 381.844-38.179 65.916 18.609 32.128c5.729 9.891 20.01 9.891 25.739 0l56.788-98.044c3.325-5.741 9.456-9.275 16.09-9.275h-62.956c-6.634 0-12.766 3.534-16.091 9.275z"/><path d="m453.317 24.694h-62.956c28.268 0 51.183 22.915 51.183 51.183v245.51c0 28.268-22.915 51.183-51.183 51.183h62.956c28.268 0 51.183-22.915 51.183-51.183v-245.51c0-28.268-22.915-51.183-51.183-51.183z"/></g></g></g></g></g><g><g><path d="m433.335 295.11h-354.67c-12.518 0-22.665-10.148-22.665-22.665v-140.743c0-12.518 10.147-22.665 22.665-22.665h354.67c12.518 0 22.665 10.147 22.665 22.665v140.742c0 12.518-10.147 22.666-22.665 22.666z" fill="#f0f7ff"/><path d="m441.544 110.577v182.993c8.458-3.289 14.456-11.505 14.456-21.126v-140.742c0-9.621-5.998-17.836-14.456-21.125z" fill="#e0f2ff"/></g><g><path d="m149.797 246.312c-.014 0-.029 0-.043 0-8.616.048-21.029.094-28.754.086v-96.152c0-4.142-3.358-7.5-7.5-7.5s-7.5 3.358-7.5 7.5v103.565c0 3.653 2.632 6.775 6.233 7.392 2.136.367 35.101.122 37.604.108 4.142-.023 7.481-3.4 7.458-7.542-.022-4.126-3.376-7.457-7.498-7.457z"/><path d="m195.67 142.747c-4.142 0-7.5 3.358-7.5 7.5v103.653c0 4.142 3.358 7.5 7.5 7.5s7.5-3.358 7.5-7.5v-103.653c0-4.142-3.358-7.5-7.5-7.5z"/><path d="m398.5 158.22c4.143 0 7.5-3.358 7.5-7.5s-3.357-7.5-7.5-7.5h-43.276c-4.143 0-7.5 3.358-7.5 7.5v102.707c0 4.142 3.357 7.5 7.5 7.5h43.276c4.143 0 7.5-3.358 7.5-7.5s-3.357-7.5-7.5-7.5h-35.776v-36.353h32.586c4.143 0 7.5-3.358 7.5-7.5s-3.357-7.5-7.5-7.5h-32.586v-36.354z"/><path d="m314.7 143.32c-3.927-1.307-8.176.821-9.481 4.753l-29.049 87.44-30.45-87.726c-1.358-3.914-5.633-5.983-9.545-4.626-3.913 1.358-5.984 5.632-4.626 9.545l35.457 102.146c1.393 3.923 5.113 6.547 9.271 6.547h.066c4.186-.028 7.902-2.709 9.266-6.722l33.844-101.876c1.307-3.93-.822-8.175-4.753-9.481z"/><path d="m433.335 101.537h-354.67c-16.633 0-30.165 13.532-30.165 30.165v140.743c0 16.633 13.532 30.165 30.165 30.165h354.67c16.633 0 30.165-13.532 30.165-30.165v-140.743c0-16.633-13.532-30.165-30.165-30.165zm15.165 170.908c0 8.362-6.803 15.165-15.165 15.165h-354.67c-8.362 0-15.165-6.803-15.165-15.165v-140.743c0-8.362 6.803-15.165 15.165-15.165h354.67c8.362 0 15.165 6.803 15.165 15.165z"/></g></g></g><g><path d="m504.5 307.787c-4.143 0-7.5 3.358-7.5 7.5v6.098c0 24.087-19.596 43.683-43.683 43.683h-111.569c-9.278 0-17.931 4.987-22.581 13.016l-56.788 98.044c-2.843 4.909-9.919 4.901-12.758 0l-56.788-98.044c-4.65-8.028-13.302-13.016-22.58-13.016h-111.57c-24.087 0-43.683-19.596-43.683-43.683v-245.51c0-24.086 19.596-43.683 43.683-43.683h6.359c4.142 0 7.5-3.358 7.5-7.5s-3.358-7.5-7.5-7.5h-6.359c-32.358 0-58.683 26.325-58.683 58.683v245.51c0 32.358 26.325 58.683 58.683 58.683h111.569c3.944 0 7.623 2.121 9.601 5.534l56.788 98.043c8.614 14.872 30.093 14.893 38.719 0l56.788-98.044c1.977-3.414 5.655-5.534 9.601-5.534h111.569c32.357 0 58.683-26.325 58.683-58.683v-6.098c-.001-4.141-3.358-7.499-7.501-7.499z"/><path d="m453.317 17.192h-353.212c-4.142 0-7.5 3.358-7.5 7.5s3.358 7.5 7.5 7.5h353.212c24.087 0 43.683 19.596 43.683 43.683v205.328c0 4.142 3.357 7.5 7.5 7.5s7.5-3.358 7.5-7.5v-205.328c0-32.358-26.325-58.683-58.683-58.683z"/></g></g></svg>