<svg id="Capa_1" enable-background="new 0 0 512 512" height="512" viewBox="0 0 512 512" width="512" xmlns="http://www.w3.org/2000/svg"><g><g><path d="m139.327 369.263 78.079 135.237 40.571-23.424-31.725-77.852 11.227-30.524-26.026-45.079z" fill="#86a0af"/></g><g><path d="m138.953 347.048h83.284v20.821h-83.284z" fill="#738b95" transform="matrix(.866 -.5 .5 .866 -154.534 138.188)"/></g><g><path d="m421.699 172.449-25.014 24.187-62.463-108.19 33.454-9.57c4.593-1.314 9.49.667 11.879 4.804l43.924 76.079c2.388 4.137 1.654 9.369-1.78 12.69z" fill="#86a0af"/></g><g><path d="m352.792 83.134-18.57 5.312 62.463 108.189 13.886-13.426z" fill="#738b95"/></g><g><path d="m95.762 358.352-16.228 9.369c-6.971 4.025-15.885 1.636-19.909-5.335l-37.478-64.914c-4.025-6.971-1.636-15.885 5.335-19.909l16.228-9.369z" fill="#86a0af"/></g><g><path d="m136.283 178.684 83.284 144.253 182.697-33.354-145.748-252.442z" fill="#f1f4f6"/></g><g><path d="m240.771 55.676 137.568 238.275 23.925-4.368-145.748-252.442z" fill="#d0e2e7"/></g><g><path d="m43.709 268.195 52.053 90.158c8.624 14.938 27.725 20.056 42.663 11.432l81.142-46.847-83.284-144.253-81.142 46.847c-14.938 8.624-20.056 27.725-11.432 42.663z" fill="#dd636e"/></g><g><path d="m119.273 345.98c-7.959 4.595-16.287 7.97-24.766 10.197l1.256 2.175c8.624 14.938 27.725 20.056 42.663 11.432l81.142-46.847-55.108-95.451c14.665 44.284-3.202 94.254-45.187 118.494z" fill="#da4a54"/></g><g><path d="m436.598 286.589-18.031 10.411c-4.979 2.875-11.346 1.169-14.221-3.811l-149.912-259.654c-2.875-4.979-1.169-11.346 3.811-14.221l18.032-10.411c4.979-2.875 11.346-1.169 14.221 3.811l149.912 259.655c2.874 4.978 1.168 11.345-3.812 14.22z" fill="#dd636e"/></g><g><path d="m268.162 13.588 145.227 251.54c2.875 4.979 1.169 11.346-3.811 14.221l-9.917 5.726 4.685 8.114c2.875 4.979 9.242 6.685 14.221 3.811l18.032-10.411c4.979-2.875 6.685-9.242 3.811-14.221l-149.913-259.655c-2.875-4.979-9.242-6.685-14.221-3.811z" fill="#da4a54"/></g><g><path d="m406.108 197.957 20.805-20.116c5.918-5.723 7.177-14.7 3.061-21.831l-43.924-76.079c-4.116-7.131-12.519-10.53-20.437-8.266l-27.824 7.959-13.989-24.228c-2.071-3.587-6.658-4.817-10.245-2.745-3.587 2.071-4.816 6.658-2.745 10.245l123.103 213.221c.803 1.39.325 3.174-1.065 3.977l-18.031 10.41c-1.391.802-3.174.325-3.977-1.065l-149.911-259.654c-.524-.909-.407-1.774-.291-2.208.117-.435.448-1.243 1.356-1.768l18.031-10.411c.908-.525 1.773-.408 2.208-.291s1.243.448 1.768 1.356l9.245 16.013c2.071 3.588 6.66 4.817 10.245 2.745 3.587-2.071 4.816-6.658 2.745-10.245l-9.245-16.013c-2.392-4.143-6.254-7.107-10.875-8.345-4.622-1.239-9.448-.603-13.591 1.79l-18.031 10.411c-4.143 2.392-7.107 6.254-8.345 10.875-1.139 4.25-.673 8.668 1.267 12.575l-116.01 136.57-80.017 46.198c-16.273 9.395-23.145 28.897-17.29 46.045l-10.37 5.987c-10.541 6.086-14.165 19.613-8.08 30.154l37.478 64.914c2.948 5.106 7.708 8.759 13.404 10.285 1.901.51 3.831.762 5.748.762 3.825 0 7.6-1.003 11.002-2.967l10.373-5.989c7.466 8.544 18.22 13.233 29.218 13.233 4.508 0 9.051-.808 13.427-2.437l9.25 16.021c1.389 2.406 3.91 3.751 6.502 3.751 1.272 0 2.562-.324 3.743-1.006 3.587-2.071 4.816-6.658 2.745-10.245l-8.97-15.536 59.136-34.143 20.52 35.542-10.015 27.228c-.645 1.755-.612 3.687.094 5.419l29.257 71.796-28.413 16.404-44.04-76.281c-2.071-3.587-6.659-4.816-10.245-2.745-3.587 2.071-4.816 6.658-2.745 10.245l47.79 82.776c.995 1.723 2.633 2.979 4.554 3.495.638.171 1.29.255 1.94.255 1.306 0 2.601-.341 3.75-1.005l40.571-23.424c3.245-1.874 4.609-5.855 3.195-9.325l-30.628-75.161 10.224-27.797c.768-2.089.569-4.411-.544-6.339l-22.276-38.584.494-.285 176.277-32.182c2.413 3.634 6.006 6.246 10.256 7.385 1.543.414 3.109.618 4.665.618 3.103 0 6.166-.814 8.926-2.407l18.031-10.411c8.552-4.937 11.493-15.913 6.556-24.466zm-36.371-111.87c1.288-.369 2.653.184 3.322 1.343l43.924 76.079c.669 1.159.465 2.618-.497 3.548l-18.109 17.509-52.858-91.552zm-293.954 275.14c-1.637.944-3.544 1.195-5.369.707-1.825-.489-3.351-1.66-4.296-3.296l-37.478-64.913c-1.951-3.379-.789-7.714 2.589-9.665l9.733-5.62 44.553 77.168zm147.637-46.618-11.871-20.56c-2.071-3.587-6.66-4.817-10.245-2.745-3.587 2.071-4.816 6.658-2.745 10.245l10.763 18.642-74.647 43.098c-11.333 6.542-25.875 2.646-32.419-8.686l-5.62-9.734 15.143-8.743c3.587-2.071 4.816-6.658 2.745-10.245s-6.658-4.816-10.245-2.745l-15.143 8.743-9.157-15.86 15.143-8.743c3.587-2.071 4.816-6.658 2.745-10.245-2.071-3.588-6.659-4.817-10.245-2.745l-15.143 8.743-9.157-15.861 15.143-8.743c3.587-2.071 4.816-6.658 2.745-10.245-2.072-3.588-6.659-4.816-10.245-2.745l-15.143 8.743-5.62-9.733c-6.543-11.332-2.646-25.875 8.686-32.418l74.647-43.098 47.511 82.291c2.072 3.588 6.659 4.817 10.245 2.745 3.587-2.071 4.816-6.658 2.745-10.245l-48.618-84.209 109.925-129.403 135.105 234.009z"/><path d="m490.957 70.081c-2.071-3.587-6.658-4.816-10.245-2.745l-36.063 20.821c-3.587 2.071-4.816 6.658-2.745 10.245 1.389 2.406 3.91 3.751 6.502 3.751 1.272 0 2.562-.324 3.743-1.006l36.063-20.821c3.587-2.07 4.816-6.657 2.745-10.245z"/><path d="m429.033 74.1c1.181.682 2.471 1.006 3.743 1.006 2.592 0 5.113-1.346 6.502-3.751l13.908-24.089c2.071-3.587.842-8.174-2.745-10.245-3.588-2.072-8.174-.842-10.245 2.745l-13.908 24.089c-2.072 3.587-.842 8.174 2.745 10.245z"/><path d="m491.802 114.152h-27.816c-4.142 0-7.5 3.358-7.5 7.5s3.358 7.5 7.5 7.5h27.816c4.142 0 7.5-3.358 7.5-7.5s-3.358-7.5-7.5-7.5z"/></g></g></svg>