<svg id="Layer_1" enable-background="new 0 0 512 512" height="512" viewBox="0 0 512 512" width="512" xmlns="http://www.w3.org/2000/svg"><g><g><path d="m392.709 192.778c47.474-184.778-80.287-165.729-80.287-165.729s-37.098-32.791-103.826-12.328c-68.315 20.95-71.058 68.909-114.101 90.097 0 0 11.629 16.024 37.988 16.108-1.196 20.75 1.29 44.631 8.161 71.851h252.065z" fill="#2d4456"/><path d="m169.016 156.952c-15.248 0-27.961 10.842-30.857 25.236.755 3.473 1.58 7 2.486 10.589h31.626v-35.659c-1.07-.109-2.156-.166-3.255-.166z" fill="#253847"/><path d="m392.709 192.778c.908-3.533 1.743-6.982 2.525-10.367-2.81-14.504-15.571-25.458-30.897-25.458-1.099 0-2.185.057-3.255.167v35.659h31.627z" fill="#253847"/><path d="m417.504 504h-301.655v-80.323c0-64.24 52.077-116.317 116.317-116.317h69.022c64.24 0 116.317 52.077 116.317 116.317v80.323z" fill="#86dcff"/><path d="m115.849 486h301.656v18h-301.656z" fill="#56caed"/><path d="m249.175 350.162h34.997l16.125 88.376-33.62 33.966-33.627-33.966z" fill="#ff5876"/><path d="m263.123 450.914-27.3-27.575-2.773 15.199 33.626 33.966 33.62-33.966-2.773-15.199-27.294 27.575c-1.956 1.977-5.149 1.977-7.106 0z" fill="#e6485d"/><path d="m284.172 350.162h-34.997l-16.622-42.802h68.241z" fill="#e6485d"/><path d="m303.172 78.28c-38.829 51.54-130.901 61.333-130.901 61.333v73.342c0 52.139 42.267 94.405 94.405 94.405 52.138 0 94.405-42.266 94.405-94.405v-71.695c.001.001-38.912-12.775-57.909-62.98z" fill="#ffe0cc"/><path d="m266.677 289.36c-52.139 0-94.405-42.266-94.405-94.405v18c0 52.139 42.267 94.405 94.405 94.405 52.138 0 94.405-42.266 94.405-94.405v-18c0 52.139-42.267 94.405-94.405 94.405z" fill="#ffceb3"/><path d="m172.271 212.955v-37.836c-1.07-.11-2.156-.167-3.255-.167-17.385 0-31.479 14.093-31.479 31.478s14.093 31.479 31.479 31.479c2.199 0 4.345-.227 6.418-.657-2.059-7.753-3.163-15.896-3.163-24.297z" fill="#ffc4ad"/><path d="m364.337 174.952c-1.099 0-2.185.057-3.255.167v37.836c0 8.401-1.103 16.544-3.163 24.297 2.072.429 4.218.657 6.418.657 17.385 0 31.479-14.093 31.479-31.479 0-17.385-14.094-31.478-31.479-31.478z" fill="#ffc4ad"/><path d="m169.016 219.909c-14.257 0-26.293-9.48-30.166-22.479-.85 2.852-1.313 5.872-1.313 9 0 17.385 14.093 31.479 31.479 31.479 2.199 0 4.345-.227 6.417-.657-1.502-5.656-2.489-11.522-2.917-17.542-1.149.128-2.316.199-3.5.199z" fill="#ffb69f"/><path d="m364.337 219.909c-1.184 0-2.351-.071-3.501-.199-.428 6.02-1.414 11.886-2.917 17.542 2.072.429 4.218.657 6.418.657 17.385 0 31.478-14.093 31.478-31.479 0-3.128-.463-6.148-1.313-9-3.872 12.999-15.908 22.479-30.165 22.479z" fill="#ffb69f"/><g fill="#e4eef9"><ellipse cx="211.184" cy="194.523" rx="38.913" ry="38.913" transform="matrix(.393 -.92 .92 .393 -50.637 312.368)"/><ellipse cx="322.169" cy="194.523" rx="38.913" ry="38.913" transform="matrix(.92 -.393 .393 .92 -50.505 142.121)"/></g></g><g><g><path d="m399.933 348.818c-2.516-3.299-7.233-3.934-10.531-1.414-3.299 2.517-3.932 7.233-1.415 10.532 14.589 19.115 22.299 41.964 22.299 66.078v72.959h-44.669v-58.553c0-4.15-3.364-7.514-7.514-7.514s-7.514 3.364-7.514 7.514v58.552h-167.798v-58.552c0-4.15-3.364-7.514-7.514-7.514s-7.514 3.364-7.514 7.514v58.552h-44.669v-27.391c0-4.15-3.364-7.514-7.514-7.514s-7.514 3.364-7.514 7.514v34.905c0 4.15 3.364 7.514 7.514 7.514h302.22c4.15 0 7.514-3.364 7.514-7.514v-80.473c0-27.436-8.777-53.438-25.381-75.195z"/><path d="m132.528 192.04c-1.756 4.438-2.732 9.266-2.732 14.32 0 21.533 17.518 39.051 39.051 39.051.349 0 .699-.017 1.048-.027 7.938 23.589 24.275 43.35 45.437 55.719-60.492 8.218-107.267 60.2-107.267 122.909v15.512c0 4.15 3.364 7.514 7.514 7.514s7.514-3.364 7.514-7.514v-15.512c0-58.534 46.372-106.434 104.308-108.912l13.981 36-15.773 86.452c-.44 2.414.326 4.891 2.052 6.635l33.689 34.029c2.803 2.946 7.879 2.946 10.68 0l33.683-34.029c1.727-1.743 2.492-4.221 2.052-6.634l-15.774-86.452 13.983-36.008c22.753.952 44.175 8.802 62.216 22.852 3.273 2.55 7.995 1.963 10.545-1.311s1.963-7.995-1.311-10.545c-17.481-13.614-37.753-22.096-59.366-24.992 21.157-12.369 37.489-32.128 45.426-55.713.349.009.698.027 1.048.027 21.533 0 39.051-17.518 39.051-39.051 0-5.05-.974-9.873-2.727-14.307 17.184-68.472 12.664-117.893-13.474-146.885-25.048-27.784-61.428-27.239-72.623-26.318-10.179-7.476-47.892-30.316-108.46-11.74-7.232 2.217-14.122 4.847-20.478 7.815-3.76 1.757-5.384 6.228-3.628 9.988s6.227 5.385 9.987 3.628c5.725-2.674 11.957-5.051 18.524-7.064 25.905-7.943 50.066-8.545 71.812-1.785 16.21 5.039 24.967 12.529 25.028 12.581 1.661 1.469 3.885 2.129 6.085 1.802.38-.057 38.64-5.412 62.591 21.154 10.061 11.159 16.363 26.606 18.734 45.91 2.536 20.648.581 45.817-5.781 74.953-5.691-4.641-12.708-7.712-20.388-8.547v-26.476c0-3.247-2.085-6.126-5.17-7.139-.356-.116-35.777-12.216-53.335-58.618-.969-2.561-3.254-4.392-5.964-4.779-2.716-.386-5.418.73-7.065 2.917-36.452 48.385-125.05 58.402-125.938 58.497-3.821.406-6.72 3.63-6.72 7.472v28.127c-7.622.829-14.589 3.861-20.256 8.443-3.999-19.889-5.546-38.29-4.59-54.859.119-2.061-.614-4.079-2.029-5.582s-3.384-2.358-5.449-2.365c-11.941-.038-20.258-3.757-25.416-7.215 14.111-9.225 23.971-21.324 33.562-33.091 8.122-9.967 16.522-20.273 27.757-29.377 3.225-2.613 3.72-7.345 1.107-10.569-2.612-3.223-7.344-3.721-10.568-1.107-12.442 10.082-21.34 21-29.945 31.559-11.522 14.139-21.475 26.35-37.898 34.435-4.105 1.9-5.506 7.559-2.763 11.155.516.71 11.859 15.949 36.367 18.786-.315 19.543 2.394 41.119 8.056 64.281zm157.364 122.953-10.817 27.854h-24.778l-10.817-27.854zm-23.202 147.257-25.594-25.852 14.326-78.523h22.528l14.327 78.524zm0-162.285c-42.111 0-77.332-30.051-85.352-69.835 8.07 6.738 18.446 10.8 29.756 10.8 23.081 0 42.279-16.907 45.883-38.985h19.426c3.604 22.078 22.802 38.985 45.883 38.985 11.31 0 21.686-4.063 29.756-10.8-8.02 39.784-43.241 69.835-85.352 69.835zm-87.068-105.534c0-17.354 14.118-31.472 31.472-31.472 17.353 0 31.471 14.118 31.471 31.472 0 17.353-14.118 31.471-31.471 31.471-17.353.001-31.472-14.117-31.472-31.471zm142.664 31.472c-17.353 0-31.471-14.118-31.471-31.471 0-17.354 14.118-31.472 31.471-31.472 17.354 0 31.472 14.118 31.472 31.472 0 17.353-14.119 31.471-31.472 31.471zm66.27-19.542c0 12.307-9.304 22.476-21.247 23.858.967-5.632 1.477-11.418 1.477-17.321v-30.175c11.223 2.014 19.77 11.843 19.77 23.638zm-87.433-114.328c16.62 34.327 41.822 49.067 52.634 54.063v14.143c-8.288-7.634-19.343-12.307-31.472-12.307-23.081 0-42.28 16.907-45.883 38.986h-19.426c-3.603-22.079-22.802-38.986-45.883-38.986-12.129 0-23.184 4.673-31.472 12.307v-14.241c20.913-3.143 84.74-15.57 121.502-53.965zm-136.529 90.689v30.175c0 5.903.51 11.689 1.477 17.321-11.943-1.381-21.247-11.551-21.247-23.858 0-11.794 8.547-21.623 19.77-23.638z"/><path d="m290.246 235.662c-3.839-1.58-8.229.25-9.809 4.087-.025.063-2.914 6.341-13.746 6.341-10.833 0-13.721-6.278-13.746-6.341-1.58-3.837-5.97-5.667-9.809-4.087-3.837 1.58-5.667 5.972-4.088 9.809 2.393 5.812 10.908 15.647 27.643 15.647s25.25-9.836 27.643-15.647c1.578-3.838-.251-8.229-4.088-9.809z"/><path d="m220.86 212.547c4.15 0 7.514-3.364 7.514-7.514v-21.204c0-4.15-3.364-7.514-7.514-7.514s-7.514 3.364-7.514 7.514v21.204c0 4.15 3.363 7.514 7.514 7.514z"/><path d="m312.521 176.315c-4.15 0-7.514 3.364-7.514 7.514v21.204c0 4.15 3.364 7.514 7.514 7.514s7.514-3.364 7.514-7.514v-21.204c0-4.15-3.364-7.514-7.514-7.514z"/></g></g></g></svg>