<svg height="512" viewBox="0 0 64 64" width="512" xmlns="http://www.w3.org/2000/svg"><g id="Fill_Outline" data-name="Fill Outline"><g id="Color"><g><g><path d="m34.737 8.263h12v22h-12z" fill="#aae1f9" transform="matrix(.707 .707 -.707 .707 25.553 -23.163)"/><path d="m44.272 19.213a9.993 9.993 0 0 1 -12.964.994l-2.592 2.593 8.484 8.484 15.557-15.556-2.5-2.5z" fill="#57b7eb"/><path d="m27.544 26.456h8v4h-8z" fill="#93999a" transform="matrix(.707 .707 -.707 .707 29.36 -13.971)"/><path d="m26.009 28.991h4v6h-4z" fill="#aae1f9" transform="matrix(.707 .707 -.707 .707 30.825 -10.435)"/><path d="m38.151 9.678h8v22h-8z" fill="#d0d8da" transform="matrix(.707 .707 -.707 .707 26.967 -23.749)"/><path d="m44.272 19.213a9.988 9.988 0 0 1 -9.044 2.731l-3.684 3.683 5.656 5.657 15.557-15.556-2.5-2.5z" fill="#93999a"/><path d="m46 52-17.018-1.621a4.4 4.4 0 0 1 -3.982-4.379h21z" fill="#d0d8da"/><path d="m39.747 46a3.457 3.457 0 0 1 -3.835 2.559l-.942-.135a3.45 3.45 0 0 1 -2.809-2.424h-7.161a4.4 4.4 0 0 0 3.982 4.379l17.018 1.621v-6z" fill="#93999a"/><path d="m45 23v5a20.484 20.484 0 0 1 6 14.485v.515h6a22.633 22.633 0 0 0 -11.229-19.55z" fill="#d0d8da"/><path d="m49.647 29.4a5.032 5.032 0 0 0 1.122-1.982 22.6 22.6 0 0 0 -5-3.968l-.769-.45v5a20.484 20.484 0 0 1 6 14.485v.515h6a22.6 22.6 0 0 0 -.366-4 2.924 2.924 0 0 1 -2.769-2.041 22.684 22.684 0 0 0 -4.218-7.559z" fill="#93999a"/><path d="m46.636 6.364h8v6h-8z" fill="#d0d8da" transform="matrix(.707 .707 -.707 .707 21.452 -33.062)"/><path d="m25 56h16a0 0 0 0 1 0 0v5a0 0 0 0 1 0 0h-21a0 0 0 0 1 0 0 5 5 0 0 1 5-5z" fill="#d0d8da"/><path d="m51 41a10 10 0 0 1 10 10 10 10 0 0 1 -10 10h-10a0 0 0 0 1 0 0v-10a10 10 0 0 1 10-10z" fill="#aae1f9"/><path d="m17 42h16a0 0 0 0 1 0 0 4 4 0 0 1 -4 4h-8a4 4 0 0 1 -4-4 0 0 0 0 1 0 0z" fill="#aae1f9"/><circle cx="50" cy="50" fill="#57b7eb" r="4"/><path d="m57 58a13 13 0 0 1 -13-13c0-.4.024-.8.06-1.19a9.961 9.961 0 0 0 -3.06 7.19v10h10a9.961 9.961 0 0 0 7.19-3.06c-.39.036-.79.06-1.19.06z" fill="#57b7eb"/><circle cx="51" cy="49" fill="#d0d8da" r="4"/><path d="m53 51a3.985 3.985 0 0 1 -3.64-5.64 3.995 3.995 0 1 0 5.28 5.28 3.961 3.961 0 0 1 -1.64.36z" fill="#93999a"/><path d="m38 56a3 3 0 0 1 -3 3h-7a3 3 0 0 1 -3-3 5 5 0 0 0 -5 5h21v-5z" fill="#93999a"/><path d="m23 44a3.982 3.982 0 0 1 -3.445-2h-2.555a4 4 0 0 0 4 4h8a3.982 3.982 0 0 0 3.445-2z" fill="#57b7eb"/><path d="m48.515 8.485-1.329-1.328-1.5 1.5 5.657 5.657 4.243-4.243-1.509-1.509a3.993 3.993 0 0 1 -5.562-.077z" fill="#93999a"/><path d="m44 19a4.981 4.981 0 0 0 -3.27 8.755l7.025-7.025a4.969 4.969 0 0 0 -3.755-1.73z" fill="#93999a"/><circle cx="46" cy="24" fill="#aae1f9" r="5"/><path d="m48 27a5 5 0 0 1 -5-5 4.95 4.95 0 0 1 .625-2.375 4.984 4.984 0 1 0 6.75 6.75 4.95 4.95 0 0 1 -2.375.625z" fill="#57b7eb"/><path d="m28.716 28.456-1.03 1.029a2.992 2.992 0 0 1 -.263 3.921l-1.123 1.121 1 1 4.242-4.243z" fill="#57b7eb"/><path d="m30.13 24.213-1 1 2.535 2.536a2.99 2.99 0 0 1 .264 3.92l1.029 1.031 2.829-2.828z" fill="#656b76"/></g><path d="m4.758 3.878a4.389 4.389 0 0 1 3.354-.818l1.129.188a7.065 7.065 0 0 1 4.716 3.052l1.908 2.862a6.778 6.778 0 0 1 .659 1.253l.223.556a6.834 6.834 0 0 1 -1.1 6.913 6.834 6.834 0 0 1 -6.1 2.407l-2.468-.309a4.337 4.337 0 0 1 -2.929-1.7l-.289-.387a4.334 4.334 0 0 1 -.41-4.537 4.328 4.328 0 0 0 .235-3.307l-.439-1.338a4.332 4.332 0 0 1 1.511-4.835z" fill="#c4f236"/><circle cx="9.26" cy="13.751" fill="#f9e109" r="2"/><path d="m12.553 18.288a4.863 4.863 0 0 1 -3.663-2.488l-1.483-2.711a4.709 4.709 0 0 1 -.545-3 4.327 4.327 0 0 0 -.17-2.045l-.445-1.331a4.326 4.326 0 0 1 .431-3.634 4.3 4.3 0 0 0 -3.431 5.634l.445 1.336a4.328 4.328 0 0 1 -.235 3.307 4.334 4.334 0 0 0 .41 4.537l.289.387a4.337 4.337 0 0 0 2.929 1.7l2.468.309a6.832 6.832 0 0 0 6.008-2.311 6.836 6.836 0 0 1 -3.008.31z" fill="#a1d51c"/><path d="m8.839 15.705-1.432-2.616c-.006-.011-.01-.023-.016-.034a1.983 1.983 0 0 0 1.448 2.65z" fill="#fcbc04"/></g></g><g id="Outline_copy" data-name="Outline copy"><g fill="#434951"><circle cx="46" cy="24" r="1"/><path d="m56 49a5 5 0 1 0 -5 5 5.006 5.006 0 0 0 5-5zm-8 0a3 3 0 1 1 3 3 3 3 0 0 1 -3-3z"/><circle cx="51" cy="49" r="1"/><path d="m57.984 42.508a23.615 23.615 0 0 0 -3.127-11.276 23.325 23.325 0 0 0 -3.476-4.595 6 6 0 1 0 -10.821-.122l-3.36 3.351-4.241-4.24 14.141-14.141 4.245 4.245-.717.717a1 1 0 0 0 1.414 1.414l1.424-1.424a1 1 0 0 0 0-1.414l-.71-.709 2.829-2.829.707.707a1 1 0 0 0 1.414-1.414l-8.484-8.485a1 1 0 0 0 -1.414 1.414l.707.707-2.829 2.829-.709-.71a1.03 1.03 0 0 0 -1.414 0l-15.551 15.56a1 1 0 0 0 0 1.414l.7.7-2.112 2.127a1 1 0 0 0 0 1.415l.707.707-3.536 3.535a1 1 0 0 0 0 1.414l2.829 2.829a1 1 0 0 0 1.414 0l3.53-3.534.707.707a1 1 0 1 0 1.415-1.414l-4.95-4.949 1.416-1.416.7.7.007.01.011.008 5.645 5.645a1 1 0 0 0 1.414 0l3.806-3.8a5.981 5.981 0 0 0 8.48.094 21.338 21.338 0 0 1 2.931 3.945 21.605 21.605 0 0 1 2.79 8.944 10.917 10.917 0 0 0 -4.079-1.131 21.456 21.456 0 0 0 -1.471-5.785 21.156 21.156 0 0 0 -1.02-2.09 1 1 0 0 0 -1.753.964 19.125 19.125 0 0 1 .924 1.889 19.475 19.475 0 0 1 1.31 5.045 11.007 11.007 0 0 0 -8.035 4.934h-8.818a4.948 4.948 0 0 0 1.026-3 1 1 0 0 0 -1-1h-16a1 1 0 0 0 -1 1 5.006 5.006 0 0 0 5 5h3.094a5.38 5.38 0 0 0 4.792 4.375l11.114 1.055v2.57h-15a6.006 6.006 0 0 0 -6 6 1 1 0 0 0 1 1h17a1 1 0 0 0 0-2h-15.874a4.009 4.009 0 0 1 3.874-3h15v4a1 1 0 0 0 1 1h6.1a1 1 0 0 0 0-2h-5.1v-9a9 9 0 1 1 9 9 1 1 0 0 0 0 2 11 11 0 0 0 6.984-19.492zm-30.684-8.395-1.413-1.413 2.829-2.828 1.414 1.414zm22.629-28.285 4.243 4.243-2.829 2.829-4.243-4.243zm-5.659 2.827 1.417 1.416-14.141 14.141-1.412-1.412zm1.73 19.345a4 4 0 1 1 4-4 4 4 0 0 1 -4 4zm-27.829 15h13.658a3.006 3.006 0 0 1 -2.829 2h-8a3.006 3.006 0 0 1 -2.829-2zm7.977 4h14.616a10.914 10.914 0 0 0 -.735 3.423l-10.952-1.038a3.393 3.393 0 0 1 -2.929-2.385z"/><path d="m16.419 18.521a7.823 7.823 0 0 0 1.256-7.921l-.222-.557a7.907 7.907 0 0 0 -.753-1.443 1 1 0 0 0 -1.664 1.11 5.9 5.9 0 0 1 .563 1.069l.222.556a5.834 5.834 0 0 1 -6.144 7.965l-2.469-.308a3.353 3.353 0 0 1 -2.251-1.306l-.29-.388a3.313 3.313 0 0 1 -.315-3.49 5.3 5.3 0 0 0 .289-4.07l-.441-1.338a3.33 3.33 0 0 1 1.162-3.72 3.406 3.406 0 0 1 2.589-.631l1.13.188a6.087 6.087 0 0 1 4.048 2.618 1 1 0 0 0 1.661-1.112 8.088 8.088 0 0 0 -5.384-3.481l-1.13-.189a5.417 5.417 0 0 0 -4.118 1 5.324 5.324 0 0 0 -1.858 5.956l.445 1.336a3.358 3.358 0 0 1 -.181 2.544 5.3 5.3 0 0 0 .5 5.583l.29.388a5.361 5.361 0 0 0 3.605 2.091l2.468.309a7.977 7.977 0 0 0 .985.061 7.793 7.793 0 0 0 6.007-2.82z"/><path d="m9.26 16.751a3 3 0 1 0 -3-3 3 3 0 0 0 3 3zm0-4a1 1 0 1 1 -1 1 1 1 0 0 1 1-1z"/><circle cx="7" cy="7" r="1"/><circle cx="11" cy="8" r="1"/><path d="m20 39a1 1 0 0 0 .406-1.914l-8.406-3.736v-8.35a1 1 0 0 0 -2 0v9a1 1 0 0 0 .594.914l9 4a.991.991 0 0 0 .406.086z"/><path d="m23 6h7a1 1 0 0 0 0-2h-7a1 1 0 0 0 0 2z"/><path d="m21 10h9a1 1 0 0 0 0-2h-9a1 1 0 0 0 0 2z"/><path d="m21 14h9a1 1 0 0 0 0-2h-9a1 1 0 0 0 0 2z"/><path d="m21 18h4a1 1 0 0 0 0-2h-4a1 1 0 0 0 0 2z"/></g></g></g></svg>