<svg id="Capa_1" enable-background="new 0 0 512 512" height="512" viewBox="0 0 512 512" width="512" xmlns="http://www.w3.org/2000/svg"><g><g><circle cx="384.258" cy="127.742" fill="#6f6571" r="120.242"/><path d="m400.29 231.952c-66.407 0-120.242-53.834-120.242-120.242 0-28.718 10.1-55.059 26.898-75.737-26.158 22.052-42.93 54.878-42.93 91.769 0 66.408 53.835 120.242 120.242 120.242 36.891 0 69.716-16.772 91.768-42.929-20.678 16.798-47.018 26.897-75.736 26.897z" fill="#5d5360"/><circle cx="127.742" cy="384.258" fill="#ffe07d" r="120.242"/><g><circle cx="127.742" cy="384.258" fill="#fff" r="32.065"/></g><path d="m413.011 143.876c-20.979-7.064-37.823-23.908-44.887-44.887-3.612-10.727-4.559-21.127-3.497-30.921.775-7.148-7.309-11.787-13.231-7.71-21.002 14.455-33.972 39.711-30.788 67.793 3.717 32.784 30.456 59.524 63.24 63.242 28.082 3.185 53.339-9.785 67.795-30.788 4.076-5.923-.563-14.006-7.71-13.231-9.796 1.06-20.195.114-30.922-3.498z" fill="#fff"/><path d="m143.774 488.468c-66.407 0-120.242-53.834-120.242-120.242 0-28.718 10.1-55.059 26.898-75.737-26.158 22.052-42.93 54.877-42.93 91.769 0 66.408 53.835 120.242 120.242 120.242 36.891 0 69.716-16.772 91.768-42.929-20.678 16.798-47.018 26.897-75.736 26.897z" fill="#ffd064"/><path d="m443.933 147.373c-4.046.438-8.217.438-12.449.145-8.716 12.273-23.011 20.305-39.21 20.305-26.563 0-48.097-21.534-48.097-48.097 0-16.198 8.032-30.494 20.305-39.209-.293-4.233-.294-8.403.145-12.449.775-7.148-7.308-11.786-13.231-7.71-21.002 14.455-33.972 39.711-30.788 67.793 3.716 32.784 30.456 59.524 63.24 63.242 28.082 3.185 53.339-9.786 67.795-30.788 4.075-5.924-.563-14.007-7.71-13.232z" fill="#fff5d7"/></g><g><path d="m127.742 256.516c-17.094 0-33.411 3.384-48.327 9.503-.186-3.337-.286-6.685-.286-10.019 0-43.214 15.752-84.818 44.354-117.147 24.543-27.741 56.96-46.954 92.603-55.189l-15.62 14.54c-3.032 2.822-3.202 7.568-.379 10.6 1.478 1.587 3.481 2.39 5.491 2.39 1.83 0 3.664-.666 5.109-2.01l31.807-29.609c1.902-1.771 2.752-4.401 2.246-6.951s-2.297-4.655-4.732-5.565l-45.513-17.003c-3.88-1.448-8.201.52-9.65 4.401-1.449 3.88.521 8.201 4.401 9.65l17.314 6.468c-36.247 9.653-69.11 29.851-94.312 58.337-31.03 35.076-48.119 80.209-48.119 127.088 0 5.691.267 11.418.766 17.08-38.715 21.972-64.895 63.572-64.895 111.178 0 70.437 57.305 127.742 127.742 127.742 70.438 0 127.742-57.305 127.742-127.742s-57.305-127.742-127.742-127.742zm0 240.484c-62.166 0-112.742-50.576-112.742-112.742s50.576-112.742 112.742-112.742 112.742 50.576 112.742 112.742-50.576 112.742-112.742 112.742z"/><path d="m512 127.742c0-70.437-57.305-127.742-127.742-127.742-70.438 0-127.742 57.305-127.742 127.742 0 70.438 57.305 127.742 127.742 127.742 17.094 0 33.411-3.384 48.327-9.503.186 3.337.286 6.685.286 10.019 0 43.214-15.752 84.818-44.354 117.147-24.543 27.741-56.96 46.954-92.603 55.189l15.62-14.54c3.032-2.822 3.202-7.568.379-10.6s-7.568-3.202-10.6-.379l-31.807 29.609c-1.902 1.771-2.752 4.401-2.246 6.951s2.297 4.655 4.732 5.565l45.513 17.003c.865.323 1.751.476 2.624.476 3.04 0 5.9-1.862 7.027-4.877 1.449-3.88-.521-8.201-4.401-9.65l-17.314-6.468c36.247-9.653 69.11-29.851 94.312-58.337 31.031-35.075 48.12-80.208 48.12-127.087 0-5.691-.267-11.418-.766-17.08 38.713-21.974 64.893-63.574 64.893-111.18zm-127.742 112.742c-62.166 0-112.742-50.576-112.742-112.742s50.576-112.742 112.742-112.742 112.742 50.576 112.742 112.742-50.576 112.742-112.742 112.742z"/><path d="m166.063 374.387c-1.031-4.012-5.119-6.429-9.131-5.396-4.012 1.031-6.428 5.12-5.396 9.131.512 1.99.771 4.055.771 6.136 0 13.545-11.02 24.564-24.565 24.564s-24.564-11.02-24.564-24.564 11.02-24.565 24.564-24.565c2.089 0 4.164.262 6.164.778 4.008 1.033 8.101-1.377 9.136-5.389 1.035-4.011-1.378-8.101-5.389-9.136-3.224-.832-6.559-1.253-9.911-1.253-21.816 0-39.564 17.749-39.564 39.565s17.749 39.564 39.564 39.564c21.816 0 39.565-17.749 39.565-39.564 0-3.341-.419-6.662-1.244-9.871z"/><path d="m127.742 327.629c4.142 0 7.5-3.358 7.5-7.5v-16.032c0-4.142-3.358-7.5-7.5-7.5s-7.5 3.358-7.5 7.5v16.032c0 4.142 3.358 7.5 7.5 7.5z"/><path d="m127.742 440.887c-4.142 0-7.5 3.358-7.5 7.5v16.032c0 4.142 3.358 7.5 7.5 7.5s7.5-3.358 7.5-7.5v-16.032c0-4.142-3.358-7.5-7.5-7.5z"/><path d="m184.371 384.258c0 4.142 3.358 7.5 7.5 7.5h16.032c4.142 0 7.5-3.358 7.5-7.5s-3.358-7.5-7.5-7.5h-16.032c-4.142 0-7.5 3.358-7.5 7.5z"/><path d="m71.113 384.258c0-4.142-3.358-7.5-7.5-7.5h-16.032c-4.142 0-7.5 3.358-7.5 7.5s3.358 7.5 7.5 7.5h16.032c4.142 0 7.5-3.358 7.5-7.5z"/><path d="m173.088 346.412c1.919 0 3.839-.732 5.303-2.197l11.336-11.336c2.929-2.929 2.929-7.678 0-10.606-2.929-2.929-7.678-2.929-10.606 0l-11.336 11.336c-2.929 2.929-2.929 7.678 0 10.606 1.464 1.465 3.383 2.197 5.303 2.197z"/><path d="m77.093 424.301-11.336 11.336c-2.929 2.929-2.929 7.678 0 10.606 1.464 1.464 3.384 2.197 5.303 2.197s3.839-.732 5.303-2.197l11.336-11.336c2.929-2.929 2.929-7.678 0-10.606-2.928-2.929-7.678-2.929-10.606 0z"/><path d="m178.391 424.301c-2.929-2.929-7.678-2.929-10.606 0-2.929 2.929-2.929 7.678 0 10.606l11.336 11.336c1.464 1.464 3.384 2.197 5.303 2.197s3.839-.732 5.303-2.197c2.929-2.929 2.929-7.678 0-10.606z"/><path d="m77.093 344.215c1.464 1.464 3.384 2.197 5.303 2.197s3.839-.732 5.303-2.197c2.929-2.929 2.929-7.678 0-10.606l-11.336-11.336c-2.929-2.929-7.678-2.929-10.606 0-2.929 2.929-2.929 7.678 0 10.606z"/><path d="m443.882 139.86c-9.479 1.148-19.074.12-28.512-3.058-17.145-5.772-31.572-19.226-38.593-35.986-.574-1.371-1.105-2.78-1.579-4.187-1.322-3.925-5.575-6.037-9.501-4.714-3.925 1.322-6.036 5.576-4.714 9.501.588 1.745 1.247 3.492 1.959 5.194 8.791 20.987 26.156 37.173 47.642 44.407 11.574 3.897 23.386 5.154 35.104 3.733.063-.008.099-.007.105-.009.048.036.167.172.217.392.048.211.011.382-.126.588-13.523 20.177-36.985 30.999-61.224 28.253-29.474-3.343-53.292-27.161-56.633-56.634-2.749-24.242 8.078-47.701 28.253-61.222.206-.138.376-.174.588-.127.232.053.372.184.387.198 0 0 .006.037-.004.124-.498 4.112 2.432 7.85 6.544 8.348 4.11.497 7.849-2.432 8.347-6.543.724-5.974-2.024-11.647-7.172-14.807-5.238-3.215-11.927-3.079-17.04.347-24.853 16.656-38.19 45.537-34.807 75.373 4.122 36.35 33.497 65.726 69.847 69.849 3.068.348 6.126.52 9.163.52 26.484 0 51.268-13.028 66.212-35.326 3.426-5.113 3.562-11.801.347-17.04-3.162-5.149-8.833-7.897-14.81-7.174z"/></g></g></svg>