<?xml version="1.0" encoding="iso-8859-1"?>
<!-- Generator: Adobe Illustrator 19.0.0, SVG Export Plug-In . SVG Version: 6.00 Build 0)  -->
<svg version="1.1" id="Capa_1" xmlns="http://www.w3.org/2000/svg" xmlns:xlink="http://www.w3.org/1999/xlink" x="0px" y="0px"
	 viewBox="0 0 512 512" style="enable-background:new 0 0 512 512;" xml:space="preserve">
<g>
	<path style="fill:#8E6A5C;" d="M82.591,475.022c-5.131-9.475-11.742-18.307-19.523-26.091c-7.781-7.78-16.613-14.39-26.088-19.521
		L10,501.999L82.591,475.022z"/>
	<path style="fill:#FFD071;" d="M63.068,448.931c7.781,7.784,14.393,16.616,19.523,26.091l62.457-23.22L115.2,421.953
		l-55.003-55.005L36.98,429.41C46.454,434.541,55.286,441.151,63.068,448.931z"/>
	<polygon style="fill:#C0D670;" points="60.197,366.948 115.2,421.953 145.048,451.802 425.241,171.611 368.673,115.044 
		340.386,86.758 	"/>
	<polygon style="fill:#FFA14D;" points="368.673,115.044 425.241,171.611 454.407,142.443 369.554,57.589 340.386,86.758 	"/>
	<path style="fill:#FC4F5C;" d="M369.554,57.589l84.854,84.853l30.091-30.088c23.336-23.336,23.336-61.517,0-84.853
		C461.162,4.168,422.981,4.168,399.647,27.5L369.554,57.589z"/>
</g>
<g>
	<path style="fill:#000001;" d="M512,69.928c0-18.744-7.256-36.323-20.431-49.498C478.394,7.256,460.816,0.001,442.072,0.001
		c-18.744,0-36.322,7.254-49.496,20.427L362.503,50.5c-0.006,0.006-0.014,0.012-0.02,0.018l-29.169,29.168
		c-0.007,0.007-0.013,0.014-0.018,0.021l-280.17,280.17c-0.077,0.077-0.143,0.161-0.217,0.24c-0.092,0.097-0.182,0.195-0.269,0.297
		c-0.185,0.213-0.356,0.432-0.521,0.656c-0.059,0.082-0.121,0.159-0.178,0.242c-0.447,0.654-0.807,1.348-1.082,2.069
		c-0.01,0.028-0.025,0.055-0.037,0.083L0.626,498.515c-1.361,3.666-0.463,7.79,2.303,10.555c1.91,1.91,4.467,2.93,7.073,2.93
		c1.169,0,2.347-0.205,3.481-0.627l72.629-26.996c0.046-0.018,0.092-0.033,0.137-0.051l62.283-23.15
		c0.047-0.018,0.09-0.043,0.137-0.061c0.297-0.115,0.586-0.245,0.87-0.388c0.06-0.029,0.122-0.054,0.181-0.085
		c0.332-0.176,0.654-0.373,0.967-0.586c0.089-0.061,0.172-0.128,0.26-0.192c0.22-0.161,0.434-0.329,0.642-0.508
		c0.099-0.086,0.195-0.174,0.291-0.264c0.079-0.074,0.163-0.141,0.24-0.217l280.19-280.188c0.001-0.001,0.003-0.002,0.003-0.003
		l4.69-4.689l54.568-54.568C504.744,106.251,512,88.672,512,69.928z M427.497,155.212l-2.257,2.257l-49.48-49.48
		c-0.006-0.005-0.011-0.011-0.016-0.017c-0.006-0.006-0.012-0.01-0.018-0.016l-21.199-21.198l15.027-15.026l70.71,70.71
		L427.497,155.212z M340.387,100.901l14.144,14.143l-29.016,29.017c-3.905,3.905-3.905,10.237,0,14.143
		c1.952,1.953,4.512,2.929,7.07,2.929c2.56,0,5.119-0.976,7.072-2.929l29.016-29.017l42.426,42.425L145.048,437.66l-15.705-15.707
		l29.015-29.017c3.905-3.905,3.905-10.237-0.001-14.142c-3.904-3.905-10.236-3.905-14.142,0L115.2,407.811l-5.508-5.508
		l-35.354-35.354L340.387,100.901z M42.103,444.331c4.92,3.449,9.57,7.347,13.894,11.67c4.323,4.325,8.222,8.976,11.672,13.895
		L26.98,485.019L42.103,444.331z M86.945,462.731c-4.785-7.483-10.414-14.478-16.807-20.872
		c-6.392-6.391-13.387-12.019-20.87-16.804l14.875-40.019l43.985,43.987c0.001,0,0.001,0.001,0.002,0.001v0.001l18.831,18.831
		L86.945,462.731z M454.408,128.301l-70.711-70.71l23.021-23.02c9.396-9.395,21.951-14.57,35.353-14.57s25.959,5.175,35.355,14.572
		C486.825,43.97,492,56.526,492,69.928s-5.175,25.958-14.573,35.355L454.408,128.301z"/>
	<path style="fill:#000001;" d="M312.1,181.613c2.56,0,5.118-0.976,7.071-2.928l0.169-0.169c3.905-3.905,3.905-10.237,0-14.143
		c-3.905-3.905-10.237-3.905-14.143,0l-0.169,0.169c-3.904,3.905-3.904,10.237,0,14.143
		C306.982,180.637,309.54,181.613,312.1,181.613z"/>
	<path style="fill:#000001;" d="M171.599,375.547c2.555,0,5.109-0.973,7.061-2.918l0.167-0.167
		c3.911-3.899,3.921-10.231,0.021-14.142c-3.898-3.912-10.23-3.92-14.142-0.021l-0.167,0.167c-3.911,3.899-3.92,10.232-0.021,14.142
		C166.471,374.567,169.034,375.547,171.599,375.547z"/>
</g>
<g>
</g>
<g>
</g>
<g>
</g>
<g>
</g>
<g>
</g>
<g>
</g>
<g>
</g>
<g>
</g>
<g>
</g>
<g>
</g>
<g>
</g>
<g>
</g>
<g>
</g>
<g>
</g>
<g>
</g>
</svg>
