<?xml version="1.0" encoding="iso-8859-1"?>
<!-- Generator: Adobe Illustrator 19.0.0, SVG Export Plug-In . SVG Version: 6.00 Build 0)  -->
<svg version="1.1" id="Capa_1" xmlns="http://www.w3.org/2000/svg" xmlns:xlink="http://www.w3.org/1999/xlink" x="0px" y="0px"
	 viewBox="0 0 512 512" style="enable-background:new 0 0 512 512;" xml:space="preserve">
<path style="fill:#C6A07D;" d="M491,284.406V68.134c0-2.75-2.25-5-5-5H177.919c-2.75,0-5,2.25-5,5v216.272H491z"/>
<path style="fill:#FFFFFF;" d="M198.489,284.406h266.942c2.312-0.437,4.077-2.472,4.077-4.906V89.626c0-2.75-2.25-5-5-5h-64.849
	v2.522c0,2.75-2.25,5-5,5H269.26c-2.75,0-5-2.25-5-5v-2.522h-64.848c-2.75,0-5,2.25-5,5V279.5
	C194.412,281.934,196.177,283.969,198.489,284.406z"/>
<g style="opacity:0.1;">
	<path d="M215,279.5V89.626c0-2.75,2.25-5,5-5h-20.588c-2.75,0-5,2.25-5,5V279.5c0,2.75,2.25,5,5,5H220
		C217.25,284.5,215,282.25,215,279.5z"/>
</g>
<path style="fill:#FCDB67;" d="M363.243,48.772V26.978c0-2.75-2.25-5-5-5h-52.568c-2.75,0-5,2.25-5,5v21.794
	C300.675,48.772,363.243,48.772,363.243,48.772z"/>
<path style="opacity:0.1;enable-background:new    ;" d="M321.415,48.772V26.978c0-2.75,2.25-5,5-5h-20.74c-2.75,0-5,2.25-5,5
	v21.794C300.675,48.772,321.415,48.772,321.415,48.772z"/>
<path style="fill:#FFC502;" d="M269.26,92.148c-2.75,0-5-2.25-5-5V53.772c0-2.75,2.25-5,5-5h125.399c2.75,0,5,2.25,5,5v33.376
	c0,2.75-2.25,5-5,5C394.659,92.148,269.26,92.148,269.26,92.148z"/>
<g style="opacity:0.1;">
	<path d="M285,87.148V53.772c0-2.75,2.25-5,5-5h-20.74c-2.75,0-5,2.25-5,5v33.376c0,2.75,2.25,5,5,5H290
		C287.25,92.148,285,89.898,285,87.148z"/>
</g>
<g>
	<rect x="229.56" y="232.71" style="fill:#48C1E1;" width="37.598" height="51.696"/>
	<path style="fill:#48C1E1;" d="M229.564,310.255v75.197c0,10.382,8.417,18.798,18.799,18.798s18.799-8.416,18.799-18.798v-75.197
		H229.564z"/>
</g>
<path style="fill:#FB8276;" d="M229.564,310.255v75.197c0,10.382,8.417,18.798,18.799,18.798s18.799-8.416,18.799-18.798v-75.197
	H229.564z"/>
<g>
	<rect x="314.16" y="232.71" style="fill:#48C1E1;" width="37.598" height="51.696"/>
	<path style="fill:#48C1E1;" d="M314.16,310.255v75.197c0,10.382,8.417,18.798,18.798,18.798c10.383,0,18.8-8.416,18.8-18.798
		v-75.197H314.16z"/>
</g>
<path style="fill:#89C947;" d="M314.16,310.255v75.197c0,10.382,8.417,18.798,18.798,18.798c10.383,0,18.8-8.416,18.8-18.798
	v-75.197H314.16z"/>
<g>
	<rect x="398.75" y="232.71" style="fill:#48C1E1;" width="37.598" height="51.696"/>
	<path style="fill:#48C1E1;" d="M398.755,310.255v75.197c0,10.382,8.417,18.798,18.799,18.798s18.799-8.416,18.799-18.798v-75.197
		H398.755z"/>
</g>
<path style="fill:#FFC502;" d="M398.755,310.255v75.197c0,10.382,8.417,18.798,18.799,18.798s18.799-8.416,18.799-18.798v-75.197
	H398.755z"/>
<path style="fill:#A2DFF9;" d="M504.5,305.255c0,2.75-2.25,5-5,5H166.417c-2.75,0-5-2.25-5-5v-15.849c0-2.75,2.25-5,5-5H499.5
	c2.75,0,5,2.25,5,5V305.255z"/>
<g style="opacity:0.1;">
	<path d="M192.917,305.255v-15.849c0-2.75,2.25-5,5-5h-31.5c-2.75,0-5,2.25-5,5v15.849c0,2.75,2.25,5,5,5h31.5
		C195.167,310.255,192.917,308.005,192.917,305.255z"/>
</g>
<path style="fill:#A2DFF9;" d="M125.738,314.983c-2.514-0.715-4.269-3.039-4.269-5.651V176.339H79.171v132.993
	c0,2.612-1.756,4.937-4.269,5.651C35.217,326.262,7.5,362.97,7.5,404.25c0,37.122,22.077,70.601,56.243,85.293
	c0.733,0.316,1.522,0.479,2.321,0.479h68.513c0.798,0,1.588-0.163,2.321-0.479c34.166-14.692,56.242-48.171,56.242-85.293
	C193.14,362.97,165.423,326.262,125.738,314.983z"/>
<path style="fill:#FFC502;" d="M7.5,404.25c0,37.122,22.077,70.601,56.243,85.293c0.733,0.316,1.522,0.479,2.321,0.479h68.513
	c0.798,0,1.588-0.163,2.321-0.479c34.166-14.692,56.242-48.171,56.242-85.293c0-18.358-5.493-35.806-15.072-50.522H22.572
	C12.994,368.444,7.5,385.892,7.5,404.25z"/>
<path style="fill:#FFFFFF;" d="M189.749,379.577c-2.569-9.217-6.527-17.93-11.682-25.85H22.572
	c-5.154,7.92-9.112,16.633-11.681,25.85H189.749z"/>
<path style="opacity:0.1;enable-background:new    ;" d="M79.171,309.332c0,2.612-1.756,4.937-4.269,5.651
	C35.217,326.262,7.5,362.97,7.5,404.25c0,37.122,22.077,70.601,56.243,85.293c0.733,0.316,1.522,0.479,2.321,0.479h0.614
	c-23.763-17.232-38.318-44.97-38.318-75.111c0-41.28,27.717-77.988,67.402-89.267c2.513-0.715,4.269-3.039,4.269-5.651V176.339
	h-20.86V309.332z"/>
<path style="fill:#FFFFFF;" d="M139.093,171.339c0,2.75-2.25,5-5,5H66.547c-2.75,0-5-2.25-5-5v-11.177c0-2.75,2.25-5,5-5h67.546
	c2.75,0,5,2.25,5,5L139.093,171.339L139.093,171.339z"/>
<path style="fill:#48C1E1;" d="M139.093,171.339c0,2.75-2.25,5-5,5H66.547c-2.75,0-5-2.25-5-5v-11.177c0-2.75,2.25-5,5-5h67.546
	c2.75,0,5,2.25,5,5L139.093,171.339L139.093,171.339z"/>
<g style="opacity:0.1;">
	<path d="M93,171.339v-11.177c0-2.75,2.25-5,5-5H66.547c-2.75,0-5,2.25-5,5v11.177c0,2.75,2.25,5,5,5H98
		C95.25,176.339,93,174.089,93,171.339z"/>
</g>
<g>
	<circle style="fill:#FFC502;" cx="83.44" cy="117.85" r="11.25"/>
	<circle style="fill:#FFC502;" cx="112.44" cy="70.853" r="16"/>
	<circle style="fill:#FFC502;" cx="76.44" cy="32.853" r="10.875"/>
</g>
<path d="M252.866,146.682v26.479h-7.956v-47.244c0-4.142-3.358-7.5-7.5-7.5s-7.5,3.358-7.5,7.5v47.244h-9.087
	c-4.142,0-7.5,3.358-7.5,7.5s3.358,7.5,7.5,7.5H342.79c4.142,0,7.5-3.358,7.5-7.5s-3.358-7.5-7.5-7.5h-6.054v-24.71
	c0-4.142-3.358-7.5-7.5-7.5s-7.5,3.358-7.5,7.5v24.71h-7.957v-15.152c0-4.142-3.358-7.5-7.5-7.5s-7.5,3.358-7.5,7.5v15.152h-7.956
	v-47.244c0-4.142-3.358-7.5-7.5-7.5s-7.5,3.358-7.5,7.5v47.244h-7.957v-26.479c0-4.142-3.358-7.5-7.5-7.5
	C256.224,139.182,252.866,142.54,252.866,146.682z"/>
<path d="M374.115,131.5h63.232c4.142,0,7.5-3.358,7.5-7.5s-3.358-7.5-7.5-7.5h-63.232c-4.142,0-7.5,3.358-7.5,7.5
	S369.973,131.5,374.115,131.5z"/>
<path d="M374.115,153.536h63.232c4.142,0,7.5-3.358,7.5-7.5s-3.358-7.5-7.5-7.5h-63.232c-4.142,0-7.5,3.358-7.5,7.5
	S369.973,153.536,374.115,153.536z"/>
<path d="M437.348,160.571h-39.281c-4.142,0-7.5,3.358-7.5,7.5s3.358,7.5,7.5,7.5h39.281c4.142,0,7.5-3.358,7.5-7.5
	S441.49,160.571,437.348,160.571z"/>
<path d="M499.5,276.906h-1V68.134c0-6.893-5.607-12.5-12.5-12.5h-78.841v-1.862c0-6.893-5.607-12.5-12.5-12.5h-23.916V26.978
	c0-6.893-5.607-12.5-12.5-12.5h-52.568c-6.893,0-12.5,5.607-12.5,12.5v14.294H269.26c-6.893,0-12.5,5.607-12.5,12.5v1.862h-78.84
	c-6.893,0-12.5,5.607-12.5,12.5v208.823c-6.426,0.511-11.502,5.894-11.502,12.449v30.099c-7.638-4.855-16.001-8.73-24.948-11.393
	V254c0-4.142-3.358-7.5-7.5-7.5s-7.5,3.358-7.5,7.5v55.332c0,5.948,3.996,11.238,9.719,12.866
	c15.324,4.355,28.693,12.846,39.061,24.03H37.892c10.368-11.184,23.738-19.675,39.063-24.03c5.722-1.628,9.717-6.918,9.717-12.865
	v-13.9h4.249c4.142,0,7.5-3.358,7.5-7.5s-3.358-7.5-7.5-7.5h-4.249V268.41h4.249c4.142,0,7.5-3.358,7.5-7.5s-3.358-7.5-7.5-7.5
	h-4.249v-12.024h4.249c4.142,0,7.5-3.358,7.5-7.5s-3.358-7.5-7.5-7.5h-4.249V214.36h4.249c4.142,0,7.5-3.358,7.5-7.5
	s-3.358-7.5-7.5-7.5h-4.249v-15.521h27.298V215c0,4.142,3.358,7.5,7.5,7.5s7.5-3.358,7.5-7.5v-31.161h5.124
	c6.892,0,12.5-5.607,12.5-12.5v-11.177c0-6.893-5.608-12.5-12.5-12.5H66.547c-6.893,0-12.5,5.607-12.5,12.5v11.177
	c0,6.893,5.607,12.5,12.5,12.5h5.124v124.273C29.41,320.69,0,360.045,0,404.25c0,30.938,14.196,59.524,37.615,78.272H8.822
	c-4.142,0-7.5,3.358-7.5,7.5s3.358,7.5,7.5,7.5h265.536c4.142,0,7.5-3.358,7.5-7.5s-3.358-7.5-7.5-7.5H163.023
	c15.306-12.253,26.662-28.705,32.697-47.272H499.5c6.893,0,12.5-5.607,12.5-12.5V289.406C512,282.514,506.393,276.906,499.5,276.906
	z M69.047,162.662h62.546v6.177H69.047V162.662z M406.255,317.755h22.598v67.697c0,6.23-5.069,11.298-11.299,11.298
	s-11.299-5.068-11.299-11.298L406.255,317.755L406.255,317.755z M168.917,302.755v-10.849H497v10.849H168.917z M321.66,317.755
	h22.598v67.697c0,6.23-5.069,11.298-11.3,11.298c-6.23,0-11.298-5.068-11.298-11.298V317.755z M237.064,317.755h22.598v67.697
	c0,6.23-5.069,11.298-11.299,11.298s-11.299-5.068-11.299-11.298V317.755z M259.662,276.906h-22.598V240.21h22.598V276.906z
	 M344.258,276.906H321.66V240.21h22.598V276.906z M428.853,276.906h-22.598V240.21h22.598V276.906z M308.175,29.478h47.568v11.794
	h-47.568V29.478z M271.76,56.272h120.399v28.376H271.76V56.272z M394.659,99.648c5.123,0,9.531-3.101,11.46-7.522h55.889V169
	c0,4.142,3.358,7.5,7.5,7.5s7.5-3.358,7.5-7.5V89.626c0-6.893-5.607-12.5-12.5-12.5h-57.349v-6.492H483.5v206.272h-6.492V210
	c0-4.142-3.358-7.5-7.5-7.5s-7.5,3.358-7.5,7.5v66.906h-18.154V240.21h4.25c4.142,0,7.5-3.358,7.5-7.5s-3.358-7.5-7.5-7.5h-61.097
	c-4.142,0-7.5,3.358-7.5,7.5s3.358,7.5,7.5,7.5h4.25v36.696h-31.998V240.21h4.25c4.142,0,7.5-3.358,7.5-7.5s-3.358-7.5-7.5-7.5
	H302.41c-4.142,0-7.5,3.358-7.5,7.5s3.358,7.5,7.5,7.5h4.25v36.696h-31.998V240.21h4.249c4.142,0,7.5-3.358,7.5-7.5
	s-3.358-7.5-7.5-7.5h-61.097c-4.142,0-7.5,3.358-7.5,7.5s3.358,7.5,7.5,7.5h4.249v36.696h-20.152V92.126H257.8
	c1.928,4.421,6.336,7.522,11.46,7.522H394.659z M256.76,70.634v6.492h-57.348c-6.893,0-12.5,5.607-12.5,12.5v187.28h-6.492V70.634
	H256.76z M134.237,482.522H66.404C35.167,468.948,15,438.26,15,404.25c0-5.848,0.609-11.595,1.767-17.173H109
	c4.142,0,7.5-3.358,7.5-7.5s-3.358-7.5-7.5-7.5H21.372c1.537-3.745,3.321-7.374,5.359-10.85h147.178
	c2.038,3.476,3.822,7.104,5.359,10.85H151c-4.142,0-7.5,3.358-7.5,7.5s3.358,7.5,7.5,7.5h32.874
	c1.157,5.578,1.767,11.325,1.767,17.173C185.64,438.258,165.48,468.942,134.237,482.522z M199.346,420.25
	c0.844-5.236,1.294-10.58,1.294-16c0-28.249-12.024-54.502-31.723-73.068v-13.427h53.146v67.697
	c0,14.501,11.798,26.298,26.299,26.298s26.299-11.797,26.299-26.298v-67.697h31.998v67.697c0,14.501,11.797,26.298,26.298,26.298
	c14.502,0,26.3-11.797,26.3-26.298v-67.697h31.998v67.697c0,14.501,11.798,26.298,26.299,26.298s26.299-11.797,26.299-26.298
	v-67.697H497V420.25H199.346z"/>
<path d="M64.691,117.853c0,10.339,8.411,18.75,18.75,18.75s18.75-8.411,18.75-18.75s-8.411-18.75-18.75-18.75
	S64.691,107.514,64.691,117.853z M87.191,117.853c0,2.068-1.682,3.75-3.75,3.75s-3.75-1.682-3.75-3.75s1.682-3.75,3.75-3.75
	S87.191,115.785,87.191,117.853z"/>
<path d="M112.441,94.353c12.958,0,23.5-10.542,23.5-23.5s-10.542-23.5-23.5-23.5s-23.5,10.542-23.5,23.5
	S99.483,94.353,112.441,94.353z M112.441,62.353c4.687,0,8.5,3.813,8.5,8.5s-3.813,8.5-8.5,8.5s-8.5-3.813-8.5-8.5
	S107.754,62.353,112.441,62.353z"/>
<path d="M76.441,51.228c10.132,0,18.375-8.243,18.375-18.375s-8.243-18.375-18.375-18.375s-18.375,8.243-18.375,18.375
	C58.066,42.984,66.309,51.228,76.441,51.228z M76.441,29.478c1.861,0,3.375,1.514,3.375,3.375c0,1.861-1.514,3.375-3.375,3.375
	s-3.375-1.514-3.375-3.375C73.066,30.992,74.58,29.478,76.441,29.478z"/>
<g>
</g>
<g>
</g>
<g>
</g>
<g>
</g>
<g>
</g>
<g>
</g>
<g>
</g>
<g>
</g>
<g>
</g>
<g>
</g>
<g>
</g>
<g>
</g>
<g>
</g>
<g>
</g>
<g>
</g>
</svg>
