<svg id="Layer_3" enable-background="new 0 0 96 96" height="512" viewBox="0 0 96 96" width="512" xmlns="http://www.w3.org/2000/svg"><path d="m54 8v18l14 3 14-3v-18z" fill="#ec2f53"/><path d="m46 8 22 5 22-5-22-5z" fill="#ec2f53"/><path d="m90 19-3 7 3 3 3-3z" fill="#f9aa3d"/><g fill="#63b2b9"><circle cx="25" cy="89" r="3"/><circle cx="56" cy="89" r="3"/><circle cx="41" cy="71" r="3"/><circle cx="72" cy="71" r="3"/><circle cx="54" cy="53" r="3"/><circle cx="39" cy="35" r="3"/><circle cx="24" cy="17" r="3"/><circle cx="70" cy="35" r="3"/></g><path d="m3 93v-8l8 4z" fill="#f66533"/><path d="m38 88h-9.142c-.447-1.72-2-3-3.858-3s-3.411 1.28-3.858 3h-9.906l-7.789-3.895c-.31-.154-.678-.138-.973.044-.294.183-.474.505-.474.851v8c0 .347.18.668.474.851.161.099.344.149.526.149.153 0 .306-.035.447-.105l7.789-3.895h9.906c.447 1.72 2 3 3.858 3s3.411-1.28 3.858-3h9.142c.552 0 1-.448 1-1s-.448-1-1-1zm-34 3.382v-4.764l4.764 2.382zm21-.382c-1.103 0-2-.897-2-2s.897-2 2-2 2 .897 2 2-.897 2-2 2z"/><path d="m84 70h-8.142c-.447-1.72-2-3-3.858-3s-3.411 1.28-3.858 3h-23.284c-.447-1.72-2-3-3.858-3s-3.411 1.28-3.858 3h-10.728l1.293-1.293c.391-.391.391-1.023 0-1.414s-1.023-.391-1.414 0l-2.707 2.707h-11.586c-2.142 0-4.148-.833-5.655-2.35-1.512-1.501-2.345-3.508-2.345-5.65 0-4.411 3.589-8 8-8h12c.552 0 1-.448 1-1s-.448-1-1-1h-12c-5.514 0-10 4.486-10 10 0 2.678 1.042 5.189 2.931 7.064 1.88 1.894 4.391 2.936 7.069 2.936h11.586l2.707 2.707c.195.196.451.293.707.293s.512-.098.707-.293c.391-.391.391-1.023 0-1.414l-1.293-1.293h10.728c.447 1.72 2 3 3.858 3s3.411-1.28 3.858-3h23.284c.447 1.72 2 3 3.858 3s3.411-1.28 3.858-3h8.142c4.411 0 8 3.589 8 8 0 2.142-.833 4.148-2.35 5.655-1.501 1.512-3.508 2.345-5.65 2.345h-4.586l-2.707-2.707c-.391-.391-1.023-.391-1.414 0s-.391 1.023 0 1.414l1.293 1.293h-16.728c-.447-1.72-2-3-3.858-3s-3.411 1.28-3.858 3h-6.142c-.552 0-1 .448-1 1s.448 1 1 1h6.142c.447 1.72 2 3 3.858 3s3.411-1.28 3.858-3h16.728l-1.293 1.293c-.391.391-.391 1.023 0 1.414.195.196.451.293.707.293s.512-.098.707-.293l2.707-2.707h4.586c2.678 0 5.189-1.042 7.064-2.931 1.894-1.88 2.936-4.391 2.936-7.069 0-5.514-4.486-10-10-10zm-43 3c-1.103 0-2-.897-2-2s.897-2 2-2 2 .897 2 2-.897 2-2 2zm31 0c-1.103 0-2-.897-2-2s.897-2 2-2 2 .897 2 2-.897 2-2 2zm-16 18c-1.103 0-2-.897-2-2s.897-2 2-2 2 .897 2 2-.897 2-2 2z"/><path d="m12 36h11.586l2.707 2.707c.195.196.451.293.707.293s.512-.098.707-.293c.391-.391.391-1.023 0-1.414l-1.293-1.293h8.728c.447 1.72 2 3 3.858 3s3.411-1.28 3.858-3h11.142c.552 0 1-.448 1-1s-.448-1-1-1h-11.142c-.447-1.72-2-3-3.858-3s-3.411 1.28-3.858 3h-8.728l1.293-1.293c.391-.391.391-1.023 0-1.414s-1.023-.391-1.414 0l-2.707 2.707h-11.586c-2.142 0-4.148-.833-5.655-2.35-1.512-1.501-2.345-3.508-2.345-5.65 0-4.411 3.589-8 8-8h8.142c.447 1.72 2 3 3.858 3s3.411-1.28 3.858-3h13.728l-1.293 1.293c-.391.391-.391 1.023 0 1.414.195.196.451.293.707.293s.512-.098.707-.293l2.707-2.707h8.586v7.82c0 .467.323.872.778.975l14 3.18c.074.017.148.025.222.025s.148-.008.222-.025l14-3.18c.455-.103.778-.508.778-.975v-15.203l6-1.364v9.542l-2.919 6.811c-.161.376-.077.812.212 1.101l3 3c.195.196.451.293.707.293s.512-.098.707-.293l3-3c.289-.289.373-.725.212-1.101l-2.919-6.811v-10.795c0-.467-.323-.872-.778-.975l-22-5c-.146-.033-.297-.033-.443 0l-22 5c-.456.104-.779.508-.779.975s.323.872.778.975l22 5c.074.017.148.025.222.025s.148-.008.222-.025l12.778-2.904v9.929h-6c-.552 0-1 .448-1 1s.448 1 1 1h6v2.021l-13 2.953-13-2.953v-11.021c0-.552-.448-1-1-1s-1 .448-1 1v2h-8.586l-2.707-2.707c-.391-.391-1.023-.391-1.414 0s-.391 1.023 0 1.414l1.293 1.293h-13.728c-.447-1.72-2-3-3.858-3s-3.411 1.28-3.858 3h-8.142c-5.514 0-10 4.486-10 10 0 2.678 1.042 5.189 2.931 7.064 1.88 1.894 4.391 2.936 7.069 2.936zm27-3c1.103 0 2 .897 2 2s-.897 2-2 2-2-.897-2-2 .897-2 2-2zm51-5.414-1.814-1.814 1.814-4.233 1.814 4.233zm-22-15.611-17.488-3.975 17.488-3.974 17.488 3.974zm-44 3.025c1.103 0 2 .897 2 2s-.897 2-2 2-2-.897-2-2 .897-2 2-2z"/><path d="m75.293 56.707c.195.196.451.293.707.293s.512-.098.707-.293l2.707-2.707h4.586c2.678 0 5.189-1.042 7.064-2.931 1.894-1.88 2.936-4.391 2.936-7.069 0-5.514-4.486-10-10-10h-10.142c-.447-1.72-2-3-3.858-3s-3.411 1.28-3.858 3h-4.142c-.552 0-1 .448-1 1s.448 1 1 1h4.142c.447 1.72 2 3 3.858 3s3.411-1.28 3.858-3h10.142c4.411 0 8 3.589 8 8 0 2.142-.833 4.148-2.35 5.655-1.501 1.512-3.508 2.345-5.65 2.345h-4.586l-2.707-2.707c-.391-.391-1.023-.391-1.414 0s-.391 1.023 0 1.414l1.293 1.293h-18.728c-.447-1.72-2-3-3.858-3s-3.411 1.28-3.858 3h-10.142c-.552 0-1 .448-1 1s.448 1 1 1h10.142c.447 1.72 2 3 3.858 3s3.411-1.28 3.858-3h18.728l-1.293 1.293c-.391.391-.391 1.024 0 1.414zm-5.293-19.707c-1.103 0-2-.897-2-2s.897-2 2-2 2 .897 2 2-.897 2-2 2zm-16 18c-1.103 0-2-.897-2-2s.897-2 2-2 2 .897 2 2-.897 2-2 2z"/><circle cx="58" cy="35" r="1"/><circle cx="42" cy="89" r="1"/><circle cx="28" cy="53" r="1"/><circle cx="32" cy="53" r="1"/><circle cx="36" cy="53" r="1"/></svg>