<svg id="_x31__x2C_5" enable-background="new 0 0 36 36" height="512" viewBox="0 0 36 36" width="512" xmlns="http://www.w3.org/2000/svg"><g><path d="m4.167 27.623c0-6.917-3.583-11.667-3.583-15s1.916-10.333 17.249-10.333 17.583 9.417 17.583 13.083c.001 17.167-31.249 24.5-31.249 12.25z" fill="#efefef"/></g><g><path d="m5.5 6c-.827 0-1.5-.673-1.5-1.5s.673-1.5 1.5-1.5 1.5.673 1.5 1.5-.673 1.5-1.5 1.5zm0-2c-.275 0-.5.224-.5.5s.225.5.5.5.5-.224.5-.5-.225-.5-.5-.5z" fill="#a4afc1"/></g><g><path d="m18.75 29.25h-10.5c-.828 0-1.5-.672-1.5-1.5v-6.5h13.5v6.5c0 .828-.672 1.5-1.5 1.5z" fill="#f3f3f1"/></g><g><path d="m20.25 21.25h-13.5v-2c0-.828.672-1.5 1.5-1.5h10.5c.828 0 1.5.672 1.5 1.5z" fill="#2fdf84"/></g><g><path d="m27.75 18.25h-10.5c-.828 0-1.5-.672-1.5-1.5v-6.5h13.5v6.5c0 .828-.672 1.5-1.5 1.5z" fill="#f3f3f1"/></g><g><path d="m29.25 10.25h-13.5v-2c0-.828.672-1.5 1.5-1.5h10.5c.828 0 1.5.672 1.5 1.5z" fill="#2fdf84"/></g><g><path d="m10.5 17.75h-2.25c-.828 0-1.5.672-1.5 1.5v2h2.25v-2c0-.828.672-1.5 1.5-1.5z" fill="#00b871"/></g><g><path d="m19.5 6.75h-2.25c-.828 0-1.5.672-1.5 1.5v2h2.25v-2c0-.828.672-1.5 1.5-1.5z" fill="#00b871"/></g><g><path d="m9 27.75v-6.5h-2.25v6.5c0 .828.672 1.5 1.5 1.5h2.25c-.828 0-1.5-.672-1.5-1.5z" fill="#d5dbe1"/></g><g><path d="m18 16.75v-6.5h-2.25v6.5c0 .828.672 1.5 1.5 1.5h2.25c-.828 0-1.5-.672-1.5-1.5z" fill="#d5dbe1"/></g><g><path d="m27.75 19h-10.5c-1.24 0-2.25-1.009-2.25-2.25v-8.5c0-1.241 1.01-2.25 2.25-2.25h10.5c1.24 0 2.25 1.009 2.25 2.25v8.5c0 1.241-1.01 2.25-2.25 2.25zm-10.5-11.5c-.413 0-.75.336-.75.75v8.5c0 .414.337.75.75.75h10.5c.413 0 .75-.336.75-.75v-8.5c0-.414-.337-.75-.75-.75z"/></g><g><path d="m15.75 9.5h13.5v1.5h-13.5z"/></g><g><path d="m18.75 30h-10.5c-1.24 0-2.25-1.009-2.25-2.25v-8.5c0-1.241 1.01-2.25 2.25-2.25h4.75v1.5h-4.75c-.413 0-.75.336-.75.75v8.5c0 .414.337.75.75.75h10.5c.413 0 .75-.336.75-.75v-6.75h1.5v6.75c0 1.241-1.01 2.25-2.25 2.25z"/></g><g><path d="m6.75 20.5h8.25v1.5h-8.25z"/></g><g><path d="m27.5 25.311-1.5-1.5-1.5 1.5-1.061-1.061 2.03-2.03c.293-.293.768-.293 1.061 0l2.03 2.03z"/></g><g><path d="m24 27.5h-1v-1.5h1c.689 0 1.25-.561 1.25-1.25v-1.5h1.5v1.5c0 1.517-1.233 2.75-2.75 2.75z"/></g><g><path d="m10.061 14c-.192 0-.384-.073-.53-.22l-2.031-2.03 1.061-1.061 1.5 1.5 1.5-1.5 1.061 1.061-2.03 2.03c-.148.147-.339.22-.531.22z"/></g><g><path d="m10.811 12.75h-1.5v-1.5c0-1.517 1.233-2.75 2.75-2.75h1v1.5h-1c-.689 0-1.25.561-1.25 1.25z"/></g></svg>