<svg id="Effect" enable-background="new 0 0 36 36" height="512" viewBox="0 0 36 36" width="512" xmlns="http://www.w3.org/2000/svg"><g><path d="m31.833 27.623c0-6.917 3.583-11.667 3.583-15s-1.916-10.333-17.249-10.333-17.584 9.417-17.584 13.083c0 17.167 31.25 24.5 31.25 12.25z" fill="#efefef"/></g><g><path d="m27.25 8.75v18.5c0 1.105-.895 2-2 2h-14.5c-1.105 0-2-.895-2-2v-18.5c0-1.105.895-2 2-2h14.5c1.105 0 2 .895 2 2z" fill="#f3f3f1"/></g><g><path d="m11.75 14.75h12.5v11.5h-12.5z" fill="#2fdf84"/></g><g><path d="m11 27.25v-18.5c0-1.105.895-2 2-2h-2.25c-1.105 0-2 .895-2 2v18.5c0 1.105.895 2 2 2h2.25c-1.105 0-2-.895-2-2z" fill="#d5dbe1"/></g><g><path d="m11.75 14.75h2.25v11.5h-2.25z" fill="#00b871"/></g><g><path d="m24.25 27h-12.5c-.414 0-.75-.336-.75-.75v-11.5c0-.414.336-.75.75-.75h12.5c.414 0 .75.336.75.75v11.5c0 .414-.336.75-.75.75zm-11.75-1.5h11v-10h-11z"/></g><g><path d="m15 14.75h1.5v11.5h-1.5z"/></g><g><path d="m11.75 18h12.5v1.5h-12.5z"/></g><g><path d="m11.75 21.5h12.5v1.5h-12.5z"/></g><g><path d="m25.25 30h-14.5c-1.517 0-2.75-1.233-2.75-2.75v-18.5c0-1.517 1.233-2.75 2.75-2.75h14.5c1.517 0 2.75 1.233 2.75 2.75v18.5c0 1.517-1.233 2.75-2.75 2.75zm-14.5-22.5c-.689 0-1.25.561-1.25 1.25v18.5c0 .689.561 1.25 1.25 1.25h14.5c.689 0 1.25-.561 1.25-1.25v-18.5c0-.689-.561-1.25-1.25-1.25z"/></g><g><path d="m31 29.875c-.827 0-1.5-.673-1.5-1.5s.673-1.5 1.5-1.5 1.5.673 1.5 1.5-.673 1.5-1.5 1.5zm0-2c-.276 0-.5.224-.5.5s.224.5.5.5.5-.224.5-.5-.224-.5-.5-.5z" fill="#a4afc1"/></g><g><path d="m7 3.467h2v1h-2z" fill="#a4afc1" transform="matrix(.707 -.707 .707 .707 -.462 6.819)"/></g><g><path d="m2.934 7.533h2v1h-2z" fill="#a4afc1" transform="matrix(.707 -.707 .707 .707 -4.528 5.135)"/></g><g><path d="m3.611 2.967h1v2h-1z" fill="#a4afc1" transform="matrix(.707 -.707 .707 .707 -1.601 4.068)"/></g></svg>