<?xml version="1.0" encoding="iso-8859-1"?>
<!-- Generator: Adobe Illustrator 19.0.0, SVG Export Plug-In . SVG Version: 6.00 Build 0)  -->
<svg version="1.1" id="Layer_1" xmlns="http://www.w3.org/2000/svg" xmlns:xlink="http://www.w3.org/1999/xlink" x="0px" y="0px"
	 viewBox="0 0 512 512" style="enable-background:new 0 0 512 512;" xml:space="preserve">
<path style="fill:#3C66B1;" d="M256.003,7.607c-37.804,0-83.369,14.336-83.369,14.336C76.455,56.203,7.607,148.063,7.607,256.003
	c0,137.186,111.21,248.396,248.396,248.396s248.396-111.21,248.396-248.396S393.189,7.607,256.003,7.607z M256.003,456.227
	c-110.58,0-200.222-89.643-200.222-200.222S145.423,55.781,256.003,55.781s200.222,89.643,200.222,200.222
	S366.583,456.227,256.003,456.227z"/>
<circle style="fill:#52A2E7;" cx="256" cy="256" r="215.385"/>
<g>
	<path style="opacity:0.22;fill:#3C66B1;enable-background:new    ;" d="M400.059,53.626c28.972,40.629,46.018,90.35,46.018,144.055
		c0,137.186-111.21,248.396-248.396,248.396c-53.704,0-103.426-17.046-144.056-46.018C98.662,463.215,172.522,504.4,256.003,504.4
		c137.186,0,248.396-111.21,248.396-248.396C504.399,172.523,463.215,98.663,400.059,53.626z"/>
	<path style="fill:#3C66B1;" d="M194.644,178.88c7.743-4.638,15.565-9.286,24.181-12.422v39.084
		c-21.723,12.789-36.341,36.406-36.341,63.386c0,40.536,32.979,73.516,73.517,73.516c40.536,0,73.516-32.979,73.516-73.516
		c0-26.98-14.619-50.597-36.341-63.387v-39.084c41.854,15.231,71.826,55.416,71.826,102.47c0,60.104-48.898,109.001-109.001,109.001
		s-109.002-48.898-109.002-109.001c0-24.805,8.329-47.7,22.336-66.038C169.334,202.89,183.502,185.554,194.644,178.88z"/>
	<path style="fill:#3C66B1;" d="M256,223.691L256,223.691c-8.364,0-15.208-6.844-15.208-15.208v-59.204
		c0-8.364,6.844-15.208,15.208-15.208l0,0c8.364,0,15.208,6.844,15.208,15.208v59.204C271.208,216.848,264.364,223.691,256,223.691z
		"/>
</g>
<path d="M357.397,268.927c0,55.91-45.486,101.397-101.397,101.397s-101.398-45.487-101.398-101.397
	c0-22.39,7.184-43.629,20.775-61.422c2.55-3.338,1.911-8.11-1.426-10.659c-3.338-2.55-8.11-1.91-10.659,1.426
	c-15.635,20.467-23.898,44.898-23.898,70.654c0,64.296,52.309,116.605,116.606,116.605c64.296,0,116.605-52.309,116.605-116.605
	c0-48.841-30.875-92.892-76.83-109.616c-2.331-0.849-4.928-0.507-6.961,0.917c-2.033,1.422-3.242,3.748-3.242,6.229v39.084
	c0,2.694,1.424,5.186,3.746,6.553c20.105,11.837,32.595,33.615,32.595,56.834c0,36.344-29.568,65.912-65.912,65.912
	c-36.345,0-65.913-29.568-65.913-65.912c0-23.218,12.49-44.996,32.596-56.834c2.321-1.367,3.745-3.859,3.745-6.553v-39.083
	c0-2.481-1.21-4.806-3.242-6.229c-2.033-1.422-4.63-1.766-6.961-0.917c-9.122,3.319-17.827,7.791-25.873,13.29
	c-3.466,2.369-4.357,7.101-1.986,10.568c2.369,3.467,7.1,4.357,10.568,1.987c3.928-2.685,8.036-5.088,12.286-7.189v23.366
	c-22.523,14.978-36.342,40.483-36.342,67.592c0,44.73,36.392,81.12,81.121,81.12s81.12-36.391,81.12-81.12
	c0-27.11-13.819-52.615-36.342-67.593v-23.37C335.047,194.9,357.397,230.181,357.397,268.927z"/>
<path d="M278.812,208.483v-59.204c0-12.579-10.234-22.812-22.812-22.812c-12.578,0-22.812,10.233-22.812,22.812v59.204
	c0,12.579,10.234,22.812,22.812,22.812C268.578,231.295,278.812,221.062,278.812,208.483z M248.396,208.483v-59.204
	c0-4.193,3.411-7.604,7.604-7.604s7.604,3.411,7.604,7.604v59.204c0,4.193-3.411,7.604-7.604,7.604
	C251.807,216.087,248.396,212.677,248.396,208.483z"/>
<path d="M33.483,256c0,59.437,23.145,115.316,65.173,157.343c42.029,42.028,97.907,65.173,157.343,65.173
	s115.315-23.145,157.343-65.173c42.028-42.028,65.173-97.907,65.173-157.343S455.37,140.684,413.342,98.657
	C371.315,56.628,315.437,33.483,256,33.483c-35.701,0-69.804,8.201-101.36,24.375c-3.738,1.915-5.214,6.498-3.299,10.235
	c1.917,3.738,6.499,5.214,10.236,3.298c29.389-15.063,61.157-22.7,94.423-22.7c114.311,0,207.309,92.998,207.309,207.309
	S370.311,463.308,256,463.308S48.691,370.311,48.691,256c0-58.795,25.115-115.052,68.907-154.346
	c3.126-2.804,3.386-7.612,0.581-10.738s-7.612-3.387-10.738-0.581C60.439,132.51,33.483,192.892,33.483,256z"/>
<path d="M437.019,74.981C388.668,26.629,324.38,0,256,0c-34.659,0-68.276,6.808-99.919,20.235c-3.866,1.64-5.671,6.104-4.03,9.97
	c1.641,3.866,6.106,5.667,9.97,4.03C191.775,21.609,223.393,15.208,256,15.208c132.773,0,240.792,108.019,240.792,240.792
	S388.773,496.792,256,496.792S15.208,388.773,15.208,256c0-74.427,33.618-143.503,92.234-189.517
	c3.304-2.593,3.879-7.373,1.287-10.676c-2.594-3.304-7.374-3.88-10.676-1.287c-29.862,23.443-54.555,53.747-71.408,87.638
	C8.965,177.712,0,216.013,0,256c0,68.38,26.629,132.668,74.98,181.019C123.332,485.371,187.62,512,256,512
	s132.668-26.629,181.019-74.981C485.371,388.668,512,324.38,512,256S485.371,123.332,437.019,74.981z"/>
<g>
</g>
<g>
</g>
<g>
</g>
<g>
</g>
<g>
</g>
<g>
</g>
<g>
</g>
<g>
</g>
<g>
</g>
<g>
</g>
<g>
</g>
<g>
</g>
<g>
</g>
<g>
</g>
<g>
</g>
</svg>
